<svg width="104" height="113" viewBox="0 0 104 113" fill="none" xmlns="http://www.w3.org/2000/svg">
<g clip-path="url(#clip0_225_215)">
<path fill-rule="evenodd" clip-rule="evenodd" d="M52.6497 0.266845C60.9676 5.64896 69.9349 9.97427 79.3411 13.1412C87.5267 15.762 95.1833 16.8196 102.246 16.1391C102.614 16.1082 102.98 16.222 103.265 16.456C103.55 16.6899 103.73 17.0252 103.768 17.3897V17.4725C105.03 42.6878 101.086 62.9189 92.7332 78.5245C83.8979 95.022 70.1624 106.342 52.4919 112.927C52.1918 113.033 51.8639 113.033 51.5638 112.927C34.9234 106.903 21.6798 96.4934 12.7703 80.7407C3.86079 64.988 -0.649648 43.9937 0.0742497 16.6908C0.0839807 16.3241 0.239746 15.9762 0.50753 15.7229C0.775315 15.4696 1.13336 15.3316 1.50348 15.339C10.325 15.8922 19.1761 14.9119 27.6566 12.4423C36.1156 9.85514 44.0172 5.73623 50.9606 0.294433C51.2032 0.110973 51.4999 0.0115967 51.8051 0.0115967C52.1103 0.0115967 52.407 0.110973 52.6497 0.294433V0.266845ZM75.3504 22.2452C67.1285 19.4599 59.2783 15.6957 51.9722 11.0353C45.4704 16.0063 38.0851 19.7245 30.1995 21.9969C23.1785 23.9321 15.8933 24.7576 8.61253 24.443C8.61253 46.1823 12.529 63.0661 19.8608 75.7381C25.8677 86.2384 35.0381 94.6144 46.0882 99.6936L40.594 83.6834C39.7865 81.7891 39.1833 80.005 38.4408 78.1658C37.0531 75.0517 35.242 72.1403 33.058 69.5124C31.322 66.3135 30.4223 62.7347 30.4408 59.1026C31.7587 60.0958 33.2251 61.2821 34.6357 62.3856C37.2993 64.4547 40.1021 66.9836 42.8863 63.3052C43.4153 62.5603 43.9536 61.843 44.5012 61.1717C46.5734 58.6127 48.9724 56.3314 51.6381 54.3851C48.8538 57.1439 47.768 62.5879 49.0951 69.3837C50.0232 58.3485 52.7239 49.8147 65.9861 51.5435L64.3805 47.8192L58.9606 49.8423C54.7564 51.378 49.9954 45.8236 52.1114 43.2212C59.3318 39.1198 68.9652 31.4136 73.6334 39.7727L77.4571 46.6789C82.5244 55.6449 79.1833 58.8819 72.9095 67.5721C70.594 70.8131 67.961 73.8195 65.0487 76.5474C63.5731 77.9176 63.8144 77.467 64.9374 79.3061L71.5267 90.9207C76.7776 86.463 81.192 81.1207 84.5661 75.1404C91.768 62.5327 95.3782 45.98 95.2019 25.1327C88.4621 25.3828 81.7333 24.4041 75.3504 22.2452ZM30.4316 47.2858C30.7954 46.9074 31.2812 46.6667 31.8051 46.6053C32.0838 46.5868 32.3635 46.618 32.6311 46.6973C33.2459 46.8944 33.7968 47.2498 34.2274 47.7272C37.1563 50.2704 39.898 53.0178 42.4316 55.9484C43.8051 57.2082 44.1207 58.5049 43.0348 59.7647L41.0673 61.9442C40.0743 62.9373 38.8028 62.8638 37.42 61.889C31.1833 56.7025 23.8237 54.0264 30.4316 47.2858ZM59.3968 23.9097C59.6859 23.9355 59.9684 24.0101 60.232 24.1304C61.6427 24.7465 63.2761 27.5697 63.9443 28.8663C64.3898 29.6939 65.6705 31.9377 66.7285 33.8229L57.819 37.3818C56.3898 35.1012 55.0998 32.7838 53.8005 30.8802C53.4399 30.4761 53.2037 29.9782 53.1199 29.4453C53.036 28.9124 53.1079 28.3668 53.3271 27.8731C53.9841 26.7497 54.9497 25.8344 56.1114 25.2339C56.9281 24.8293 58.6079 23.9097 59.3968 23.9097ZM48.8538 29.8043C49.1457 29.812 49.4343 29.868 49.7077 29.9698C50.3288 30.2269 50.8678 30.6465 51.2668 31.1837C52.2008 32.1937 53.0309 33.2935 53.7448 34.4666C54.181 35.1471 55.1369 36.6185 56.1299 38.145C53.058 39.5152 48.9188 40.2509 48.7703 44.1592C46.9606 41.7039 45.3364 39.083 43.7401 37.0691C43.3549 36.6865 43.0881 36.2027 42.9713 35.6747C42.8546 35.1468 42.8927 34.5968 43.0812 34.0896C43.7216 32.37 47.1276 29.7399 48.8538 29.7675V29.8043ZM39.3504 37.7036C39.6289 37.6902 39.9078 37.7212 40.1763 37.7956C40.7885 37.9879 41.3368 38.3406 41.7633 38.8163C42.7369 39.7061 43.6198 40.6887 44.3991 41.7498C45.4756 43.2212 49.7541 48.5824 50.3666 49.8147C50.5987 50.2257 50.6932 50.6992 50.6365 51.1668C50.5798 51.6345 50.3748 52.0723 50.051 52.4172L47.5267 54.8449C46.5244 55.838 45.2529 55.7645 43.8701 54.7897C40.6404 51.7183 37.6798 47.8192 35.0812 45.0604C34.6855 44.7306 34.3926 44.2961 34.2365 43.8077C34.0804 43.3193 34.0676 42.797 34.1995 42.3016C34.6265 40.7199 37.7355 37.8048 39.3504 37.7036Z" fill="#B64B4B"/>
</g>
<defs>
<clipPath id="clip0_225_215">
<rect width="104" height="113" fill="white"/>
</clipPath>
</defs>
</svg>
