<svg width="350" height="362" viewBox="0 0 350 362" fill="none" xmlns="http://www.w3.org/2000/svg">
<path d="M272.166 121.798C272.166 121.798 272.395 202.815 175.148 247.597C175.148 247.597 90.2753 222.356 77.4892 127.701V7.80511H272.166V121.798ZM71.1526 3.05176e-05V127.701C84.7708 228.518 175.169 255.403 175.169 255.403C278.747 207.705 278.503 121.414 278.503 121.414V3.05176e-05H71.1526Z" fill="#EF4344"/>
<path d="M259.111 120.566C259.111 120.566 259.31 190.717 175.106 229.493C175.106 229.493 101.617 207.637 90.5457 125.678V21.8627H259.111V120.566ZM85.0589 15.1043V125.678C96.8508 212.973 175.124 236.251 175.124 236.251C264.809 194.95 264.598 120.234 264.598 120.234V15.1043H85.0589Z" fill="#272C6E"/>
<path d="M208.403 67.359L208.537 68.43L206.911 68.7695L206.692 71.0579H208.652L211.252 70.8127L212.59 69.2322L211.166 68.6868L210.382 67.7977L209.206 65.9173L208.652 63.2661L206.434 63.7045L205.822 64.6435V65.6957L206.883 66.4152L208.403 67.359Z" fill="#272C6E"/>
<path d="M206.519 68.2361L206.633 66.8019L205.343 66.2521L203.531 66.6675L202.179 68.7928V70.1753H203.751L206.519 68.2361Z" fill="#272C6E"/>
<path d="M169.228 74.3388L168.827 75.353H166.893V76.3392H167.354C167.354 76.3392 167.383 76.5468 167.423 76.8228L168.607 76.7263L169.34 76.2708L169.531 75.3582L170.492 75.2751L170.867 74.5084L169.988 74.3289L169.228 74.3388Z" fill="#272C6E"/>
<path d="M164.245 76.1271L164.173 77.0876L165.576 76.9717L165.719 76.0067L164.878 75.3536L164.245 76.1271Z" fill="#272C6E"/>
<path d="M240.17 92.5434L240.38 92.2958C240.476 92.6733 240.562 93.0505 240.653 93.4284L240.17 92.5434ZM153.964 75.3531L154.571 74.7208L155.599 75.3531L154.776 76.0257L153.964 75.3531ZM155.931 77.1268V78.4126H153.787L153.204 77.5751V76.3769H153.371L155.931 77.1268ZM146.823 74.9284H149.048L146.189 78.8656L145.016 78.243L145.27 76.5845L146.823 74.9284ZM152.157 77.5751V78.8656L151.191 79.819H149.047L149.382 78.3678L150.395 78.2806L150.601 77.7827L152.157 77.5751ZM151.526 74.3885V72.8076L152.91 74.053L151.526 74.3885ZM152.661 74.9284V76.2518L151.648 76.8936L150.396 77.1268V74.9281H152.661V74.9284ZM150.807 73.02V74.3885H146.782L145.264 73.9709L145.642 73.0203L147.575 72.2325H150.224V73.0203H150.807V73.02ZM141.447 68.0422L143.204 67.2119L144.801 67.5894L144.256 69.7054L142.535 70.2409L141.447 68.0422ZM239.08 89.1844H233.707L230.428 86.7801L226.987 87.1084V89.1844H225.898L224.726 88.3586L218.755 86.868V83.0508L211.194 83.6287L208.847 84.872H205.85L204.373 84.726L200.73 86.7265V90.4842L193.285 95.7896L193.902 98.0567H195.415L195.019 100.215L193.957 100.602L193.902 106.24L200.334 113.478H203.139L203.307 113.039H208.345L209.797 111.713H212.656L214.224 113.261L218.473 113.695L217.914 119.281L222.646 127.516L220.151 132.215L220.319 134.424L222.283 136.353V141.671L224.854 145.087V149.512H227.072C214.712 164.502 195.879 174.094 174.814 174.094C137.66 174.094 107.433 144.265 107.433 107.587C107.433 98.3559 109.353 89.5568 112.813 81.5616V79.4883L115.222 76.6012C116.058 75.0392 116.955 73.5223 117.913 72.0389L118.016 73.2463L115.222 76.6012C114.355 78.2194 113.542 79.871 112.814 81.5623V85.3436L115.607 86.6738V91.9347L118.296 96.4567L120.483 96.785L120.763 95.2349L118.194 91.3117L117.685 87.4996H119.198L119.838 91.4276L123.562 96.785L122.603 98.519L124.962 102.09L130.841 103.525V102.588L133.191 102.916L132.971 104.572L134.816 104.907L137.674 105.674L141.706 110.21L146.851 110.592L147.36 114.738L143.831 117.167L143.67 120.869L143.161 123.138L148.257 129.432L148.646 131.593C148.646 131.593 150.493 132.083 150.723 132.083C150.943 132.083 154.863 135.018 154.863 135.018V146.398L156.258 146.79L155.315 152.036L157.664 155.136L157.224 160.345L160.336 165.734L164.325 169.173L168.328 169.253L168.72 167.975L165.773 165.526L165.945 164.314L166.468 162.818L166.58 161.299L164.59 161.242L163.586 159.997L165.24 158.421L165.465 157.237L163.615 156.713L163.722 155.609L166.356 155.212L170.359 153.315L171.702 150.876L175.897 145.573L174.946 141.426L176.234 139.217L180.101 139.33L182.704 137.292L183.548 129.294L186.444 125.69L186.953 123.374L184.324 122.543L182.586 119.724L176.654 119.665L171.946 117.898L171.726 114.584L170.158 111.873L165.907 111.814L163.44 108.004L161.261 106.955L161.148 108.115L157.169 108.346L155.716 106.346L151.57 105.516L148.154 109.415L142.779 108.51L142.387 102.529L138.468 101.867L140.033 98.9342L139.584 97.25L134.429 100.649L131.188 100.258L130.029 97.7572L130.744 95.1764L132.529 91.9258L136.642 89.8663H144.591L144.565 92.2582L147.423 93.572L147.194 89.486L149.254 87.4405L153.41 84.7442L153.699 82.8521L157.841 78.5941L162.246 76.183L161.859 75.8695L164.844 73.0972L165.936 73.3828L166.436 74.001L167.571 72.7573L167.851 72.6373L166.608 72.4626L165.339 72.0618V70.8588L166.011 70.3185H167.483L168.164 70.6133L168.747 71.7739L169.462 71.6655V71.5663L169.667 71.6327L171.733 71.3191L172.027 70.3189L173.2 70.6136V71.6969L172.103 72.4352H172.11L172.266 73.6242L176.015 74.7588C176.015 74.7588 176.015 74.7728 176.025 74.8032L176.88 74.7304L176.94 73.1308L173.975 71.7978L173.812 71.0288L176.268 70.2033L176.381 67.8797L173.812 66.3344L173.642 62.4088L170.112 64.1217H168.819L169.163 61.1351L164.355 60.0193L162.373 61.503V66.0181L158.805 67.1367L157.371 70.0781L155.825 70.3233V66.5564L152.467 66.0961L150.782 65.0131L150.108 62.5737L156.119 59.1059L159.056 58.2209L159.352 60.1718L160.995 60.0846L161.121 59.1056L162.835 58.8621L162.864 58.5201L162.13 58.2206L161.962 57.1876L164.068 57.0128L165.34 55.7083L165.414 55.6115L165.428 55.6163L165.815 55.22L170.239 54.6701L172.192 56.3077L167.063 59.004L173.592 60.5253L174.433 58.3693H177.292L178.295 56.491L176.278 55.9931V53.6152L169.96 50.8525L165.591 51.3504L163.122 52.6194L163.289 55.7171L160.715 55.3301L160.319 53.6196L162.79 51.4068L158.306 51.1897L157.021 51.5768L156.462 53.0698L158.142 53.3484L157.807 55.0069L154.954 55.1717L154.504 56.2783L150.36 56.3908C150.36 56.3908 150.248 54.0717 150.07 54.0717C149.91 54.0717 153.321 54.0129 153.321 54.0129L155.787 51.6373L154.442 50.9746L152.657 52.6895L149.686 52.5243L147.874 50.0804H144.067L140.093 53.0082H143.733L144.06 54.0628L143.111 54.9447L147.146 55.0579L147.757 56.4924L143.219 56.3272L142.994 55.2206L140.145 54.6116L138.628 53.7861L135.231 53.8142C146.357 45.8149 160.032 41.0802 174.819 41.0802C191.852 41.0802 207.428 47.3649 219.301 57.695L218.507 59.1059L215.396 60.3085L214.082 61.7147L214.387 63.3468L215.989 63.5687L216.959 65.9511L219.717 64.8493L220.181 68.0411H219.339L217.069 67.7088L214.555 68.1235L212.117 71.5253L208.637 72.0611L208.135 75.005L209.607 75.347L209.177 77.2414L205.716 76.5551L202.547 77.2414L201.873 78.9846L202.418 82.6435L204.282 83.5025L207.413 83.4837L209.52 83.295L210.171 81.6389L213.469 77.4069L215.635 77.8456L217.771 75.9372L218.172 77.4308L223.43 80.9314L222.79 81.7876L220.419 81.6625L221.336 82.9363L222.799 83.257L224.51 82.5519L224.472 80.5207L225.237 80.1459L224.625 79.5061L221.116 77.5741L220.189 75.0101H223.11L224.033 75.9228L226.556 78.0576L226.657 80.6431L229.261 83.3774L230.228 79.6289L232.034 78.6567L232.364 81.7233L234.128 83.6321L237.641 83.5754C238.325 85.3002 238.937 87.0527 239.463 88.8455L239.08 89.1844ZM137.581 60.4204C137.581 60.4204 139.053 60.1728 139.182 60.1728C139.304 60.1728 139.182 61.6237 139.182 61.6237L135.857 61.8309L135.226 61.081L137.581 60.4204ZM135.231 57.1882V57.0658H136.699L136.833 56.5679H139.234V57.6034L138.538 58.5113H135.226V57.1879L135.231 57.1882ZM223.794 65.2255L223.803 61.9886C224.96 63.1967 226.069 64.4397 227.13 65.7302L225.811 67.6718L221.184 67.6267L220.897 66.676L223.794 65.2255ZM234.405 77.875L234.826 77.4031C235.385 78.4738 235.916 79.5571 236.408 80.6629L235.705 80.6346L234.4 80.8117V77.8747L234.405 77.875ZM248.224 106.839C248.205 104.719 248.096 102.617 247.894 100.543C247.21 93.6356 245.542 87.0161 243.028 80.812C242.847 80.3545 242.675 79.885 242.478 79.4275C239.137 71.6374 234.443 64.546 228.707 58.4244C228.335 58.0236 227.953 57.6317 227.57 57.2402C226.48 56.1292 225.376 55.0415 224.215 54.0033C211.165 42.2719 193.826 35.1121 174.828 35.1121C155.671 35.1121 138.207 42.4043 125.119 54.308C122.07 57.0822 119.269 60.116 116.724 63.3574C107.135 75.6055 101.409 90.9441 101.409 107.582C101.409 147.54 134.345 180.053 174.828 180.053C203.307 180.053 228.029 163.955 240.199 140.501C242.799 135.495 244.826 130.15 246.192 124.545C246.537 123.129 246.842 121.695 247.101 120.246C247.842 116.13 248.248 111.897 248.248 107.578C248.238 107.337 248.224 107.09 248.224 106.839Z" fill="#272C6E"/>
<path d="M112.818 79.4843V81.5579C113.547 79.8614 114.36 78.2153 115.227 76.5941L112.818 79.4843Z" fill="#272C6E"/>
<path d="M333.613 323.15H349.537L338.555 341.687L349.656 361.2L328.158 361.128L333.503 356.105L333.613 323.15Z" fill="#EF4344"/>
<path d="M39.409 111.015C39.409 111.015 28.3592 136.584 43.3171 156.759C43.1123 157.081 53.2299 142.271 39.409 111.015Z" fill="#272C6E"/>
<path d="M15.23 154.999C15.23 154.999 20.5238 184.006 45.7787 187.197C45.7787 187.197 45.3886 167.458 15.23 154.999Z" fill="#272C6E"/>
<path d="M69.8598 148.801C69.8598 148.801 50.2375 153.199 54.6306 182.723C54.6306 182.723 70.4456 175.028 69.8598 148.801Z" fill="#272C6E"/>
<path d="M26.808 200.626C26.808 200.626 42.8763 194.187 61.9324 221.356C61.9324 221.356 47.7481 235.49 26.808 200.626Z" fill="#272C6E"/>
<path d="M77.954 180.054C77.954 180.054 58.0307 189.319 69.8759 216.646C69.8759 216.646 83.1193 206.909 77.954 180.054Z" fill="#272C6E"/>
<path d="M45.5513 240.202C45.5513 240.202 62.9768 231.407 84.2096 252.608C84.2096 252.608 68.5412 268.784 45.5513 240.202Z" fill="#272C6E"/>
<path d="M91.0089 207.85C91.0089 207.85 75.6962 223.241 91.0089 244.599C91.0089 244.599 103.612 233.042 91.0089 207.85Z" fill="#272C6E"/>
<path d="M71.6172 274.594C71.6172 274.594 96.6574 296.895 113.204 277.264C113.204 277.264 86.9929 262.816 71.6172 274.594Z" fill="#272C6E"/>
<path d="M111.007 231.25C111.007 231.25 96.9494 250.881 117.596 268.784C117.596 268.784 126.529 253.394 111.007 231.25Z" fill="#272C6E"/>
<path d="M104.857 302.235C104.857 302.235 133.119 319.51 146.884 295.168C146.884 295.168 119.354 285.902 104.857 302.235Z" fill="#272C6E"/>
<path d="M134.583 250.252C134.583 250.252 124.479 271.914 149.373 285.347C149.373 285.347 154.938 268.156 134.583 250.252Z" fill="#272C6E"/>
<path d="M185.55 294.835C185.55 301.186 180.75 306.334 174.828 306.334C168.906 306.334 164.105 301.186 164.105 294.835C164.105 288.484 168.906 283.335 174.828 283.335C180.75 283.335 185.55 288.484 185.55 294.835Z" fill="#272C6E"/>
<path d="M42.1489 159.064C43.1699 163.092 45.4799 175.15 49.6523 187.196C50.7512 190.368 52.2162 193.54 53.3162 196.563C56.3599 204.93 60.2514 212.164 61.9326 215.152C61.9326 215.152 91.019 275.719 150.068 292.549L164.51 297.959V292.549C164.51 292.549 122.949 285.617 87.2658 244.599C76.673 232.423 66.2343 217.243 57.5703 198.349C52.8461 188.046 49.9617 177.132 47.1476 164.011C46.6394 161.641 44.9845 158.518 43.0628 158.482C42.3519 158.469 41.9625 158.328 42.1489 159.064Z" fill="#272C6E"/>
<path d="M310.247 111.015C310.247 111.015 321.296 136.584 306.338 156.759C306.543 157.081 296.426 142.271 310.247 111.015Z" fill="#272C6E"/>
<path d="M334.425 154.999C334.425 154.999 329.132 184.006 303.877 187.197C303.877 187.197 304.267 167.458 334.425 154.999Z" fill="#272C6E"/>
<path d="M279.796 148.801C279.796 148.801 299.418 153.199 295.025 182.723C295.025 182.723 279.21 175.028 279.796 148.801Z" fill="#272C6E"/>
<path d="M322.848 200.626C322.848 200.626 306.78 194.187 287.724 221.356C287.724 221.356 301.908 235.49 322.848 200.626Z" fill="#272C6E"/>
<path d="M271.703 180.054C271.703 180.054 291.626 189.319 279.781 216.646C279.781 216.646 266.538 206.909 271.703 180.054Z" fill="#272C6E"/>
<path d="M304.104 240.202C304.104 240.202 286.679 231.407 265.446 252.608C265.446 252.608 281.114 268.784 304.104 240.202Z" fill="#272C6E"/>
<path d="M258.647 207.85C258.647 207.85 273.96 223.241 258.647 244.599C258.647 244.599 246.044 233.042 258.647 207.85Z" fill="#272C6E"/>
<path d="M278.039 274.594C278.039 274.594 252.999 296.895 236.452 277.264C236.452 277.264 262.663 262.816 278.039 274.594Z" fill="#272C6E"/>
<path d="M238.648 231.25C238.648 231.25 252.706 250.881 232.059 268.784C232.059 268.784 223.126 253.394 238.648 231.25Z" fill="#272C6E"/>
<path d="M244.799 302.235C244.799 302.235 216.537 319.51 202.773 295.168C202.773 295.168 230.302 285.902 244.799 302.235Z" fill="#272C6E"/>
<path d="M215.073 250.252C215.073 250.252 225.177 271.914 200.283 285.347C200.283 285.347 194.719 268.156 215.073 250.252Z" fill="#272C6E"/>
<path d="M164.105 294.835C164.105 301.186 168.906 306.334 174.828 306.334C180.75 306.334 185.55 301.186 185.55 294.835C185.55 288.484 180.75 283.335 174.828 283.335C168.906 283.335 164.105 288.484 164.105 294.835Z" fill="#272C6E"/>
<path d="M307.507 159.064C306.486 163.092 304.176 175.15 300.003 187.196C298.905 190.368 297.44 193.54 296.34 196.563C293.296 204.93 289.404 212.164 287.723 215.152C287.723 215.152 258.637 275.719 199.587 292.549L185.146 297.959V292.549C185.146 292.549 226.707 285.617 262.39 244.599C272.983 232.423 283.422 217.243 292.085 198.349C296.81 188.046 299.694 177.132 302.508 164.011C303.016 161.641 304.671 158.518 306.593 158.482C307.304 158.469 307.693 158.328 307.507 159.064Z" fill="#272C6E"/>
<path d="M16.0436 323.15H0.118827L11.1014 341.687L0 361.2L21.4982 361.128L16.1534 356.105L16.0436 323.15Z" fill="#EF4344"/>
<path d="M54.8407 327.048L57.7161 333.716H51.8856L54.8407 327.048Z" fill="#EF4344"/>
<path d="M75.4667 326.637C75.2935 326.21 75.0441 325.841 74.7219 325.53C74.3962 325.222 74.0117 324.982 73.5613 324.811C73.1144 324.644 72.6225 324.558 72.0855 324.558C71.5763 324.558 70.9215 324.637 70.1247 324.794V331.664C70.2841 331.664 70.4261 331.668 70.5439 331.674C70.6617 331.678 70.7587 331.681 70.8349 331.681C71.6421 331.681 72.3523 331.592 72.9655 331.411C73.5752 331.226 74.0845 330.973 74.4967 330.645C74.909 330.32 75.2173 329.934 75.4217 329.493C75.6261 329.048 75.73 328.569 75.73 328.046C75.73 327.537 75.6434 327.068 75.4667 326.637ZM75.4667 326.637C75.2935 326.21 75.0441 325.841 74.7219 325.53C74.3962 325.222 74.0117 324.982 73.5613 324.811C73.1144 324.644 72.6225 324.558 72.0855 324.558C71.5763 324.558 70.9215 324.637 70.1247 324.794V331.664C70.2841 331.664 70.4261 331.668 70.5439 331.674C70.6617 331.678 70.7587 331.681 70.8349 331.681C71.6421 331.681 72.3523 331.592 72.9655 331.411C73.5752 331.226 74.0845 330.973 74.4967 330.645C74.909 330.32 75.2173 329.934 75.4217 329.493C75.6261 329.048 75.73 328.569 75.73 328.046C75.73 327.537 75.6434 327.068 75.4667 326.637ZM75.4667 326.637C75.2935 326.21 75.0441 325.841 74.7219 325.53C74.3962 325.222 74.0117 324.982 73.5613 324.811C73.1144 324.644 72.6225 324.558 72.0855 324.558C71.5763 324.558 70.9215 324.637 70.1247 324.794V331.664C70.2841 331.664 70.4261 331.668 70.5439 331.674C70.6617 331.678 70.7587 331.681 70.8349 331.681C71.6421 331.681 72.3523 331.592 72.9655 331.411C73.5752 331.226 74.0845 330.973 74.4967 330.645C74.909 330.32 75.2173 329.934 75.4217 329.493C75.6261 329.048 75.73 328.569 75.73 328.046C75.73 327.537 75.6434 327.068 75.4667 326.637ZM75.4667 326.637C75.2935 326.21 75.0441 325.841 74.7219 325.53C74.3962 325.222 74.0117 324.982 73.5613 324.811C73.1144 324.644 72.6225 324.558 72.0855 324.558C71.5763 324.558 70.9215 324.637 70.1247 324.794V331.664C70.2841 331.664 70.4261 331.668 70.5439 331.674C70.6617 331.678 70.7587 331.681 70.8349 331.681C71.6421 331.681 72.3523 331.592 72.9655 331.411C73.5752 331.226 74.0845 330.973 74.4967 330.645C74.909 330.32 75.2173 329.934 75.4217 329.493C75.6261 329.048 75.73 328.569 75.73 328.046C75.73 327.537 75.6434 327.068 75.4667 326.637ZM75.4667 326.637C75.2935 326.21 75.0441 325.841 74.7219 325.53C74.3962 325.222 74.0117 324.982 73.5613 324.811C73.1144 324.644 72.6225 324.558 72.0855 324.558C71.5763 324.558 70.9215 324.637 70.1247 324.794V331.664C70.2841 331.664 70.4261 331.668 70.5439 331.674C70.6617 331.678 70.7587 331.681 70.8349 331.681C71.6421 331.681 72.3523 331.592 72.9655 331.411C73.5752 331.226 74.0845 330.973 74.4967 330.645C74.909 330.32 75.2173 329.934 75.4217 329.493C75.6261 329.048 75.73 328.569 75.73 328.046C75.73 327.537 75.6434 327.068 75.4667 326.637ZM134.599 328.764C134.367 327.776 134.017 326.942 133.553 326.258C133.085 325.574 132.507 325.051 131.814 324.695C131.121 324.336 130.321 324.158 129.413 324.158C128.554 324.158 127.792 324.336 127.123 324.695C126.458 325.051 125.897 325.56 125.443 326.22C124.986 326.88 124.643 327.68 124.404 328.621C124.168 329.558 124.05 330.614 124.05 331.791C124.05 332.953 124.165 334.017 124.397 334.981C124.625 335.942 124.968 336.773 125.422 337.471C125.88 338.168 126.441 338.705 127.116 339.088C127.788 339.471 128.561 339.659 129.43 339.659C130.217 339.659 130.941 339.515 131.609 339.225C132.275 338.934 132.857 338.483 133.355 337.871C133.854 337.259 134.242 336.475 134.523 335.525C134.804 334.574 134.942 333.439 134.942 332.119C134.942 330.871 134.828 329.753 134.599 328.764ZM149.406 326.637C149.232 326.21 148.983 325.841 148.657 325.53C148.335 325.222 147.947 324.982 147.5 324.811C147.053 324.644 146.558 324.558 146.025 324.558C145.512 324.558 144.861 324.637 144.064 324.794V331.664C144.223 331.664 144.365 331.668 144.483 331.674C144.601 331.678 144.698 331.681 144.774 331.681C145.581 331.681 146.291 331.592 146.904 331.411C147.514 331.226 148.023 330.973 148.436 330.645C148.844 330.32 149.153 329.934 149.361 329.493C149.565 329.048 149.669 328.569 149.669 328.046C149.669 327.537 149.582 327.068 149.406 326.637ZM149.406 326.637C149.232 326.21 148.983 325.841 148.657 325.53C148.335 325.222 147.947 324.982 147.5 324.811C147.053 324.644 146.558 324.558 146.025 324.558C145.512 324.558 144.861 324.637 144.064 324.794V331.664C144.223 331.664 144.365 331.668 144.483 331.674C144.601 331.678 144.698 331.681 144.774 331.681C145.581 331.681 146.291 331.592 146.904 331.411C147.514 331.226 148.023 330.973 148.436 330.645C148.844 330.32 149.153 329.934 149.361 329.493C149.565 329.048 149.669 328.569 149.669 328.046C149.669 327.537 149.582 327.068 149.406 326.637ZM134.599 328.764C134.367 327.776 134.017 326.942 133.553 326.258C133.085 325.574 132.507 325.051 131.814 324.695C131.121 324.336 130.321 324.158 129.413 324.158C128.554 324.158 127.792 324.336 127.123 324.695C126.458 325.051 125.897 325.56 125.443 326.22C124.986 326.88 124.643 327.68 124.404 328.621C124.168 329.558 124.05 330.614 124.05 331.791C124.05 332.953 124.165 334.017 124.397 334.981C124.625 335.942 124.968 336.773 125.422 337.471C125.88 338.168 126.441 338.705 127.116 339.088C127.788 339.471 128.561 339.659 129.43 339.659C130.217 339.659 130.941 339.515 131.609 339.225C132.275 338.934 132.857 338.483 133.355 337.871C133.854 337.259 134.242 336.475 134.523 335.525C134.804 334.574 134.942 333.439 134.942 332.119C134.942 330.871 134.828 329.753 134.599 328.764ZM75.4667 326.637C75.2935 326.21 75.0441 325.841 74.7219 325.53C74.3962 325.222 74.0117 324.982 73.5613 324.811C73.1144 324.644 72.6225 324.558 72.0855 324.558C71.5763 324.558 70.9215 324.637 70.1247 324.794V331.664C70.2841 331.664 70.4261 331.668 70.5439 331.674C70.6617 331.678 70.7587 331.681 70.8349 331.681C71.6421 331.681 72.3523 331.592 72.9655 331.411C73.5752 331.226 74.0845 330.973 74.4967 330.645C74.909 330.32 75.2173 329.934 75.4217 329.493C75.6261 329.048 75.73 328.569 75.73 328.046C75.73 327.537 75.6434 327.068 75.4667 326.637ZM75.4667 326.637C75.2935 326.21 75.0441 325.841 74.7219 325.53C74.3962 325.222 74.0117 324.982 73.5613 324.811C73.1144 324.644 72.6225 324.558 72.0855 324.558C71.5763 324.558 70.9215 324.637 70.1247 324.794V331.664C70.2841 331.664 70.4261 331.668 70.5439 331.674C70.6617 331.678 70.7587 331.681 70.8349 331.681C71.6421 331.681 72.3523 331.592 72.9655 331.411C73.5752 331.226 74.0845 330.973 74.4967 330.645C74.909 330.32 75.2173 329.934 75.4217 329.493C75.6261 329.048 75.73 328.569 75.73 328.046C75.73 327.537 75.6434 327.068 75.4667 326.637ZM134.599 328.764C134.367 327.776 134.017 326.942 133.553 326.258C133.085 325.574 132.507 325.051 131.814 324.695C131.121 324.336 130.321 324.158 129.413 324.158C128.554 324.158 127.792 324.336 127.123 324.695C126.458 325.051 125.897 325.56 125.443 326.22C124.986 326.88 124.643 327.68 124.404 328.621C124.168 329.558 124.05 330.614 124.05 331.791C124.05 332.953 124.165 334.017 124.397 334.981C124.625 335.942 124.968 336.773 125.422 337.471C125.88 338.168 126.441 338.705 127.116 339.088C127.788 339.471 128.561 339.659 129.43 339.659C130.217 339.659 130.941 339.515 131.609 339.225C132.275 338.934 132.857 338.483 133.355 337.871C133.854 337.259 134.242 336.475 134.523 335.525C134.804 334.574 134.942 333.439 134.942 332.119C134.942 330.871 134.828 329.753 134.599 328.764ZM149.406 326.637C149.232 326.21 148.983 325.841 148.657 325.53C148.335 325.222 147.947 324.982 147.5 324.811C147.053 324.644 146.558 324.558 146.025 324.558C145.512 324.558 144.861 324.637 144.064 324.794V331.664C144.223 331.664 144.365 331.668 144.483 331.674C144.601 331.678 144.698 331.681 144.774 331.681C145.581 331.681 146.291 331.592 146.904 331.411C147.514 331.226 148.023 330.973 148.436 330.645C148.844 330.32 149.153 329.934 149.361 329.493C149.565 329.048 149.669 328.569 149.669 328.046C149.669 327.537 149.582 327.068 149.406 326.637ZM149.406 326.637C149.232 326.21 148.983 325.841 148.657 325.53C148.335 325.222 147.947 324.982 147.5 324.811C147.053 324.644 146.558 324.558 146.025 324.558C145.512 324.558 144.861 324.637 144.064 324.794V331.664C144.223 331.664 144.365 331.668 144.483 331.674C144.601 331.678 144.698 331.681 144.774 331.681C145.581 331.681 146.291 331.592 146.904 331.411C147.514 331.226 148.023 330.973 148.436 330.645C148.844 330.32 149.153 329.934 149.361 329.493C149.565 329.048 149.669 328.569 149.669 328.046C149.669 327.537 149.582 327.068 149.406 326.637ZM134.599 328.764C134.367 327.776 134.017 326.942 133.553 326.258C133.085 325.574 132.507 325.051 131.814 324.695C131.121 324.336 130.321 324.158 129.413 324.158C128.554 324.158 127.792 324.336 127.123 324.695C126.458 325.051 125.897 325.56 125.443 326.22C124.986 326.88 124.643 327.68 124.404 328.621C124.168 329.558 124.05 330.614 124.05 331.791C124.05 332.953 124.165 334.017 124.397 334.981C124.625 335.942 124.968 336.773 125.422 337.471C125.88 338.168 126.441 338.705 127.116 339.088C127.788 339.471 128.561 339.659 129.43 339.659C130.217 339.659 130.941 339.515 131.609 339.225C132.275 338.934 132.857 338.483 133.355 337.871C133.854 337.259 134.242 336.475 134.523 335.525C134.804 334.574 134.942 333.439 134.942 332.119C134.942 330.871 134.828 329.753 134.599 328.764ZM75.4667 326.637C75.2935 326.21 75.0441 325.841 74.7219 325.53C74.3962 325.222 74.0117 324.982 73.5613 324.811C73.1144 324.644 72.6225 324.558 72.0855 324.558C71.5763 324.558 70.9215 324.637 70.1247 324.794V331.664C70.2841 331.664 70.4261 331.668 70.5439 331.674C70.6617 331.678 70.7587 331.681 70.8349 331.681C71.6421 331.681 72.3523 331.592 72.9655 331.411C73.5752 331.226 74.0845 330.973 74.4967 330.645C74.909 330.32 75.2173 329.934 75.4217 329.493C75.6261 329.048 75.73 328.569 75.73 328.046C75.73 327.537 75.6434 327.068 75.4667 326.637ZM75.4667 326.637C75.2935 326.21 75.0441 325.841 74.7219 325.53C74.3962 325.222 74.0117 324.982 73.5613 324.811C73.1144 324.644 72.6225 324.558 72.0855 324.558C71.5763 324.558 70.9215 324.637 70.1247 324.794V331.664C70.2841 331.664 70.4261 331.668 70.5439 331.674C70.6617 331.678 70.7587 331.681 70.8349 331.681C71.6421 331.681 72.3523 331.592 72.9655 331.411C73.5752 331.226 74.0845 330.973 74.4967 330.645C74.909 330.32 75.2173 329.934 75.4217 329.493C75.6261 329.048 75.73 328.569 75.73 328.046C75.73 327.537 75.6434 327.068 75.4667 326.637ZM134.599 328.764C134.367 327.776 134.017 326.942 133.553 326.258C133.085 325.574 132.507 325.051 131.814 324.695C131.121 324.336 130.321 324.158 129.413 324.158C128.554 324.158 127.792 324.336 127.123 324.695C126.458 325.051 125.897 325.56 125.443 326.22C124.986 326.88 124.643 327.68 124.404 328.621C124.168 329.558 124.05 330.614 124.05 331.791C124.05 332.953 124.165 334.017 124.397 334.981C124.625 335.942 124.968 336.773 125.422 337.471C125.88 338.168 126.441 338.705 127.116 339.088C127.788 339.471 128.561 339.659 129.43 339.659C130.217 339.659 130.941 339.515 131.609 339.225C132.275 338.934 132.857 338.483 133.355 337.871C133.854 337.259 134.242 336.475 134.523 335.525C134.804 334.574 134.942 333.439 134.942 332.119C134.942 330.871 134.828 329.753 134.599 328.764ZM149.406 326.637C149.232 326.21 148.983 325.841 148.657 325.53C148.335 325.222 147.947 324.982 147.5 324.811C147.053 324.644 146.558 324.558 146.025 324.558C145.512 324.558 144.861 324.637 144.064 324.794V331.664C144.223 331.664 144.365 331.668 144.483 331.674C144.601 331.678 144.698 331.681 144.774 331.681C145.581 331.681 146.291 331.592 146.904 331.411C147.514 331.226 148.023 330.973 148.436 330.645C148.844 330.32 149.153 329.934 149.361 329.493C149.565 329.048 149.669 328.569 149.669 328.046C149.669 327.537 149.582 327.068 149.406 326.637ZM212.117 327.048L209.162 333.716H214.992L212.117 327.048ZM212.117 327.048L209.162 333.716H214.992L212.117 327.048ZM149.406 326.637C149.232 326.21 148.983 325.841 148.657 325.53C148.335 325.222 147.947 324.982 147.5 324.811C147.053 324.644 146.558 324.558 146.025 324.558C145.512 324.558 144.861 324.637 144.064 324.794V331.664C144.223 331.664 144.365 331.668 144.483 331.674C144.601 331.678 144.698 331.681 144.774 331.681C145.581 331.681 146.291 331.592 146.904 331.411C147.514 331.226 148.023 330.973 148.436 330.645C148.844 330.32 149.153 329.934 149.361 329.493C149.565 329.048 149.669 328.569 149.669 328.046C149.669 327.537 149.582 327.068 149.406 326.637ZM134.599 328.764C134.367 327.776 134.017 326.942 133.553 326.258C133.085 325.574 132.507 325.051 131.814 324.695C131.121 324.336 130.321 324.158 129.413 324.158C128.554 324.158 127.792 324.336 127.123 324.695C126.458 325.051 125.897 325.56 125.443 326.22C124.986 326.88 124.643 327.68 124.404 328.621C124.168 329.558 124.05 330.614 124.05 331.791C124.05 332.953 124.165 334.017 124.397 334.981C124.625 335.942 124.968 336.773 125.422 337.471C125.88 338.168 126.441 338.705 127.116 339.088C127.788 339.471 128.561 339.659 129.43 339.659C130.217 339.659 130.941 339.515 131.609 339.225C132.275 338.934 132.857 338.483 133.355 337.871C133.854 337.259 134.242 336.475 134.523 335.525C134.804 334.574 134.942 333.439 134.942 332.119C134.942 330.871 134.828 329.753 134.599 328.764ZM75.4667 326.637C75.2935 326.21 75.0441 325.841 74.7219 325.53C74.3962 325.222 74.0117 324.982 73.5613 324.811C73.1144 324.644 72.6225 324.558 72.0855 324.558C71.5763 324.558 70.9215 324.637 70.1247 324.794V331.664C70.2841 331.664 70.4261 331.668 70.5439 331.674C70.6617 331.678 70.7587 331.681 70.8349 331.681C71.6421 331.681 72.3523 331.592 72.9655 331.411C73.5752 331.226 74.0845 330.973 74.4967 330.645C74.909 330.32 75.2173 329.934 75.4217 329.493C75.6261 329.048 75.73 328.569 75.73 328.046C75.73 327.537 75.6434 327.068 75.4667 326.637ZM75.4667 326.637C75.2935 326.21 75.0441 325.841 74.7219 325.53C74.3962 325.222 74.0117 324.982 73.5613 324.811C73.1144 324.644 72.6225 324.558 72.0855 324.558C71.5763 324.558 70.9215 324.637 70.1247 324.794V331.664C70.2841 331.664 70.4261 331.668 70.5439 331.674C70.6617 331.678 70.7587 331.681 70.8349 331.681C71.6421 331.681 72.3523 331.592 72.9655 331.411C73.5752 331.226 74.0845 330.973 74.4967 330.645C74.909 330.32 75.2173 329.934 75.4217 329.493C75.6261 329.048 75.73 328.569 75.73 328.046C75.73 327.537 75.6434 327.068 75.4667 326.637ZM134.599 328.764C134.367 327.776 134.017 326.942 133.553 326.258C133.085 325.574 132.507 325.051 131.814 324.695C131.121 324.336 130.321 324.158 129.413 324.158C128.554 324.158 127.792 324.336 127.123 324.695C126.458 325.051 125.897 325.56 125.443 326.22C124.986 326.88 124.643 327.68 124.404 328.621C124.168 329.558 124.05 330.614 124.05 331.791C124.05 332.953 124.165 334.017 124.397 334.981C124.625 335.942 124.968 336.773 125.422 337.471C125.88 338.168 126.441 338.705 127.116 339.088C127.788 339.471 128.561 339.659 129.43 339.659C130.217 339.659 130.941 339.515 131.609 339.225C132.275 338.934 132.857 338.483 133.355 337.871C133.854 337.259 134.242 336.475 134.523 335.525C134.804 334.574 134.942 333.439 134.942 332.119C134.942 330.871 134.828 329.753 134.599 328.764ZM149.406 326.637C149.232 326.21 148.983 325.841 148.657 325.53C148.335 325.222 147.947 324.982 147.5 324.811C147.053 324.644 146.558 324.558 146.025 324.558C145.512 324.558 144.861 324.637 144.064 324.794V331.664C144.223 331.664 144.365 331.668 144.483 331.674C144.601 331.678 144.698 331.681 144.774 331.681C145.581 331.681 146.291 331.592 146.904 331.411C147.514 331.226 148.023 330.973 148.436 330.645C148.844 330.32 149.153 329.934 149.361 329.493C149.565 329.048 149.669 328.569 149.669 328.046C149.669 327.537 149.582 327.068 149.406 326.637ZM212.117 327.048L209.162 333.716H214.992L212.117 327.048ZM212.117 327.048L209.162 333.716H214.992L212.117 327.048ZM149.406 326.637C149.232 326.21 148.983 325.841 148.657 325.53C148.335 325.222 147.947 324.982 147.5 324.811C147.053 324.644 146.558 324.558 146.025 324.558C145.512 324.558 144.861 324.637 144.064 324.794V331.664C144.223 331.664 144.365 331.668 144.483 331.674C144.601 331.678 144.698 331.681 144.774 331.681C145.581 331.681 146.291 331.592 146.904 331.411C147.514 331.226 148.023 330.973 148.436 330.645C148.844 330.32 149.153 329.934 149.361 329.493C149.565 329.048 149.669 328.569 149.669 328.046C149.669 327.537 149.582 327.068 149.406 326.637ZM134.599 328.764C134.367 327.776 134.017 326.942 133.553 326.258C133.085 325.574 132.507 325.051 131.814 324.695C131.121 324.336 130.321 324.158 129.413 324.158C128.554 324.158 127.792 324.336 127.123 324.695C126.458 325.051 125.897 325.56 125.443 326.22C124.986 326.88 124.643 327.68 124.404 328.621C124.168 329.558 124.05 330.614 124.05 331.791C124.05 332.953 124.165 334.017 124.397 334.981C124.625 335.942 124.968 336.773 125.422 337.471C125.88 338.168 126.441 338.705 127.116 339.088C127.788 339.471 128.561 339.659 129.43 339.659C130.217 339.659 130.941 339.515 131.609 339.225C132.275 338.934 132.857 338.483 133.355 337.871C133.854 337.259 134.242 336.475 134.523 335.525C134.804 334.574 134.942 333.439 134.942 332.119C134.942 330.871 134.828 329.753 134.599 328.764ZM75.4667 326.637C75.2935 326.21 75.0441 325.841 74.7219 325.53C74.3962 325.222 74.0117 324.982 73.5613 324.811C73.1144 324.644 72.6225 324.558 72.0855 324.558C71.5763 324.558 70.9215 324.637 70.1247 324.794V331.664C70.2841 331.664 70.4261 331.668 70.5439 331.674C70.6617 331.678 70.7587 331.681 70.8349 331.681C71.6421 331.681 72.3523 331.592 72.9655 331.411C73.5752 331.226 74.0845 330.973 74.4967 330.645C74.909 330.32 75.2173 329.934 75.4217 329.493C75.6261 329.048 75.73 328.569 75.73 328.046C75.73 327.537 75.6434 327.068 75.4667 326.637ZM75.4217 329.493C75.6261 329.048 75.73 328.569 75.73 328.046C75.73 327.537 75.6434 327.068 75.4667 326.637C75.2935 326.21 75.0441 325.841 74.7219 325.53C74.3962 325.222 74.0117 324.982 73.5613 324.811C73.1144 324.644 72.6225 324.558 72.0855 324.558C71.5763 324.558 70.9215 324.637 70.1247 324.794V331.664C70.2841 331.664 70.4261 331.668 70.5439 331.674C70.6617 331.678 70.7587 331.681 70.8349 331.681C71.6421 331.681 72.3523 331.592 72.9655 331.411C73.5752 331.226 74.0845 330.973 74.4967 330.645C74.909 330.32 75.2173 329.934 75.4217 329.493ZM133.553 326.258C133.085 325.574 132.507 325.051 131.814 324.695C131.121 324.336 130.321 324.158 129.413 324.158C128.554 324.158 127.792 324.336 127.123 324.695C126.458 325.051 125.897 325.56 125.443 326.22C124.986 326.88 124.643 327.68 124.404 328.621C124.168 329.558 124.05 330.614 124.05 331.791C124.05 332.953 124.165 334.017 124.397 334.981C124.625 335.942 124.968 336.773 125.422 337.471C125.88 338.168 126.441 338.705 127.116 339.088C127.788 339.471 128.561 339.659 129.43 339.659C130.217 339.659 130.941 339.515 131.609 339.225C132.275 338.934 132.857 338.483 133.355 337.871C133.854 337.259 134.242 336.475 134.523 335.525C134.804 334.574 134.942 333.439 134.942 332.119C134.942 330.871 134.828 329.753 134.599 328.764C134.367 327.776 134.017 326.942 133.553 326.258ZM149.361 329.493C149.565 329.048 149.669 328.569 149.669 328.046C149.669 327.537 149.582 327.068 149.406 326.637C149.232 326.21 148.983 325.841 148.657 325.53C148.335 325.222 147.947 324.982 147.5 324.811C147.053 324.644 146.558 324.558 146.025 324.558C145.512 324.558 144.861 324.637 144.064 324.794V331.664C144.223 331.664 144.365 331.668 144.483 331.674C144.601 331.678 144.698 331.681 144.774 331.681C145.581 331.681 146.291 331.592 146.904 331.411C147.514 331.226 148.023 330.973 148.436 330.645C148.844 330.32 149.153 329.934 149.361 329.493ZM209.162 333.716H214.992L212.117 327.048L209.162 333.716ZM278.271 329.493C278.476 329.048 278.58 328.569 278.58 328.046C278.58 327.537 278.493 327.068 278.32 326.637C278.143 326.21 277.894 325.841 277.572 325.53C277.246 325.222 276.861 324.982 276.411 324.811C275.964 324.644 275.472 324.558 274.935 324.558C274.426 324.558 273.771 324.637 272.975 324.794V331.664C273.137 331.664 273.276 331.668 273.394 331.674C273.512 331.678 273.608 331.681 273.685 331.681C274.492 331.681 275.202 331.592 275.815 331.411C276.425 331.226 276.934 330.973 277.346 330.645C277.759 330.32 278.067 329.934 278.271 329.493ZM298.077 326.258C297.609 325.574 297.031 325.051 296.341 324.695C295.648 324.336 294.848 324.158 293.941 324.158C293.081 324.158 292.316 324.336 291.651 324.695C290.982 325.051 290.424 325.56 289.967 326.22C289.513 326.88 289.167 327.68 288.931 328.621C288.696 329.558 288.578 330.614 288.578 331.791C288.578 332.953 288.692 334.017 288.921 334.981C289.153 335.942 289.496 336.773 289.95 337.471C290.404 338.168 290.968 338.705 291.64 339.088C292.312 339.471 293.085 339.659 293.958 339.659C294.744 339.659 295.468 339.515 296.133 339.225C296.802 338.934 297.384 338.483 297.883 337.871C298.378 337.259 298.77 336.475 299.05 335.525C299.331 334.574 299.47 333.439 299.47 332.119C299.47 330.871 299.355 329.753 299.123 328.764C298.895 327.776 298.545 326.942 298.077 326.258ZM301.666 335.262C301.223 336.328 300.627 337.252 299.872 338.035C299.12 338.814 298.233 339.426 297.218 339.868C296.203 340.312 295.122 340.531 293.975 340.531C292.818 340.531 291.734 340.319 290.726 339.895C289.718 339.471 288.841 338.876 288.1 338.107C287.358 337.337 286.773 336.421 286.343 335.354C285.914 334.287 285.699 333.111 285.699 331.828C285.699 330.642 285.914 329.527 286.343 328.484C286.773 327.441 287.365 326.535 288.121 325.765C288.872 324.996 289.766 324.387 290.798 323.939C291.834 323.492 292.96 323.266 294.183 323.266C295.267 323.266 296.3 323.485 297.284 323.922C298.268 324.357 299.134 324.958 299.882 325.721C300.63 326.484 301.223 327.383 301.666 328.419C302.106 329.455 302.328 330.58 302.328 331.791C302.328 333.039 302.106 334.195 301.666 335.262ZM285.027 340.151H280.506L274.748 332.427C274.537 332.44 274.346 332.447 274.18 332.454C274.01 332.461 273.858 332.464 273.723 332.464C273.608 332.464 273.491 332.461 273.366 332.454C273.241 332.447 273.11 332.44 272.975 332.427V337.224C272.975 337.806 273.013 338.264 273.096 338.596C273.175 338.931 273.293 339.177 273.449 339.341C273.605 339.505 273.792 339.604 274.01 339.642C274.229 339.68 274.475 339.697 274.748 339.697H275.42V340.151H268.135V339.697H268.79C269.486 339.697 269.995 339.471 270.321 339.023C270.494 338.756 270.581 338.158 270.581 337.224V326.555C270.581 325.54 270.463 324.897 270.227 324.63C269.902 324.268 269.424 324.086 268.79 324.086H268.135V323.632H274.319C275.23 323.632 276.013 323.666 276.674 323.731C277.333 323.799 277.877 323.898 278.299 324.032C278.722 324.165 279.12 324.35 279.494 324.586C279.869 324.822 280.194 325.106 280.475 325.441C280.755 325.772 280.977 326.145 281.14 326.555C281.303 326.969 281.382 327.41 281.382 327.882C281.382 328.915 281.046 329.797 280.374 330.536C279.702 331.278 278.649 331.804 277.215 332.119L280.71 336.845C281.119 337.388 281.486 337.836 281.802 338.189C282.12 338.541 282.439 338.818 282.754 339.023C283.073 339.232 283.409 339.382 283.766 339.478C284.119 339.577 284.542 339.649 285.027 339.697V340.151ZM266.884 327.52H266.604C266.465 326.477 266.15 325.742 265.658 325.311C265.166 324.883 264.442 324.668 263.482 324.668H261.088V337.296C261.088 337.854 261.13 338.295 261.213 338.616C261.293 338.938 261.407 339.177 261.556 339.334C261.705 339.491 261.892 339.591 262.117 339.632C262.343 339.676 262.602 339.697 262.904 339.697H263.482V340.151H256.287V339.697H256.886C257.184 339.697 257.447 339.673 257.669 339.625C257.894 339.577 258.081 339.471 258.23 339.307C258.379 339.143 258.497 338.903 258.577 338.589C258.656 338.274 258.698 337.843 258.698 337.296V324.668H256.661C256.152 324.668 255.698 324.705 255.306 324.784C254.915 324.863 254.576 325.01 254.288 325.222C254 325.434 253.775 325.724 253.606 326.094C253.439 326.463 253.335 326.938 253.297 327.52H252.829V323.632H266.884V327.52ZM250.273 337.696C250.01 338.254 249.646 338.743 249.178 339.16C248.71 339.577 248.146 339.912 247.488 340.158C246.826 340.408 246.105 340.531 245.319 340.531C244.82 340.531 244.359 340.497 243.937 340.425C243.86 340.411 243.666 340.36 243.348 340.268C243.029 340.179 242.689 340.083 242.329 339.987C241.969 339.892 241.633 339.799 241.321 339.714C241.009 339.632 240.829 339.587 240.777 339.587C240.566 339.587 240.403 339.649 240.282 339.768C240.164 339.892 240.074 340.145 240.012 340.531H239.547V334.861H240.012C240.237 336.024 240.528 336.917 240.891 337.536C241.065 337.826 241.3 338.093 241.591 338.343C241.886 338.592 242.215 338.808 242.582 338.996C242.949 339.184 243.344 339.331 243.767 339.433C244.193 339.536 244.623 339.587 245.059 339.587C245.582 339.587 246.05 339.515 246.469 339.368C246.885 339.225 247.242 339.026 247.533 338.78C247.827 338.531 248.049 338.243 248.208 337.915C248.361 337.587 248.44 337.241 248.44 336.879C248.44 336.469 248.326 336.055 248.094 335.645C247.862 335.231 247.474 334.827 246.926 334.427C246.389 334.113 245.755 333.743 245.021 333.319C243.611 332.529 242.36 331.774 241.266 331.045C240.656 330.573 240.192 330.057 239.873 329.493C239.554 328.929 239.395 328.303 239.395 327.612C239.395 327.031 239.52 326.477 239.769 325.947C240.018 325.42 240.365 324.958 240.808 324.558C241.248 324.158 241.775 323.844 242.385 323.611C242.998 323.382 243.656 323.266 244.366 323.266C245.263 323.266 246.216 323.478 247.224 323.902C247.463 324.001 247.661 324.08 247.824 324.141C247.986 324.199 248.115 324.223 248.215 324.213C248.44 324.213 248.62 324.151 248.759 324.032C248.894 323.909 249.001 323.656 249.074 323.266H249.542V328.973H249.074C248.863 327.434 248.347 326.261 247.526 325.447C246.701 324.637 245.655 324.23 244.383 324.23C243.95 324.23 243.549 324.302 243.188 324.449C242.828 324.593 242.509 324.784 242.236 325.02C241.962 325.256 241.751 325.526 241.602 325.83C241.453 326.131 241.376 326.449 241.376 326.774C241.376 327.079 241.439 327.366 241.564 327.639C241.688 327.91 242.073 328.337 242.721 328.918C243.805 329.585 244.771 330.136 245.617 330.573C246.417 330.997 247.494 331.64 248.852 332.499C249.434 332.936 249.885 333.453 250.197 334.054C250.508 334.653 250.664 335.282 250.664 335.935C250.664 336.554 250.533 337.139 250.273 337.696ZM235.733 340.151H222.655V339.697H223.251C223.414 339.697 223.58 339.68 223.757 339.642C223.93 339.604 224.096 339.553 224.252 339.488C224.408 339.42 224.547 339.334 224.672 339.225C224.796 339.115 224.883 338.989 224.935 338.842C225.032 338.575 225.084 338.042 225.084 337.241V326.521C225.084 325.468 224.976 324.818 224.765 324.575C224.467 324.247 223.961 324.086 223.251 324.086H222.655V323.632H235.733V327.246H235.435C235.31 326.655 235.175 326.179 235.033 325.82C234.891 325.465 234.701 325.188 234.462 324.993C234.226 324.801 233.925 324.675 233.557 324.62C233.19 324.565 232.719 324.541 232.147 324.541H227.495V331.066H231.212C231.76 331.066 232.203 331.014 232.539 330.919C232.875 330.823 233.138 330.676 233.332 330.481C233.526 330.29 233.658 330.04 233.734 329.739C233.81 329.435 233.859 329.076 233.883 328.665H234.351V334.407H233.883C233.821 333.935 233.751 333.541 233.668 333.227C233.589 332.912 233.457 332.659 233.277 332.471C233.097 332.283 232.844 332.153 232.518 332.071C232.196 331.992 231.76 331.955 231.212 331.955H227.495V337.406C227.495 337.819 227.498 338.148 227.512 338.387C227.523 338.63 227.575 338.814 227.661 338.941C227.748 339.071 227.886 339.153 228.073 339.187C228.261 339.225 228.534 339.242 228.895 339.242H231.773C232.258 339.242 232.671 339.232 233.007 339.204C233.343 339.18 233.63 339.132 233.873 339.061C234.119 338.989 234.334 338.89 234.521 338.76C234.708 338.633 234.905 338.472 235.116 338.278C235.615 337.806 236.145 337.05 236.707 336.007H237.209L235.733 340.151ZM221.852 340.151H215.141V339.697C215.817 339.673 216.274 339.567 216.516 339.379C216.759 339.191 216.88 338.965 216.88 338.698C216.866 338.346 216.7 337.775 216.374 336.988L215.349 334.625H208.77L207.613 337.224C207.34 337.867 207.201 338.346 207.201 338.661C207.201 338.794 207.222 338.914 207.267 339.023C207.308 339.132 207.402 339.232 207.547 339.324C207.689 339.416 207.89 339.495 208.143 339.56C208.4 339.628 208.739 339.673 209.162 339.697V340.151H203.82V339.697C204.242 339.635 204.585 339.546 204.845 339.423C205.108 339.303 205.334 339.136 205.521 338.924C205.708 338.712 205.878 338.435 206.033 338.096C206.189 337.758 206.38 337.341 206.602 336.845L212.581 323.266H213.014L218.917 336.988C219.153 337.559 219.375 338.014 219.579 338.36C219.787 338.705 219.998 338.975 220.216 339.17C220.435 339.365 220.67 339.498 220.927 339.57C221.179 339.642 221.488 339.686 221.852 339.697V340.151ZM203.071 324.086H202.493C202.181 324.086 201.914 324.11 201.689 324.158C201.464 324.206 201.277 324.312 201.128 324.476C200.979 324.64 200.868 324.883 200.792 325.201C200.716 325.523 200.681 325.957 200.681 326.501V337.296C200.681 337.867 200.719 338.312 200.802 338.633C200.882 338.955 201 339.194 201.156 339.351C201.312 339.509 201.502 339.604 201.727 339.642C201.949 339.68 202.205 339.697 202.493 339.697H203.071V340.151H195.859V339.697H196.458C196.756 339.697 197.016 339.673 197.241 339.625C197.466 339.577 197.657 339.471 197.813 339.307C197.969 339.143 198.083 338.903 198.156 338.589C198.232 338.274 198.27 337.843 198.27 337.296V326.265L191.729 340.151H191.3L184.742 326.265V337.296C184.742 337.867 184.78 338.312 184.863 338.633C184.943 338.955 185.06 339.194 185.216 339.351C185.372 339.509 185.563 339.604 185.788 339.642C186.01 339.68 186.266 339.697 186.554 339.697H187.153V340.151H181.246V339.697H181.846C182.144 339.697 182.407 339.676 182.629 339.632C182.854 339.591 183.041 339.488 183.19 339.324C183.339 339.16 183.453 338.917 183.526 338.596C183.602 338.278 183.64 337.843 183.64 337.296V326.501C183.64 326.114 183.619 325.772 183.581 325.475C183.547 325.177 183.45 324.928 183.294 324.723C183.138 324.514 182.899 324.357 182.583 324.247C182.265 324.141 181.821 324.086 181.246 324.086V323.632H186.048L192.214 336.554L198.27 323.632H203.071V324.086ZM174.612 340.151H166.54V339.697C167.077 339.697 167.437 339.604 167.625 339.423C167.812 339.242 167.905 339.047 167.905 338.842C167.905 338.756 167.898 338.681 167.888 338.616C167.874 338.548 167.839 338.472 167.784 338.387C167.728 338.305 167.638 338.195 167.514 338.062C167.389 337.929 167.219 337.758 167.008 337.553L161.139 331.9V337.224C161.139 337.614 161.15 337.929 161.171 338.172C161.188 338.411 161.219 338.613 161.264 338.77C161.306 338.927 161.375 339.05 161.468 339.143C161.562 339.232 161.683 339.32 161.832 339.406C162.193 339.601 162.574 339.697 162.972 339.697H163.551V340.151H156.32V339.697H156.92C157.616 339.697 158.125 339.498 158.451 339.098C158.648 338.832 158.749 338.206 158.749 337.224V326.555C158.749 326.193 158.742 325.889 158.732 325.639C158.718 325.389 158.687 325.188 158.638 325.03C158.586 324.873 158.52 324.743 158.43 324.64C158.344 324.538 158.226 324.449 158.077 324.377C157.678 324.182 157.29 324.086 156.92 324.086H156.32V323.632H163.551V324.086H162.972C162.66 324.086 162.335 324.151 161.992 324.285C161.649 324.418 161.417 324.644 161.292 324.958C161.191 325.225 161.139 325.759 161.139 326.555V331.609C161.153 331.596 161.236 331.521 161.392 331.38C161.548 331.244 161.725 331.09 161.915 330.919C162.109 330.748 162.296 330.58 162.477 330.409C162.657 330.242 162.785 330.125 162.861 330.064C163.769 329.253 164.534 328.556 165.158 327.975C165.782 327.393 166.28 326.901 166.655 326.494C167.025 326.087 167.295 325.748 167.458 325.475C167.618 325.201 167.701 324.976 167.701 324.794C167.701 324.599 167.611 324.435 167.437 324.295C167.264 324.155 166.963 324.086 166.54 324.086H166.149V323.632H172.391V324.086C172.166 324.097 171.938 324.117 171.709 324.148C171.477 324.179 171.221 324.254 170.94 324.377C170.663 324.497 170.341 324.685 169.98 324.938C169.617 325.194 169.187 325.547 168.692 325.995C168.591 326.08 168.335 326.33 167.922 326.747C167.514 327.164 166.921 327.745 166.149 328.484L163.551 330.991L169.811 337.043C170.334 337.553 170.808 337.973 171.231 338.305C171.654 338.64 172.052 338.907 172.426 339.105C172.8 339.307 173.164 339.45 173.521 339.543C173.874 339.632 174.238 339.686 174.612 339.697V340.151ZM156.116 340.151H151.592L145.837 332.427C145.626 332.44 145.436 332.447 145.269 332.454C145.1 332.461 144.947 332.464 144.809 332.464C144.698 332.464 144.58 332.461 144.455 332.454C144.33 332.447 144.199 332.44 144.064 332.427V337.224C144.064 337.806 144.102 338.264 144.185 338.596C144.265 338.931 144.382 339.177 144.538 339.341C144.694 339.505 144.881 339.604 145.1 339.642C145.318 339.68 145.564 339.697 145.837 339.697H146.51V340.151H139.224V339.697H139.875C140.575 339.697 141.084 339.471 141.41 339.023C141.583 338.756 141.67 338.158 141.67 337.224V326.555C141.67 325.54 141.552 324.897 141.317 324.63C140.991 324.268 140.513 324.086 139.875 324.086H139.224V323.632H145.408C146.316 323.632 147.102 323.666 147.764 323.731C148.422 323.799 148.966 323.898 149.388 324.032C149.811 324.165 150.209 324.35 150.584 324.586C150.958 324.822 151.283 325.106 151.564 325.441C151.845 325.772 152.066 326.145 152.229 326.555C152.388 326.969 152.472 327.41 152.472 327.882C152.472 328.915 152.136 329.797 151.464 330.536C150.788 331.278 149.735 331.804 148.304 332.119L151.8 336.845C152.208 337.388 152.572 337.836 152.891 338.189C153.21 338.541 153.528 338.818 153.843 339.023C154.162 339.232 154.498 339.382 154.855 339.478C155.208 339.577 155.628 339.649 156.116 339.697V340.151ZM137.139 335.262C136.699 336.328 136.099 337.252 135.344 338.035C134.592 338.814 133.709 339.426 132.69 339.868C131.675 340.312 130.594 340.531 129.451 340.531C128.291 340.531 127.206 340.319 126.198 339.895C125.19 339.471 124.314 338.876 123.572 338.107C122.831 337.337 122.245 336.421 121.816 335.354C121.386 334.287 121.171 333.111 121.171 331.828C121.171 330.642 121.386 329.527 121.816 328.484C122.245 327.441 122.838 326.535 123.593 325.765C124.345 324.996 125.239 324.387 126.274 323.939C127.307 323.492 128.436 323.266 129.656 323.266C130.74 323.266 131.772 323.485 132.756 323.922C133.74 324.357 134.606 324.958 135.354 325.721C136.103 326.484 136.699 327.383 137.139 328.419C137.582 329.455 137.804 330.58 137.804 331.791C137.804 333.039 137.582 334.195 137.139 335.262ZM120.07 324.086C119.734 324.086 119.457 324.117 119.238 324.175C119.02 324.237 118.819 324.374 118.632 324.586C118.445 324.798 118.258 325.112 118.071 325.53C117.884 325.947 117.666 326.508 117.416 327.212L112.691 340.531H112.185L108.319 329.975L104.487 340.531H104.02L98.9756 326.812C98.7885 326.302 98.6395 325.899 98.5252 325.601C98.4144 325.307 98.3278 325.109 98.2654 325.013C98.0887 324.699 97.8635 324.463 97.5829 324.312C97.3023 324.162 96.9109 324.086 96.4155 324.086V323.632H102.693V324.086H102.395C101.958 324.086 101.622 324.182 101.383 324.377C101.148 324.569 101.03 324.805 101.03 325.085C101.03 325.376 101.217 326.029 101.591 327.048L104.934 336.315L107.737 328.429L106.84 325.94C106.704 325.636 106.566 325.369 106.431 325.14C106.292 324.911 106.136 324.716 105.963 324.558C105.786 324.401 105.582 324.281 105.346 324.203C105.111 324.124 104.823 324.086 104.487 324.086V323.632H111.083V324.086H110.633C110.162 324.086 109.819 324.182 109.608 324.377C109.393 324.569 109.289 324.835 109.289 325.177C109.289 325.588 109.476 326.309 109.85 327.338L113.1 336.315L116.332 327.212C116.509 326.702 116.644 326.278 116.744 325.94C116.845 325.601 116.893 325.328 116.893 325.123C116.893 324.733 116.72 324.463 116.37 324.312C116.02 324.162 115.566 324.086 115.005 324.086V323.632H120.07V324.086ZM95.2549 327.52H94.9743C94.8392 326.477 94.5239 325.742 94.032 325.311C93.5401 324.883 92.8126 324.668 91.8564 324.668H89.4626V337.296C89.4626 337.854 89.5041 338.295 89.5838 338.616C89.667 338.938 89.7813 339.177 89.9303 339.334C90.0792 339.491 90.2663 339.591 90.4915 339.632C90.7167 339.676 90.9765 339.697 91.2744 339.697H91.8564V340.151H84.661V339.697H85.2604C85.5583 339.697 85.8181 339.673 86.0433 339.625C86.2685 339.577 86.4555 339.471 86.6045 339.307C86.7535 339.143 86.8678 338.903 86.9509 338.589C87.0306 338.274 87.0722 337.843 87.0722 337.296V324.668H85.0352C84.5224 324.668 84.0721 324.705 83.6806 324.784C83.2892 324.863 82.9462 325.01 82.6621 325.222C82.3746 325.434 82.1494 325.724 81.9796 326.094C81.8099 326.463 81.7094 326.938 81.6713 327.52H81.2036V323.632H95.2549V327.52ZM82.1771 340.151H77.6527L71.8985 332.427C71.6871 332.44 71.4966 332.447 71.3303 332.454C71.1606 332.461 71.0081 332.464 70.873 332.464C70.7587 332.464 70.6409 332.461 70.5162 332.454C70.3915 332.447 70.2598 332.44 70.1247 332.427V337.224C70.1247 337.806 70.1628 338.264 70.246 338.596C70.3257 338.931 70.4435 339.177 70.5993 339.341C70.7552 339.505 70.9423 339.604 71.1606 339.642C71.3788 339.68 71.6248 339.697 71.8985 339.697H72.5705V340.151H65.2851V339.697H65.9398C66.6362 339.697 67.1454 339.471 67.4711 339.023C67.6443 338.756 67.7309 338.158 67.7309 337.224V326.555C67.7309 325.54 67.6131 324.897 67.3775 324.63C67.0519 324.268 66.5738 324.086 65.9398 324.086H65.2851V323.632H71.4689C72.38 323.632 73.1629 323.666 73.8246 323.731C74.4828 323.799 75.0267 323.898 75.4494 324.032C75.872 324.165 76.2704 324.35 76.6446 324.586C77.0187 324.822 77.3444 325.106 77.625 325.441C77.9056 325.772 78.1273 326.145 78.2901 326.555C78.453 326.969 78.5326 327.41 78.5326 327.882C78.5326 328.915 78.1966 329.797 77.5245 330.536C76.8524 331.278 75.7993 331.804 74.3651 332.119L77.8606 336.845C78.2694 337.388 78.6366 337.836 78.9518 338.189C79.2705 338.541 79.5893 338.818 79.9045 339.023C80.2232 339.232 80.5593 339.382 80.9161 339.478C81.2695 339.577 81.6886 339.649 82.1771 339.697V340.151ZM64.5749 340.151H57.8645V339.697C58.5401 339.673 58.9973 339.567 59.2398 339.379C59.4823 339.191 59.6036 338.965 59.6036 338.698C59.5897 338.346 59.4235 337.775 59.0978 336.988L58.0724 334.625H51.4936L50.3365 337.224C50.0629 337.867 49.9243 338.346 49.9243 338.661C49.9243 338.794 49.9451 338.914 49.9901 339.023C50.0351 339.132 50.1287 339.232 50.2707 339.324C50.4128 339.416 50.6137 339.495 50.87 339.56C51.1229 339.628 51.4624 339.673 51.8851 339.697V340.151H46.5431V339.697C46.9658 339.635 47.3087 339.546 47.5686 339.423C47.8318 339.303 48.057 339.136 48.2441 338.924C48.4312 338.712 48.6009 338.435 48.7568 338.096C48.9127 337.758 49.1032 337.341 49.3284 336.845L55.3044 323.266H55.7374L61.6406 336.988C61.8762 337.559 62.0979 338.014 62.3023 338.36C62.5102 338.705 62.7215 338.975 62.9397 339.17C63.158 339.365 63.3936 339.498 63.6499 339.57C63.9028 339.642 64.2111 339.686 64.5749 339.697V340.151ZM16.9994 313.513L17.0721 352.677L332.654 352.845V313.698L16.9994 313.513ZM75.4667 326.637C75.2935 326.21 75.0441 325.841 74.7219 325.53C74.3962 325.222 74.0117 324.982 73.5613 324.811C73.1144 324.644 72.6225 324.558 72.0855 324.558C71.5763 324.558 70.9215 324.637 70.1247 324.794V331.664C70.2841 331.664 70.4261 331.668 70.5439 331.674C70.6617 331.678 70.7587 331.681 70.8349 331.681C71.6421 331.681 72.3523 331.592 72.9655 331.411C73.5752 331.226 74.0845 330.973 74.4967 330.645C74.909 330.32 75.2173 329.934 75.4217 329.493C75.6261 329.048 75.73 328.569 75.73 328.046C75.73 327.537 75.6434 327.068 75.4667 326.637ZM134.599 328.764C134.367 327.776 134.017 326.942 133.553 326.258C133.085 325.574 132.507 325.051 131.814 324.695C131.121 324.336 130.321 324.158 129.413 324.158C128.554 324.158 127.792 324.336 127.123 324.695C126.458 325.051 125.897 325.56 125.443 326.22C124.986 326.88 124.643 327.68 124.404 328.621C124.168 329.558 124.05 330.614 124.05 331.791C124.05 332.953 124.165 334.017 124.397 334.981C124.625 335.942 124.968 336.773 125.422 337.471C125.88 338.168 126.441 338.705 127.116 339.088C127.788 339.471 128.561 339.659 129.43 339.659C130.217 339.659 130.941 339.515 131.609 339.225C132.275 338.934 132.857 338.483 133.355 337.871C133.854 337.259 134.242 336.475 134.523 335.525C134.804 334.574 134.942 333.439 134.942 332.119C134.942 330.871 134.828 329.753 134.599 328.764ZM149.406 326.637C149.232 326.21 148.983 325.841 148.657 325.53C148.335 325.222 147.947 324.982 147.5 324.811C147.053 324.644 146.558 324.558 146.025 324.558C145.512 324.558 144.861 324.637 144.064 324.794V331.664C144.223 331.664 144.365 331.668 144.483 331.674C144.601 331.678 144.698 331.681 144.774 331.681C145.581 331.681 146.291 331.592 146.904 331.411C147.514 331.226 148.023 330.973 148.436 330.645C148.844 330.32 149.153 329.934 149.361 329.493C149.565 329.048 149.669 328.569 149.669 328.046C149.669 327.537 149.582 327.068 149.406 326.637ZM212.117 327.048L209.162 333.716H214.992L212.117 327.048ZM278.32 326.637C278.143 326.21 277.894 325.841 277.572 325.53C277.246 325.222 276.861 324.982 276.411 324.811C275.964 324.644 275.472 324.558 274.935 324.558C274.426 324.558 273.771 324.637 272.975 324.794V331.664C273.137 331.664 273.276 331.668 273.394 331.674C273.512 331.678 273.608 331.681 273.685 331.681C274.492 331.681 275.202 331.592 275.815 331.411C276.425 331.226 276.934 330.973 277.346 330.645C277.759 330.32 278.067 329.934 278.271 329.493C278.476 329.048 278.58 328.569 278.58 328.046C278.58 327.537 278.493 327.068 278.32 326.637ZM278.32 326.637C278.143 326.21 277.894 325.841 277.572 325.53C277.246 325.222 276.861 324.982 276.411 324.811C275.964 324.644 275.472 324.558 274.935 324.558C274.426 324.558 273.771 324.637 272.975 324.794V331.664C273.137 331.664 273.276 331.668 273.394 331.674C273.512 331.678 273.608 331.681 273.685 331.681C274.492 331.681 275.202 331.592 275.815 331.411C276.425 331.226 276.934 330.973 277.346 330.645C277.759 330.32 278.067 329.934 278.271 329.493C278.476 329.048 278.58 328.569 278.58 328.046C278.58 327.537 278.493 327.068 278.32 326.637ZM212.117 327.048L209.162 333.716H214.992L212.117 327.048ZM149.406 326.637C149.232 326.21 148.983 325.841 148.657 325.53C148.335 325.222 147.947 324.982 147.5 324.811C147.053 324.644 146.558 324.558 146.025 324.558C145.512 324.558 144.861 324.637 144.064 324.794V331.664C144.223 331.664 144.365 331.668 144.483 331.674C144.601 331.678 144.698 331.681 144.774 331.681C145.581 331.681 146.291 331.592 146.904 331.411C147.514 331.226 148.023 330.973 148.436 330.645C148.844 330.32 149.153 329.934 149.361 329.493C149.565 329.048 149.669 328.569 149.669 328.046C149.669 327.537 149.582 327.068 149.406 326.637ZM134.599 328.764C134.367 327.776 134.017 326.942 133.553 326.258C133.085 325.574 132.507 325.051 131.814 324.695C131.121 324.336 130.321 324.158 129.413 324.158C128.554 324.158 127.792 324.336 127.123 324.695C126.458 325.051 125.897 325.56 125.443 326.22C124.986 326.88 124.643 327.68 124.404 328.621C124.168 329.558 124.05 330.614 124.05 331.791C124.05 332.953 124.165 334.017 124.397 334.981C124.625 335.942 124.968 336.773 125.422 337.471C125.88 338.168 126.441 338.705 127.116 339.088C127.788 339.471 128.561 339.659 129.43 339.659C130.217 339.659 130.941 339.515 131.609 339.225C132.275 338.934 132.857 338.483 133.355 337.871C133.854 337.259 134.242 336.475 134.523 335.525C134.804 334.574 134.942 333.439 134.942 332.119C134.942 330.871 134.828 329.753 134.599 328.764ZM75.4667 326.637C75.2935 326.21 75.0441 325.841 74.7219 325.53C74.3962 325.222 74.0117 324.982 73.5613 324.811C73.1144 324.644 72.6225 324.558 72.0855 324.558C71.5763 324.558 70.9215 324.637 70.1247 324.794V331.664C70.2841 331.664 70.4261 331.668 70.5439 331.674C70.6617 331.678 70.7587 331.681 70.8349 331.681C71.6421 331.681 72.3523 331.592 72.9655 331.411C73.5752 331.226 74.0845 330.973 74.4967 330.645C74.909 330.32 75.2173 329.934 75.4217 329.493C75.6261 329.048 75.73 328.569 75.73 328.046C75.73 327.537 75.6434 327.068 75.4667 326.637ZM75.4667 326.637C75.2935 326.21 75.0441 325.841 74.7219 325.53C74.3962 325.222 74.0117 324.982 73.5613 324.811C73.1144 324.644 72.6225 324.558 72.0855 324.558C71.5763 324.558 70.9215 324.637 70.1247 324.794V331.664C70.2841 331.664 70.4261 331.668 70.5439 331.674C70.6617 331.678 70.7587 331.681 70.8349 331.681C71.6421 331.681 72.3523 331.592 72.9655 331.411C73.5752 331.226 74.0845 330.973 74.4967 330.645C74.909 330.32 75.2173 329.934 75.4217 329.493C75.6261 329.048 75.73 328.569 75.73 328.046C75.73 327.537 75.6434 327.068 75.4667 326.637ZM134.599 328.764C134.367 327.776 134.017 326.942 133.553 326.258C133.085 325.574 132.507 325.051 131.814 324.695C131.121 324.336 130.321 324.158 129.413 324.158C128.554 324.158 127.792 324.336 127.123 324.695C126.458 325.051 125.897 325.56 125.443 326.22C124.986 326.88 124.643 327.68 124.404 328.621C124.168 329.558 124.05 330.614 124.05 331.791C124.05 332.953 124.165 334.017 124.397 334.981C124.625 335.942 124.968 336.773 125.422 337.471C125.88 338.168 126.441 338.705 127.116 339.088C127.788 339.471 128.561 339.659 129.43 339.659C130.217 339.659 130.941 339.515 131.609 339.225C132.275 338.934 132.857 338.483 133.355 337.871C133.854 337.259 134.242 336.475 134.523 335.525C134.804 334.574 134.942 333.439 134.942 332.119C134.942 330.871 134.828 329.753 134.599 328.764ZM149.406 326.637C149.232 326.21 148.983 325.841 148.657 325.53C148.335 325.222 147.947 324.982 147.5 324.811C147.053 324.644 146.558 324.558 146.025 324.558C145.512 324.558 144.861 324.637 144.064 324.794V331.664C144.223 331.664 144.365 331.668 144.483 331.674C144.601 331.678 144.698 331.681 144.774 331.681C145.581 331.681 146.291 331.592 146.904 331.411C147.514 331.226 148.023 330.973 148.436 330.645C148.844 330.32 149.153 329.934 149.361 329.493C149.565 329.048 149.669 328.569 149.669 328.046C149.669 327.537 149.582 327.068 149.406 326.637ZM212.117 327.048L209.162 333.716H214.992L212.117 327.048ZM212.117 327.048L209.162 333.716H214.992L212.117 327.048ZM149.406 326.637C149.232 326.21 148.983 325.841 148.657 325.53C148.335 325.222 147.947 324.982 147.5 324.811C147.053 324.644 146.558 324.558 146.025 324.558C145.512 324.558 144.861 324.637 144.064 324.794V331.664C144.223 331.664 144.365 331.668 144.483 331.674C144.601 331.678 144.698 331.681 144.774 331.681C145.581 331.681 146.291 331.592 146.904 331.411C147.514 331.226 148.023 330.973 148.436 330.645C148.844 330.32 149.153 329.934 149.361 329.493C149.565 329.048 149.669 328.569 149.669 328.046C149.669 327.537 149.582 327.068 149.406 326.637ZM134.599 328.764C134.367 327.776 134.017 326.942 133.553 326.258C133.085 325.574 132.507 325.051 131.814 324.695C131.121 324.336 130.321 324.158 129.413 324.158C128.554 324.158 127.792 324.336 127.123 324.695C126.458 325.051 125.897 325.56 125.443 326.22C124.986 326.88 124.643 327.68 124.404 328.621C124.168 329.558 124.05 330.614 124.05 331.791C124.05 332.953 124.165 334.017 124.397 334.981C124.625 335.942 124.968 336.773 125.422 337.471C125.88 338.168 126.441 338.705 127.116 339.088C127.788 339.471 128.561 339.659 129.43 339.659C130.217 339.659 130.941 339.515 131.609 339.225C132.275 338.934 132.857 338.483 133.355 337.871C133.854 337.259 134.242 336.475 134.523 335.525C134.804 334.574 134.942 333.439 134.942 332.119C134.942 330.871 134.828 329.753 134.599 328.764ZM75.4667 326.637C75.2935 326.21 75.0441 325.841 74.7219 325.53C74.3962 325.222 74.0117 324.982 73.5613 324.811C73.1144 324.644 72.6225 324.558 72.0855 324.558C71.5763 324.558 70.9215 324.637 70.1247 324.794V331.664C70.2841 331.664 70.4261 331.668 70.5439 331.674C70.6617 331.678 70.7587 331.681 70.8349 331.681C71.6421 331.681 72.3523 331.592 72.9655 331.411C73.5752 331.226 74.0845 330.973 74.4967 330.645C74.909 330.32 75.2173 329.934 75.4217 329.493C75.6261 329.048 75.73 328.569 75.73 328.046C75.73 327.537 75.6434 327.068 75.4667 326.637ZM75.4667 326.637C75.2935 326.21 75.0441 325.841 74.7219 325.53C74.3962 325.222 74.0117 324.982 73.5613 324.811C73.1144 324.644 72.6225 324.558 72.0855 324.558C71.5763 324.558 70.9215 324.637 70.1247 324.794V331.664C70.2841 331.664 70.4261 331.668 70.5439 331.674C70.6617 331.678 70.7587 331.681 70.8349 331.681C71.6421 331.681 72.3523 331.592 72.9655 331.411C73.5752 331.226 74.0845 330.973 74.4967 330.645C74.909 330.32 75.2173 329.934 75.4217 329.493C75.6261 329.048 75.73 328.569 75.73 328.046C75.73 327.537 75.6434 327.068 75.4667 326.637ZM134.599 328.764C134.367 327.776 134.017 326.942 133.553 326.258C133.085 325.574 132.507 325.051 131.814 324.695C131.121 324.336 130.321 324.158 129.413 324.158C128.554 324.158 127.792 324.336 127.123 324.695C126.458 325.051 125.897 325.56 125.443 326.22C124.986 326.88 124.643 327.68 124.404 328.621C124.168 329.558 124.05 330.614 124.05 331.791C124.05 332.953 124.165 334.017 124.397 334.981C124.625 335.942 124.968 336.773 125.422 337.471C125.88 338.168 126.441 338.705 127.116 339.088C127.788 339.471 128.561 339.659 129.43 339.659C130.217 339.659 130.941 339.515 131.609 339.225C132.275 338.934 132.857 338.483 133.355 337.871C133.854 337.259 134.242 336.475 134.523 335.525C134.804 334.574 134.942 333.439 134.942 332.119C134.942 330.871 134.828 329.753 134.599 328.764ZM149.406 326.637C149.232 326.21 148.983 325.841 148.657 325.53C148.335 325.222 147.947 324.982 147.5 324.811C147.053 324.644 146.558 324.558 146.025 324.558C145.512 324.558 144.861 324.637 144.064 324.794V331.664C144.223 331.664 144.365 331.668 144.483 331.674C144.601 331.678 144.698 331.681 144.774 331.681C145.581 331.681 146.291 331.592 146.904 331.411C147.514 331.226 148.023 330.973 148.436 330.645C148.844 330.32 149.153 329.934 149.361 329.493C149.565 329.048 149.669 328.569 149.669 328.046C149.669 327.537 149.582 327.068 149.406 326.637ZM212.117 327.048L209.162 333.716H214.992L212.117 327.048ZM212.117 327.048L209.162 333.716H214.992L212.117 327.048ZM149.406 326.637C149.232 326.21 148.983 325.841 148.657 325.53C148.335 325.222 147.947 324.982 147.5 324.811C147.053 324.644 146.558 324.558 146.025 324.558C145.512 324.558 144.861 324.637 144.064 324.794V331.664C144.223 331.664 144.365 331.668 144.483 331.674C144.601 331.678 144.698 331.681 144.774 331.681C145.581 331.681 146.291 331.592 146.904 331.411C147.514 331.226 148.023 330.973 148.436 330.645C148.844 330.32 149.153 329.934 149.361 329.493C149.565 329.048 149.669 328.569 149.669 328.046C149.669 327.537 149.582 327.068 149.406 326.637ZM134.599 328.764C134.367 327.776 134.017 326.942 133.553 326.258C133.085 325.574 132.507 325.051 131.814 324.695C131.121 324.336 130.321 324.158 129.413 324.158C128.554 324.158 127.792 324.336 127.123 324.695C126.458 325.051 125.897 325.56 125.443 326.22C124.986 326.88 124.643 327.68 124.404 328.621C124.168 329.558 124.05 330.614 124.05 331.791C124.05 332.953 124.165 334.017 124.397 334.981C124.625 335.942 124.968 336.773 125.422 337.471C125.88 338.168 126.441 338.705 127.116 339.088C127.788 339.471 128.561 339.659 129.43 339.659C130.217 339.659 130.941 339.515 131.609 339.225C132.275 338.934 132.857 338.483 133.355 337.871C133.854 337.259 134.242 336.475 134.523 335.525C134.804 334.574 134.942 333.439 134.942 332.119C134.942 330.871 134.828 329.753 134.599 328.764ZM75.4667 326.637C75.2935 326.21 75.0441 325.841 74.7219 325.53C74.3962 325.222 74.0117 324.982 73.5613 324.811C73.1144 324.644 72.6225 324.558 72.0855 324.558C71.5763 324.558 70.9215 324.637 70.1247 324.794V331.664C70.2841 331.664 70.4261 331.668 70.5439 331.674C70.6617 331.678 70.7587 331.681 70.8349 331.681C71.6421 331.681 72.3523 331.592 72.9655 331.411C73.5752 331.226 74.0845 330.973 74.4967 330.645C74.909 330.32 75.2173 329.934 75.4217 329.493C75.6261 329.048 75.73 328.569 75.73 328.046C75.73 327.537 75.6434 327.068 75.4667 326.637ZM75.4667 326.637C75.2935 326.21 75.0441 325.841 74.7219 325.53C74.3962 325.222 74.0117 324.982 73.5613 324.811C73.1144 324.644 72.6225 324.558 72.0855 324.558C71.5763 324.558 70.9215 324.637 70.1247 324.794V331.664C70.2841 331.664 70.4261 331.668 70.5439 331.674C70.6617 331.678 70.7587 331.681 70.8349 331.681C71.6421 331.681 72.3523 331.592 72.9655 331.411C73.5752 331.226 74.0845 330.973 74.4967 330.645C74.909 330.32 75.2173 329.934 75.4217 329.493C75.6261 329.048 75.73 328.569 75.73 328.046C75.73 327.537 75.6434 327.068 75.4667 326.637ZM134.599 328.764C134.367 327.776 134.017 326.942 133.553 326.258C133.085 325.574 132.507 325.051 131.814 324.695C131.121 324.336 130.321 324.158 129.413 324.158C128.554 324.158 127.792 324.336 127.123 324.695C126.458 325.051 125.897 325.56 125.443 326.22C124.986 326.88 124.643 327.68 124.404 328.621C124.168 329.558 124.05 330.614 124.05 331.791C124.05 332.953 124.165 334.017 124.397 334.981C124.625 335.942 124.968 336.773 125.422 337.471C125.88 338.168 126.441 338.705 127.116 339.088C127.788 339.471 128.561 339.659 129.43 339.659C130.217 339.659 130.941 339.515 131.609 339.225C132.275 338.934 132.857 338.483 133.355 337.871C133.854 337.259 134.242 336.475 134.523 335.525C134.804 334.574 134.942 333.439 134.942 332.119C134.942 330.871 134.828 329.753 134.599 328.764ZM149.406 326.637C149.232 326.21 148.983 325.841 148.657 325.53C148.335 325.222 147.947 324.982 147.5 324.811C147.053 324.644 146.558 324.558 146.025 324.558C145.512 324.558 144.861 324.637 144.064 324.794V331.664C144.223 331.664 144.365 331.668 144.483 331.674C144.601 331.678 144.698 331.681 144.774 331.681C145.581 331.681 146.291 331.592 146.904 331.411C147.514 331.226 148.023 330.973 148.436 330.645C148.844 330.32 149.153 329.934 149.361 329.493C149.565 329.048 149.669 328.569 149.669 328.046C149.669 327.537 149.582 327.068 149.406 326.637ZM149.406 326.637C149.232 326.21 148.983 325.841 148.657 325.53C148.335 325.222 147.947 324.982 147.5 324.811C147.053 324.644 146.558 324.558 146.025 324.558C145.512 324.558 144.861 324.637 144.064 324.794V331.664C144.223 331.664 144.365 331.668 144.483 331.674C144.601 331.678 144.698 331.681 144.774 331.681C145.581 331.681 146.291 331.592 146.904 331.411C147.514 331.226 148.023 330.973 148.436 330.645C148.844 330.32 149.153 329.934 149.361 329.493C149.565 329.048 149.669 328.569 149.669 328.046C149.669 327.537 149.582 327.068 149.406 326.637ZM134.599 328.764C134.367 327.776 134.017 326.942 133.553 326.258C133.085 325.574 132.507 325.051 131.814 324.695C131.121 324.336 130.321 324.158 129.413 324.158C128.554 324.158 127.792 324.336 127.123 324.695C126.458 325.051 125.897 325.56 125.443 326.22C124.986 326.88 124.643 327.68 124.404 328.621C124.168 329.558 124.05 330.614 124.05 331.791C124.05 332.953 124.165 334.017 124.397 334.981C124.625 335.942 124.968 336.773 125.422 337.471C125.88 338.168 126.441 338.705 127.116 339.088C127.788 339.471 128.561 339.659 129.43 339.659C130.217 339.659 130.941 339.515 131.609 339.225C132.275 338.934 132.857 338.483 133.355 337.871C133.854 337.259 134.242 336.475 134.523 335.525C134.804 334.574 134.942 333.439 134.942 332.119C134.942 330.871 134.828 329.753 134.599 328.764ZM75.4667 326.637C75.2935 326.21 75.0441 325.841 74.7219 325.53C74.3962 325.222 74.0117 324.982 73.5613 324.811C73.1144 324.644 72.6225 324.558 72.0855 324.558C71.5763 324.558 70.9215 324.637 70.1247 324.794V331.664C70.2841 331.664 70.4261 331.668 70.5439 331.674C70.6617 331.678 70.7587 331.681 70.8349 331.681C71.6421 331.681 72.3523 331.592 72.9655 331.411C73.5752 331.226 74.0845 330.973 74.4967 330.645C74.909 330.32 75.2173 329.934 75.4217 329.493C75.6261 329.048 75.73 328.569 75.73 328.046C75.73 327.537 75.6434 327.068 75.4667 326.637ZM75.4667 326.637C75.2935 326.21 75.0441 325.841 74.7219 325.53C74.3962 325.222 74.0117 324.982 73.5613 324.811C73.1144 324.644 72.6225 324.558 72.0855 324.558C71.5763 324.558 70.9215 324.637 70.1247 324.794V331.664C70.2841 331.664 70.4261 331.668 70.5439 331.674C70.6617 331.678 70.7587 331.681 70.8349 331.681C71.6421 331.681 72.3523 331.592 72.9655 331.411C73.5752 331.226 74.0845 330.973 74.4967 330.645C74.909 330.32 75.2173 329.934 75.4217 329.493C75.6261 329.048 75.73 328.569 75.73 328.046C75.73 327.537 75.6434 327.068 75.4667 326.637ZM134.599 328.764C134.367 327.776 134.017 326.942 133.553 326.258C133.085 325.574 132.507 325.051 131.814 324.695C131.121 324.336 130.321 324.158 129.413 324.158C128.554 324.158 127.792 324.336 127.123 324.695C126.458 325.051 125.897 325.56 125.443 326.22C124.986 326.88 124.643 327.68 124.404 328.621C124.168 329.558 124.05 330.614 124.05 331.791C124.05 332.953 124.165 334.017 124.397 334.981C124.625 335.942 124.968 336.773 125.422 337.471C125.88 338.168 126.441 338.705 127.116 339.088C127.788 339.471 128.561 339.659 129.43 339.659C130.217 339.659 130.941 339.515 131.609 339.225C132.275 338.934 132.857 338.483 133.355 337.871C133.854 337.259 134.242 336.475 134.523 335.525C134.804 334.574 134.942 333.439 134.942 332.119C134.942 330.871 134.828 329.753 134.599 328.764ZM134.599 328.764C134.367 327.776 134.017 326.942 133.553 326.258C133.085 325.574 132.507 325.051 131.814 324.695C131.121 324.336 130.321 324.158 129.413 324.158C128.554 324.158 127.792 324.336 127.123 324.695C126.458 325.051 125.897 325.56 125.443 326.22C124.986 326.88 124.643 327.68 124.404 328.621C124.168 329.558 124.05 330.614 124.05 331.791C124.05 332.953 124.165 334.017 124.397 334.981C124.625 335.942 124.968 336.773 125.422 337.471C125.88 338.168 126.441 338.705 127.116 339.088C127.788 339.471 128.561 339.659 129.43 339.659C130.217 339.659 130.941 339.515 131.609 339.225C132.275 338.934 132.857 338.483 133.355 337.871C133.854 337.259 134.242 336.475 134.523 335.525C134.804 334.574 134.942 333.439 134.942 332.119C134.942 330.871 134.828 329.753 134.599 328.764ZM75.4667 326.637C75.2935 326.21 75.0441 325.841 74.7219 325.53C74.3962 325.222 74.0117 324.982 73.5613 324.811C73.1144 324.644 72.6225 324.558 72.0855 324.558C71.5763 324.558 70.9215 324.637 70.1247 324.794V331.664C70.2841 331.664 70.4261 331.668 70.5439 331.674C70.6617 331.678 70.7587 331.681 70.8349 331.681C71.6421 331.681 72.3523 331.592 72.9655 331.411C73.5752 331.226 74.0845 330.973 74.4967 330.645C74.909 330.32 75.2173 329.934 75.4217 329.493C75.6261 329.048 75.73 328.569 75.73 328.046C75.73 327.537 75.6434 327.068 75.4667 326.637ZM75.4667 326.637C75.2935 326.21 75.0441 325.841 74.7219 325.53C74.3962 325.222 74.0117 324.982 73.5613 324.811C73.1144 324.644 72.6225 324.558 72.0855 324.558C71.5763 324.558 70.9215 324.637 70.1247 324.794V331.664C70.2841 331.664 70.4261 331.668 70.5439 331.674C70.6617 331.678 70.7587 331.681 70.8349 331.681C71.6421 331.681 72.3523 331.592 72.9655 331.411C73.5752 331.226 74.0845 330.973 74.4967 330.645C74.909 330.32 75.2173 329.934 75.4217 329.493C75.6261 329.048 75.73 328.569 75.73 328.046C75.73 327.537 75.6434 327.068 75.4667 326.637ZM75.4667 326.637C75.2935 326.21 75.0441 325.841 74.7219 325.53C74.3962 325.222 74.0117 324.982 73.5613 324.811C73.1144 324.644 72.6225 324.558 72.0855 324.558C71.5763 324.558 70.9215 324.637 70.1247 324.794V331.664C70.2841 331.664 70.4261 331.668 70.5439 331.674C70.6617 331.678 70.7587 331.681 70.8349 331.681C71.6421 331.681 72.3523 331.592 72.9655 331.411C73.5752 331.226 74.0845 330.973 74.4967 330.645C74.909 330.32 75.2173 329.934 75.4217 329.493C75.6261 329.048 75.73 328.569 75.73 328.046C75.73 327.537 75.6434 327.068 75.4667 326.637Z" fill="#EF4344"/>
</svg>
