<svg width="148" height="150" viewBox="0 0 148 150" fill="none" xmlns="http://www.w3.org/2000/svg">
<g clip-path="url(#clip0_228_247)">
<path d="M73.7104 -5.4473e-05C71.8307 -0.0026864 71.6729 0.528431 71.6729 6.8673C71.6729 12.1857 71.6729 12.1859 69.5833 12.1859C66.7265 12.1859 66.2886 11.6548 67.0568 9.12329C67.3658 8.10474 67.3572 8.18182 67.1588 8.18182C65.1072 8.18182 64.1613 13.5564 65.8923 15.3781C66.8067 16.3406 69.7603 16.7121 71.424 16.0738C71.6218 15.998 71.6729 16.1778 71.6729 16.9436C71.6729 17.9091 71.673 17.9094 70.8458 18.013C66.9331 18.5032 65.3808 18.8854 62.814 19.9919C56.808 22.5807 50.7979 29.3017 48.2575 36.269C47.6673 37.888 47.6085 37.8163 49.7938 38.146C58.9773 39.5313 67.196 37.4956 67.6205 33.7308C67.7511 32.5718 67.3993 31.9862 66.9805 32.6655C65.9585 34.3231 64.1178 34.7382 62.3925 33.6995C61.4851 33.1532 61.3487 33.1192 60.7485 33.2888C58.6949 33.8691 56.6015 33.4018 58.3019 32.7427C61.8006 31.3863 62.9139 25.6852 60.3046 22.4874C60.0751 22.2061 60.1224 22.1712 62.0963 21.1664C64.6879 19.8472 67.2937 19.1356 70.4776 18.8781C71.9806 18.7565 71.9806 18.7566 72.1093 24.4187C72.3533 35.1557 70.5262 38.1173 61.9221 40.9288C59.7101 41.6518 60.0148 41.7005 63.3587 41.158C65.6022 40.794 65.7584 40.8974 64.1763 41.699C60.0056 43.8119 50.8979 43.1768 46.6793 40.479C46.1169 40.1193 44.9088 39.5196 43.9946 39.1464C32.137 34.3062 31.4178 23.6417 42.1999 12.5337C42.3393 12.3901 41.538 13.6435 40.4191 15.3191C34.6115 24.0163 34.2208 29.4124 39.0485 34.2387C40.2478 35.4377 43.9927 37.9569 43.9861 37.5624C43.9859 37.5366 43.2999 36.8104 42.462 35.9487C41.1319 34.5807 39.6332 32.6422 39.6332 32.2897C39.6332 32.2247 39.8878 32.3389 40.1991 32.5437C40.9179 33.0166 42.9066 34.037 43.4205 34.1965C43.9871 34.3724 43.914 34.1094 43.0504 32.8667C40.403 29.0567 40.5948 27.3314 44.5357 19.4972C49.1997 10.2256 49.3764 5.23017 45.1883 1.04278C43.9199 -0.225347 43.8753 -0.185663 43.7643 2.30565C43.5669 6.73393 42.5616 8.88376 38.7999 12.9222C30.0784 22.2853 28.7601 31.4141 34.8878 40.0258C36.5693 42.3891 41.1203 46.3069 42.1845 46.3069C42.6792 46.3069 42.9419 46.8588 42.9419 47.8979C42.9419 48.8093 42.9807 48.9306 43.2466 48.854C43.4142 48.8058 44.57 48.6435 45.815 48.4936C53.2966 47.5929 59.0184 47.632 68.7133 48.6497C73.5189 49.1541 73.703 49.156 77.9423 48.7462C89.3187 47.6465 95.7512 47.5991 102.434 48.565C104.649 48.8852 104.584 48.913 104.584 47.6476C104.584 46.5521 104.584 46.5508 105.194 46.3304C108.111 45.2758 112.335 40.8638 114.243 36.8765C118.242 28.5261 116.219 20.9698 107.499 11.693C104.647 8.65849 103.333 5.58862 103.333 1.95682C103.333 -0.206424 103.241 -0.254136 101.814 1.17342C97.8422 5.14796 97.9793 11.209 102.217 18.9745C106.565 26.9433 106.848 28.8567 104.262 32.7973C103.075 34.6065 103.763 34.5649 106.763 32.6464C108.389 31.6063 106.876 33.9642 104.327 36.4416C103.103 37.6316 103.103 37.6317 104.235 37.0741C112.597 32.9543 113.644 25.9101 107.323 16.3115C104.021 11.2968 103.997 11.1678 107.149 15.3618C114.913 25.6934 114.703 32.5036 106.463 37.572C91.2993 46.8989 71.462 38.8793 76.1768 25.3289C77.1605 22.5019 77.2647 20.9363 76.5863 19.1688C76.4434 18.7966 78.9869 19.0202 81.135 19.569C86.8966 21.0409 93.3493 26.4041 91.8158 28.4458C91.1945 29.2731 91.1599 29.5117 91.4611 30.8821C91.9581 33.1433 90.9075 34.1142 89.9273 32.2996C88.9495 30.4895 88.0508 30.4824 87.3248 32.2785C86.7414 33.722 86.1081 34.5379 86.5542 33.2715C87.381 30.9239 86.3806 28.8573 83.7753 27.5312C82.8667 27.0688 82.7952 26.9982 83.2266 26.9909C86.6869 26.9325 85.4643 24.0756 81.8006 23.6587C80.317 23.4899 79.6709 23.2541 78.6959 22.5247C78.144 22.1119 78.1441 22.1117 77.9491 23.0239C77.8418 23.5255 77.5494 24.5629 77.2995 25.3289C74.2756 34.5933 83.4469 40.194 97.8785 37.8964C99.6078 37.621 99.5984 37.6609 98.5254 35.1296C94.3585 25.2994 85.2601 18.1287 76.9177 18.1011C75.8641 18.0978 75.7499 18.0009 75.6006 16.9885C75.4746 16.1346 75.4746 16.1348 77.5854 16.2541C82.5117 16.5324 84.4352 12.1505 80.8942 8.71491C79.9729 7.82104 79.9322 7.8665 80.299 9.37526C80.9 11.8476 80.5822 12.1844 77.6486 12.1845C75.5912 12.1846 75.5909 12.1846 75.6396 7.13007C75.7008 0.738967 75.5019 0.00153329 73.7107 -0.00109863L73.7104 -5.4473e-05ZM73.6756 0.695637C75.4409 0.695637 75.5638 3.98857 73.8698 5.89559C73.3488 6.48208 73.0472 7.00245 72.9761 7.43758C72.9168 7.79878 72.8515 8.212 72.8298 8.35563C72.7081 9.17074 72.5058 7.34773 72.424 4.69975C72.3155 1.18744 72.4694 0.695637 73.6756 0.695637ZM73.8582 12.8821C75.4028 12.8821 75.9968 13.0736 75.1122 13.2867C74.2312 13.499 70.6745 13.6197 70.5641 13.4411C70.3894 13.1584 72.0178 12.8821 73.8582 12.8821ZM73.5301 13.9787C74.3782 13.982 75.138 14.0243 75.4543 14.114C76.2875 14.3502 76.2876 14.3502 75.5911 14.4765C74.4952 14.6752 69.8462 14.4745 70.1995 14.2439C70.4581 14.075 72.1166 13.973 73.5301 13.9787ZM73.6355 18.943C74.1343 19.3546 74.3041 20.8874 74.548 27.1704C75.0411 39.8787 75.8693 41.5368 81.9032 41.8967C84.1237 42.029 84.1237 42.029 82.7306 42.1694C79.6291 42.4819 77.7613 43.2275 77.1582 44.3935C77.0144 44.6713 76.8381 45.3018 76.7663 45.7944C76.5217 47.4762 74.2402 44.6956 73.7595 42.1297C73.4224 40.3298 73.3065 18.6719 73.6355 18.943ZM65.9275 23.1766C63.4764 23.1971 62.0611 26.1056 63.3564 28.9342C63.8027 29.9088 63.8029 29.9091 63.363 30.5268C62.6808 31.4854 62.8322 32.3641 63.7442 32.7387C64.2808 32.9591 65.0742 32.751 65.7528 32.2117C66.3982 31.6988 66.4495 31.424 66.1807 29.9193C66.1182 29.5707 66.1504 29.1318 66.2518 28.9424C66.4023 28.6612 66.3547 28.5223 65.9909 28.1824C64.5008 26.7909 64.8588 24.9719 66.6626 24.7686C67.7995 24.6405 68.2717 24.8014 69.1586 25.6186C69.979 26.3748 70.0254 26.3817 69.7694 25.7084C69.346 24.5952 67.9134 23.4871 66.5718 23.2355C66.3502 23.1939 66.1352 23.1749 65.9275 23.1766ZM87.4502 26.2188C87.4002 26.2135 87.4279 26.3055 87.4964 26.4833C88.0285 27.8663 88.6647 29.0871 89.2726 29.8921C90.1426 31.0441 90.0975 31.0685 90.0685 29.4572C90.0501 28.4282 90.1172 27.9887 90.3488 27.6354C90.5164 27.3792 90.6537 27.1475 90.6538 27.1202C90.654 27.0929 90.1939 27.0965 89.6314 27.1284C88.6896 27.1817 88.5586 27.142 87.9732 26.6282C87.663 26.3559 87.5068 26.2249 87.4502 26.2188ZM117.625 45.7872C113.232 45.8758 109.565 50.265 112.335 53.8961C113.167 54.9858 115.357 56.1141 114.868 55.2007C113.58 52.794 117.9 51.348 119.497 53.6516C122.443 57.9012 116.411 62.8311 111.232 60.4078C108.695 59.2212 104.685 53.7286 105.871 53.0654C106.997 52.4355 106.776 49.7929 105.597 49.7902C105.473 49.7899 104.195 49.6771 102.759 49.5396C95.0534 48.8024 88.2582 48.8278 80.0349 49.624C74.0895 50.1996 73.322 50.2133 69.4127 49.8154C59.55 48.8115 53.6466 48.7467 44.7737 49.5444C40.7009 49.9106 39.5782 50.9628 41.3203 52.7807C42.8807 54.4091 37.8666 60.2752 34.2743 61.0239C29.7445 61.9682 25.485 57.0843 27.8547 53.6631C29.3808 51.4593 32.7117 52.2838 32.4711 54.8059C32.3909 55.6466 32.4876 55.6821 33.4581 55.1694C38.2947 52.6148 35.5713 45.8741 29.7027 45.8741C22.3771 45.8741 18.6772 55.3602 23.2219 62.4907C29.6998 72.6552 43.6818 68.2654 45.2416 55.578C45.4445 53.9264 45.4444 53.9265 45.848 55.2832C46.3449 56.954 46.257 57.3777 45.0442 59.1512C44.0754 60.5681 43.8806 61.2478 44.1212 62.3757C44.2454 62.9574 44.2262 63.2728 44.0433 63.6511C43.8098 64.1339 43.822 64.1297 44.3529 63.5443C44.9055 62.935 44.9056 62.9349 44.5787 63.5168C44.3989 63.8368 44.0454 64.2064 43.7937 64.3376C43.1786 64.6583 43.1174 64.8787 43.1319 66.7358C43.1437 68.3179 43.4005 68.4679 43.4794 66.9391C43.5038 66.4713 43.5413 66.3788 43.5937 66.6572C43.7618 67.5448 43.4644 68.2631 42.5993 69.0598C41.7832 69.8114 41.066 70.9501 41.2763 71.1604C41.3323 71.2165 41.3783 71.1771 41.3783 71.0727C41.3783 70.6822 42.3249 69.7794 43.186 69.3485C43.6764 69.1031 44.3516 68.7038 44.6868 68.461C45.2193 68.0753 45.2499 68.0686 44.9286 68.408C44.7263 68.6216 44.0638 69.1226 43.4564 69.5215C42.2049 70.3434 41.8012 70.9272 41.4539 72.4155C41.3037 73.0589 40.9822 73.7552 40.6111 74.2414C39.9869 75.0589 39.706 75.6832 39.8826 75.8598C39.9392 75.9165 39.9853 75.837 39.9853 75.6831C39.9853 75.5291 40.077 75.3463 40.1891 75.2771C40.3313 75.1892 40.3542 75.2518 40.2652 75.4845C40.195 75.6677 40.424 75.4838 40.7737 75.0754C41.5928 74.1195 42.5703 73.4596 44.0203 72.8839C45.5721 72.2678 45.6273 72.3004 44.3889 73.1006C41.4428 75.0044 38.6154 78.766 37.8464 81.8057C37.7227 82.2948 37.7813 82.2308 38.6572 80.9186C39.6474 79.4349 41.8211 77.4416 43.1357 76.8121C44.9365 75.9494 45.2369 75.9489 44.0774 76.8095C41.6258 78.6295 38.8903 82.0357 37.4809 85.0231C36.5054 87.091 36.5054 87.0911 37.5942 85.9754C39.4341 84.0898 40.3263 83.9433 39.4546 85.6697C39.1502 86.2725 38.4715 88.0628 37.9465 89.648C35.548 96.8904 31.7313 100.128 25.3894 100.299C24.6531 100.319 24.6919 100.337 25.7938 100.484C26.4642 100.573 27.5825 100.62 28.2789 100.589C30.0422 100.509 28.3329 101.799 26.2305 102.135C25.4742 102.256 25.4646 102.265 25.968 102.38C27.5789 102.748 28.4352 102.542 30.1225 101.382C30.8555 100.878 31.1139 100.799 32.0387 100.797C33.1075 100.794 33.1073 100.794 34.6363 98.8382C37.0822 95.7098 37.6826 94.424 38.1424 91.3294C38.6848 87.6793 41.3034 83.7678 44.389 81.9985C45.6905 81.2522 45.717 81.3456 44.5189 82.4545C42.7946 84.0506 39.4 89.7166 38.5872 92.3558C38.3809 93.026 38.061 93.9967 37.8765 94.5125C37.4285 95.7649 37.7249 95.5151 39.2909 93.3207C39.9431 92.4069 40.9652 91.1893 41.5621 90.6148C42.6473 89.5703 42.647 89.5702 41.6695 90.7417C40.8059 91.7766 39.2504 93.9875 38.8783 94.7087C38.8049 94.8509 39.8181 93.8704 41.1295 92.5299C43.036 90.581 43.3436 90.3187 42.664 91.2208C42.1965 91.8413 40.7529 93.4473 39.4562 94.7897C34.4682 99.9533 33.7838 100.691 33.1389 101.599C32.4017 102.637 31.674 104.344 31.5136 105.413C31.4169 106.057 31.4596 106.012 32.0839 104.808C32.4654 104.073 33.1997 103.051 33.7725 102.458C34.786 101.409 34.786 101.409 34.1789 102.54C33.8451 103.163 33.246 104.416 32.8474 105.326C30.7567 110.098 30.223 110.578 28.584 109.159C27.0017 107.79 25.9137 107.349 22.622 106.743C21.2889 106.497 20.6564 106.456 20.0972 106.578C19.6869 106.668 18.6065 106.799 17.6967 106.87C16.7869 106.941 15.8662 107.095 15.6507 107.213C15.0901 107.519 15.1675 107.603 15.8058 107.38C16.2094 107.239 16.8763 107.248 18.3535 107.413C19.5577 107.547 21.1251 107.593 22.2904 107.53C24.2301 107.424 24.4007 107.609 22.5711 107.834C21.0966 108.015 21.0737 108.195 22.5204 108.234C23.2987 108.254 24.2764 108.418 24.9391 108.639C26.7695 109.247 26.5573 109.577 24.6623 109.069C24.1355 108.927 23.1953 108.823 22.5727 108.836C21.4409 108.861 21.4409 108.861 22.8339 108.975C24.3348 109.098 25.1804 109.442 26.2294 110.358C26.9553 110.992 26.2208 110.817 24.5017 109.946C23.996 109.69 23.638 109.57 23.706 109.68C23.7739 109.79 24.4803 110.195 25.2758 110.58C26.0713 110.965 27.1793 111.668 27.7382 112.141C28.297 112.614 29.1849 113.212 29.7111 113.47C30.3266 113.771 30.5594 113.96 30.364 113.997C30.1969 114.029 29.8449 113.941 29.5815 113.801C29.3181 113.661 28.7923 113.381 28.4129 113.179C27.4557 112.669 27.2053 112.705 25.4744 113.595C23.8319 114.44 23.2131 114.538 22.3493 114.092C21.4014 113.602 19.7515 113.705 18.1501 114.354C17.3938 114.66 16.4143 114.988 15.9735 115.084C15.5327 115.179 14.3598 115.5 13.367 115.797C11.8516 116.251 11.3905 116.32 10.4939 116.228C7.34346 115.902 7.19592 115.917 8.99057 116.376C11.2087 116.944 11.8584 116.922 14.3978 116.194C16.1703 115.686 16.9143 115.563 18.4807 115.518C19.6852 115.483 20.6788 115.359 21.158 115.182C22.212 114.793 22.5532 114.824 23.8196 115.423C25.0776 116.018 25.3728 116.048 26.4036 115.684C27.7241 115.218 28.3134 115.337 29.5379 116.314C30.7806 117.306 33.7122 118.374 33.7188 117.836C33.7405 114.802 34.1699 111.992 35.0308 109.355C34.8487 110.043 34.7556 110.7 34.7621 111.315C34.7621 111.515 35.188 110.687 35.7035 109.474C38.1629 103.69 43.0167 98.3572 50.7319 92.9624C52.1088 91.9997 52.0117 91.8506 50.571 92.7156C43.7521 96.8094 38.1989 102.377 35.902 107.075C38.2024 101.853 42.3756 97.2997 48.6921 92.9794C52.486 90.3844 59.1451 87.2951 57.1517 89.0549C56.2844 89.8205 56.386 89.8109 57.9509 88.9783C60.1276 87.8204 60.6659 88.0967 58.6545 89.3395C57.5253 90.0372 58.2582 89.8398 59.9527 88.9896C60.8989 88.5149 62.5255 87.4947 63.5679 86.7223C66.2173 84.7592 67.3594 84.6711 68.7228 86.3248C69.3794 87.1212 69.3709 87.2193 68.6565 87.1035C67.8005 86.9646 67.2253 87.3414 65.3324 89.2799C63.4915 91.1653 61.2517 92.9577 62.8153 91.2942C63.7611 90.2881 65.9306 87.4429 65.9306 87.2086C65.9306 86.3589 63.7992 87.9844 61.3063 90.7353C57.8997 94.4944 55.8301 96.113 48.7834 100.529C41.9527 104.811 39.8836 106.461 38.083 109.065C35.8886 112.239 34.1222 118.04 35.2734 118.293C37.1282 118.7 40.6277 117.378 42.5832 115.531C43.5573 114.61 43.6345 114.565 43.1478 115.195C40.0464 119.209 34.5486 121.33 28.2694 120.937C26.7404 120.841 26.7404 120.841 27.5729 121.283C28.0308 121.526 28.784 122.003 29.2469 122.342C30.3335 123.139 31.1273 123.414 32.371 123.423C33.2743 123.43 33.3931 123.474 33.5386 123.857C33.7717 124.469 34.3379 124.774 35.6772 125.005C36.5629 125.158 37.1403 125.396 38.0091 125.966C38.6977 126.418 39.5229 126.796 40.0532 126.902C40.5423 127 41.7653 127.253 42.7709 127.466C44.0319 127.732 45.1564 127.848 46.3943 127.838C48.0519 127.824 48.1602 127.843 47.8094 128.089C46.7961 128.798 43.2336 129.548 42.2077 129.267C41.92 129.188 41.8838 129.203 42.0743 129.322C42.5843 129.642 46.8678 130.382 48.2665 130.393C48.3681 130.393 48.5936 129.919 48.7674 129.339C49.166 128.008 50.1773 126.641 51.8913 125.112C52.6258 124.457 53.3781 123.635 53.5632 123.284C53.7483 122.934 53.9011 122.749 53.9077 122.874C53.9248 123.381 53.2581 124.304 51.6923 125.938C48.5663 129.202 48.2 131.316 50.101 135.118C51.0199 136.955 51.4056 137.067 52.1419 135.708C52.7023 134.673 52.6238 134.646 51.4482 135.469C50.826 135.905 50.4743 135.476 49.9184 133.604C49.0014 130.515 50.127 127.685 52.8085 126.337C54.3187 125.579 54.5735 125.613 53.4741 126.427C49.986 129.008 48.6087 133.577 51.272 133.731C52.0013 133.774 52.7317 133.943 53.2302 134.185C54.1199 134.618 54.617 134.672 54.9222 134.367C55.0807 134.208 55.0886 134.298 54.9571 134.757C54.7309 135.535 54.733 137.358 54.9571 137.358C55.0528 137.358 55.1316 137.213 55.1316 137.035C55.1316 135.935 57.83 132.667 58.7448 132.659C59.1746 132.655 58.9454 132.963 57.9313 133.75C55.8219 135.388 55.5067 136.699 56.6573 139.051C57.3481 140.463 57.362 140.478 57.6419 140.096C57.9192 139.717 57.9228 139.722 57.7912 140.317C57.6001 141.181 57.6563 142.563 57.8921 142.799C58.0424 142.949 58.0915 142.844 58.0915 142.378C58.0915 141.795 58.6264 140.84 58.9526 140.84C59.0291 140.84 59.1441 141.212 59.2086 141.667C59.2731 142.121 59.4755 142.768 59.6589 143.103C60.0609 143.837 60.0848 143.769 59.7508 142.842C59.2702 141.508 59.3843 140.84 60.0926 140.84C60.7007 140.84 60.7009 140.84 60.6857 142.245C60.6666 144 60.7943 144.187 60.9479 142.63C61.1114 140.972 61.1212 140.964 62.423 141.369C63.0267 141.557 63.6704 141.71 63.8534 141.71C64.2829 141.71 64.2848 141.703 63.6204 142.772C63.2313 143.398 63.1225 143.705 63.2721 143.755C63.3918 143.795 63.4959 144.076 63.5031 144.38C63.5261 145.322 63.9709 146.501 63.9939 145.681C64.0189 144.796 64.307 144.695 64.5228 145.497C64.7969 146.514 65.1503 146.939 65.3086 146.44C65.3756 146.23 65.4991 146.1 65.5835 146.152C65.6678 146.204 65.855 146.029 65.9994 145.763C66.2616 145.279 66.2615 145.279 66.2687 145.964C66.278 146.879 66.8537 148.02 67.5904 148.582C68.2989 149.122 68.3615 149.013 67.756 148.294C67.1282 147.548 67.1602 146.592 67.838 145.847C68.3538 145.279 68.3538 145.279 68.3603 145.835C68.3669 146.473 68.7044 146.809 68.7314 146.203C68.7459 145.882 68.7755 145.909 68.878 146.339C69.0013 146.855 69.9461 148.38 70.2643 148.576C70.3509 148.63 70.358 148.408 70.28 148.063C70.2022 147.719 70.2103 147.455 70.2985 147.455C70.3842 147.455 70.4549 147.318 70.4549 147.15C70.4549 146.421 71.4713 144.699 71.4857 145.401C71.5193 147.019 72.163 148.836 73.0308 149.762C73.8881 150.676 75.2114 148.839 75.4812 146.358C75.6143 145.135 76.5386 146.142 76.5596 147.534C76.5708 148.258 76.8376 147.907 77.3476 146.498C77.4644 146.175 77.4786 146.173 77.5486 146.468C77.6723 146.989 78.2886 146.309 78.2958 145.644C78.3024 145.105 78.3024 145.105 78.642 145.514C79.3717 146.389 79.4568 147.659 78.8356 148.407C78.5591 148.74 78.5629 148.742 78.9866 148.486C79.2287 148.339 79.7083 147.646 80.067 146.925C80.5913 145.87 80.7135 145.719 80.7201 146.117C80.7267 146.397 80.8022 146.56 80.902 146.498C80.9977 146.439 81.0761 146.204 81.0761 145.976C81.0761 145.748 81.1544 145.513 81.2503 145.453C81.3527 145.39 81.4244 145.579 81.4244 145.913C81.4244 146.236 81.4876 146.409 81.5713 146.315C81.8743 145.974 82.3278 144.127 82.2169 143.685C82.1032 143.232 82.1032 143.232 82.7436 143.61C83.628 144.132 83.6689 143.959 82.8307 143.242C82.1305 142.643 82.1305 142.643 82.6358 142.717C83.0993 142.785 83.1457 142.743 83.197 142.209C83.2691 141.46 84.5214 141.101 84.7023 141.778C84.7965 142.131 84.8046 142.128 84.9022 141.723C84.9946 141.339 85.8427 140.847 86.0517 141.056C86.0945 141.099 86.1934 141.714 86.2708 142.423C86.4115 143.713 86.4117 143.713 86.5497 142.887C86.626 142.433 86.6363 141.786 86.5734 141.451C86.4603 140.848 86.4663 140.84 87.0644 140.84C87.9873 140.84 88.0741 141.997 87.2471 143.277C87.0365 143.603 87.0978 143.573 87.4929 143.156C87.9939 142.627 88.3891 141.66 88.3891 140.949C88.3891 140.193 89.4238 141.65 89.4468 142.442C89.4587 142.842 89.4579 142.842 89.6526 142.439C89.8404 142.048 89.7137 141.022 89.3584 140.057C89.2588 139.786 89.3288 139.816 89.6722 140.187C90.1953 140.753 90.3055 140.779 90.3055 140.334C90.3055 140.152 90.5367 139.487 90.8195 138.857C91.9202 136.404 91.5034 135.098 89.1363 133.584C87.6935 132.661 87.8434 129.851 89.4924 126.913C90.2875 125.495 90.2901 125.604 89.5082 127.544C88.1476 130.918 88.001 132.622 89.0389 132.997C90.2917 133.45 92.395 135.967 92.395 137.013C92.395 137.241 92.4691 137.333 92.5919 137.257C92.8295 137.11 92.6803 135.106 92.3913 134.566C92.2147 134.236 92.2273 134.226 92.5579 134.432C92.8627 134.623 93.1311 134.583 94.3652 134.164C95.337 133.834 96.0685 133.691 96.586 133.731C99.0305 133.917 96.849 128.423 93.6336 126.296C92.5891 125.605 92.8834 125.57 94.2175 126.227C97.5133 127.849 98.694 131.301 97.1104 134.685C96.6022 135.771 96.5503 135.824 96.2605 135.562C95.8435 135.185 94.6587 134.701 94.6587 134.909C94.6587 135 94.7459 135.129 94.8525 135.195C94.9591 135.261 95.1979 135.657 95.3831 136.075C95.9327 137.318 96.2392 137.147 97.3379 134.983C99.1469 131.42 98.8069 129.274 95.9768 126.391C94.3978 124.782 93.4404 123.539 93.4404 123.101C93.4408 122.943 93.594 123.073 93.7928 123.399C93.9861 123.716 94.6289 124.421 95.2212 124.965C97.4899 127.052 98.0144 127.728 98.6154 129.346C99.0271 130.453 98.8907 130.433 102.495 129.933C105.182 129.559 105.459 129.432 103.875 129.295C100.281 128.985 97.7766 127.663 100.963 127.759C102.621 127.808 103.381 127.745 104.727 127.446C105.654 127.24 106.785 126.989 107.241 126.888C107.696 126.787 108.576 126.371 109.195 125.965C110.025 125.42 110.69 125.145 111.718 124.923C112.9 124.668 113.189 124.533 113.595 124.048C114.004 123.559 114.227 123.457 115.119 123.349C116.396 123.195 116.979 122.962 118.104 122.154C118.583 121.81 119.321 121.378 119.746 121.193C120.517 120.857 120.517 120.857 118.863 120.945C112.426 121.289 107.29 119.333 104.196 115.36C103.664 114.678 103.69 114.691 104.682 115.597C107.566 118.233 112.593 119.288 112.353 117.208C111.571 110.45 108.514 106.761 98.5821 100.588C91.4092 96.129 89.6059 94.7303 85.6216 90.5343C83.0867 87.865 81.0772 86.313 81.0772 87.025C81.0772 87.2117 83.6643 90.5291 84.5384 91.4632C86.0146 93.0408 84.2094 91.6077 82.0275 89.47C79.6644 87.1548 79.1509 86.8427 78.2606 87.1786C77.6654 87.4032 77.6474 87.2777 78.1647 86.5101C79.5009 84.5278 80.6449 84.6214 84.0922 86.9946C86.7185 88.8026 90.2675 90.4386 88.1747 88.8767C86.9983 87.9986 87.3427 87.9093 88.894 88.6903C90.3903 89.4437 90.5609 89.4637 89.7773 88.7941C89.0054 88.1344 89.126 88.1401 90.9655 88.8505C98.3807 91.7139 106.704 98.4215 110.334 104.46C112.17 107.514 112.849 110.144 113.56 116.946C113.671 118.012 113.682 118.031 114.135 117.929C115.212 117.686 116.796 116.789 117.88 115.807C119.586 114.261 120.227 114.061 122.193 114.46C123.277 114.68 124.14 114.747 125.036 114.679C126.072 114.601 126.436 114.643 126.904 114.893C127.223 115.064 127.837 115.261 128.267 115.331C128.698 115.401 129.598 115.675 130.269 115.939C133.378 117.165 137.313 117.143 142.315 115.873C143.29 115.626 144.426 115.417 144.84 115.409C145.592 115.395 145.592 115.395 145.07 115.156C144.125 114.723 140.05 115.022 137.946 115.679C136.882 116.011 136.001 116.017 135.104 115.701C134.722 115.566 133.87 115.4 133.21 115.331C131.958 115.2 131.278 114.947 130.877 114.465C130.407 113.899 129.302 113.469 128.633 113.591C127.758 113.75 127.076 113.741 126.263 113.559C125.567 113.402 125.567 113.403 126.699 113.255C129.014 112.952 129.468 113.01 130.69 113.77C132.739 115.045 135.716 114.885 137.606 113.4C139.116 112.213 139.788 111.953 141.413 111.928C142.381 111.913 142.673 111.864 142.37 111.767C141.731 111.562 140.108 111.566 139.409 111.774C137.156 112.445 136.375 112.318 134.566 110.984C132.189 109.231 130.532 109.316 125.784 111.435C124.946 111.809 124.104 112.115 123.912 112.115C123.441 112.115 123.47 112.397 123.956 112.53C124.273 112.617 124.299 112.669 124.095 112.8C123.837 112.966 123.832 112.964 125.044 113.22C125.235 113.261 125.064 113.303 124.664 113.314C124.126 113.329 123.704 113.191 123.051 112.785C122.167 112.235 122.167 112.235 121.168 112.516C120.618 112.67 119.816 112.842 119.385 112.9C118.954 112.957 118.274 113.196 117.874 113.43C117.474 113.665 117.003 113.856 116.829 113.856C116.654 113.856 116.839 113.694 117.24 113.495C117.672 113.282 118.258 112.751 118.68 112.193C119.506 111.099 119.896 110.867 121.747 110.371C123.71 109.845 123.804 109.75 122.594 109.516C120.874 109.183 120.778 109.155 120.778 108.985C120.778 108.466 122.146 108.411 123.621 108.87C125.259 109.381 126.948 109.469 128.712 109.134C130.987 108.702 132.724 108.827 134.36 109.539C136.52 110.479 137.818 110.647 140.936 110.388C144.077 110.128 144.27 110.026 141.628 110.026C139.131 110.026 137.465 109.805 134.882 109.131C133.032 108.648 132.484 108.591 127.689 108.379C124.834 108.252 122.455 108.106 122.403 108.054C122.194 107.845 123.706 107.721 125.185 107.826C127.105 107.962 127.106 107.859 125.192 107.597C122.8 107.27 120.52 107.899 118.816 109.358C117.354 110.61 116.358 109.976 115.108 106.997C114.662 105.934 113.911 104.281 113.44 103.324C112.583 101.583 112.583 101.583 113.504 102.547C114.596 103.691 115.242 104.936 116.03 107.415C116.591 109.179 116.608 109.207 116.503 108.213C116.083 104.22 114.948 102.2 110.575 97.6652C106.221 93.1503 105.758 92.6469 104.694 91.2677C104.158 90.5735 103.746 90.0056 103.777 90.0056C103.808 90.0056 104.799 91.0636 105.98 92.3564C107.16 93.6493 108.165 94.6685 108.212 94.6213C108.355 94.4779 106.332 91.5566 105.386 90.5428C104.701 89.8079 104.626 89.679 105.054 89.9763C105.749 90.4592 107.273 92.2046 108.195 93.5744C109.734 95.8624 109.756 95.1613 108.266 91.2429C107.052 88.0474 104.046 83.5156 102.028 81.8358C101.436 81.3434 101.417 81.3032 101.845 81.4628C104.932 82.6125 108.509 87.1876 108.97 90.5751C109.443 94.0478 110.14 95.6781 112.41 98.6229C114.549 101.399 114.506 101.367 115.806 101.237C116.862 101.132 116.862 101.133 118.043 102.092C119.884 103.589 121.175 103.736 123.939 102.766C125.268 102.299 125.268 102.299 126.812 102.77C129.104 103.47 129.524 103.324 127.333 102.589C125.497 101.974 125.411 101.962 124.46 102.18C121.692 102.815 120.939 102.65 119.395 101.071C118.506 100.162 118.516 100.157 120.345 100.625C121.886 101.019 122.817 101.059 123.828 100.776C124.211 100.669 125.073 100.48 125.743 100.358C127.363 100.061 125.597 100.003 123.654 100.289C119.047 100.967 113.351 98.1224 110.932 93.9343C110.659 93.4618 110.521 93.1276 110.625 93.192C110.904 93.3646 112.266 92.9094 113.037 92.3854C113.71 91.9285 113.71 91.9285 113.928 92.4469C114.345 93.4382 115.512 92.9905 115.959 91.6683C115.99 91.5774 116.249 91.6702 116.536 91.8743C117.255 92.386 117.829 92.4998 118.436 92.2507C118.952 92.0394 118.952 92.0395 118.121 91.907C117.601 91.8239 116.966 91.5411 116.419 91.1484C115.645 90.5924 115.535 90.5567 115.432 90.8298C115.152 91.5756 114.223 91.8262 114.132 91.1807C114.057 90.6575 113.602 90.7478 112.596 91.485C110.621 92.9319 110.283 92.798 109.533 90.2742C109.201 89.1576 108.573 87.4458 108.138 86.47C107.703 85.4942 107.303 84.591 107.248 84.4628C107.021 83.9302 108.944 85.1746 109.811 86.1212C110.32 86.6778 110.705 87.0547 110.665 86.959C108.796 82.4246 105.212 77.8433 102.235 76.1832C101.418 75.7272 102.341 75.9975 103.628 76.5909C105.655 77.5255 107.373 79.0792 108.839 81.306C109.624 82.4969 109.626 82.1509 108.846 80.257C107.557 77.1274 105.333 74.5413 102.474 72.8455C101.794 72.442 101.769 72.4054 102.235 72.5018C103.253 72.712 104.956 73.68 106.026 74.6552C106.952 75.5004 107.039 75.5488 106.622 74.9904C106.032 74.1989 106.172 74.1346 106.867 74.8782C107.568 75.6283 107.501 75.2287 106.764 74.2631C106.429 73.8245 106.074 73.1067 105.976 72.668C105.622 71.0897 105.005 70.2626 103.357 69.1553C102.506 68.5833 101.997 68.0703 102.28 68.0703C102.376 68.0703 102.546 68.1816 102.659 68.3174C102.772 68.4533 103.413 68.8905 104.085 69.2892C104.777 69.7004 105.451 70.2531 105.642 70.5656C105.827 70.8688 105.979 70.9951 105.979 70.8462C105.979 70.5132 105.257 69.5128 104.77 69.1712C104.209 68.7789 103.887 67.9913 103.914 67.078C103.939 66.2424 103.939 66.2424 104.048 67.1457C104.109 67.6425 104.227 68.1125 104.311 68.1902C104.397 68.27 104.416 68.142 104.353 67.8961C104.293 67.6567 104.24 66.8846 104.24 66.18C104.24 64.899 104.24 64.899 103.46 64.178C103.032 63.7814 102.562 63.1658 102.415 62.8097C102.017 61.8443 102.094 61.7948 102.627 62.6734C103.102 63.4567 103.102 63.4568 103.231 62.181C103.383 60.687 103.272 60.3407 102.086 58.6091C101.159 57.2545 101.021 56.1286 101.608 54.6825C101.919 53.9164 101.919 53.9165 102.024 55.3789C102.527 62.3818 109.038 68.6655 115.275 68.168C126.144 67.3008 130.198 51.1198 120.711 46.4757C119.69 45.976 118.638 45.7674 117.624 45.7879L117.625 45.7872ZM30.12 47.0571C32.1106 47.1556 33.8698 48.3517 34.4893 50.4855C34.567 50.7532 34.4114 50.6051 34.0849 50.101C32.6521 47.8889 29.6934 47.234 27.0416 48.5419C26.4482 48.8346 25.4963 49.4897 24.9266 49.9976C23.5702 51.2067 24.053 50.2507 25.4833 48.8952C26.8839 47.5679 28.5718 46.9805 30.12 47.0571ZM117.421 47.0921C119.531 47.0567 121.811 48.1681 123.009 50.2985C123.228 50.6887 123.383 51.0032 123.353 50.9966C123.323 50.99 122.869 50.5559 122.346 50.0313C119.474 47.1547 115.251 47.1724 113.3 50.0694C112.648 51.0377 112.715 50.5005 113.395 49.3166C114.241 47.8412 115.78 47.1197 117.421 47.0921ZM54.7248 52.2598C57.5878 52.2821 61.8511 52.7087 66.5317 53.4869C72.352 54.4545 75.1644 54.4914 80.0266 53.6644C93.9921 51.2892 99.2386 51.9418 96.9076 55.7643C96.1783 56.96 96.5592 57.9456 98.4643 59.7929C99.4618 60.7603 99.4955 60.906 99.0145 62.1714C98.674 63.0674 98.6739 63.0675 99.3104 65.3505C100.318 68.9638 100.272 71.3613 99.1509 73.6398C98.1375 75.6997 98.0556 76.0179 97.6202 79.5861C97.1772 83.2164 97.097 83.4771 96.6393 82.7782C96.069 81.9075 96.2114 80.0823 97.0668 77.3025C98.2228 73.5456 98.1445 73.3034 95.9466 73.8302C93.3467 74.4534 90.4267 74.0837 87.0789 72.7074C85.1575 71.9176 85.5507 72.3743 89.0164 74.9591C93.1062 78.0091 93.6832 79.6113 91.6933 82.3896C90.548 83.9888 90.2934 84.0593 89.7065 82.9384C88.6783 80.9751 87.232 79.5665 84.538 77.9051C84.1994 77.6962 83.5946 76.9431 83.0272 76.0227C81.816 74.058 81.2361 73.707 80.1667 74.2927C79.3528 74.7385 78.9662 74.6252 78.5486 73.8177C77.6625 72.1046 78.9665 71.3254 80.7477 72.5038C81.5579 73.0399 81.6026 72.9414 80.8874 72.1944C80.1976 71.4738 79.7511 70.6035 79.5971 69.6793C79.4341 68.7003 79.5701 68.7062 82.5518 69.8098C85.0543 70.7361 86.2328 70.8902 87.7757 70.4926C88.1588 70.3939 89.0992 70.2538 89.8653 70.1812C91.5464 70.0218 91.197 69.7541 88.8624 69.4134C87.9456 69.2796 87.5966 69.1686 87.7771 69.0676C88.5741 68.6217 91.6267 67.7207 92.3408 67.7207C93.2506 67.7207 93.189 67.503 92.2045 67.2376C91.7482 67.1146 91.1018 67.1548 89.7666 67.3892C86.9513 67.8835 85.2346 67.7101 82.9872 66.7037C81.9853 66.2551 82.3201 66.2483 84.3802 66.6762C86.9794 67.2161 89.2672 67.0226 91.5301 66.0713C93.2968 65.3286 93.3004 65.3287 93.7442 66.1849C94.1342 66.9373 94.1343 66.9373 94.0305 66.1974C93.9018 65.2795 93.8808 65.278 95.4018 66.3035C96.61 67.1181 98.4848 68.1516 98.4848 68.0029C98.4848 67.9633 97.8155 67.4009 96.9979 66.753C95.2921 65.4016 95.3024 65.2998 97.1557 65.1597C98.9924 65.0208 98.4906 64.4173 96.536 64.414C95.749 64.4126 95.5261 64.1449 96.1786 63.9845C96.9891 63.7853 97.392 63.4176 97.5144 62.7652C97.5789 62.4226 97.8787 61.8603 98.1814 61.5157C98.9059 60.6907 98.6348 60.4465 95.6117 59.2038C91.8185 57.6445 90.6435 57.9023 82.948 61.9791C79.3812 63.8687 77.0736 63.0877 76.6348 59.843C76.4369 58.3799 75.8567 59.0674 75.8494 60.7737C75.8494 61.4131 75.2882 61.8874 74.8279 61.6411C74.2666 61.3408 74.1801 60.1702 74.6074 58.6604C75.2114 56.5267 74.8241 56.165 71.7292 55.9716C69.3095 55.8204 69.1524 55.902 70.8762 56.4136C73.0266 57.0518 73.6595 58.5116 72.8342 60.9311C72.3401 62.3794 71.3204 61.6682 71.3204 59.8753C71.3204 58.9077 70.8839 58.6382 70.7041 59.4948C70.2035 61.8814 69.9412 62.3308 68.7928 62.7692C67.3504 63.3199 66.1063 63.0738 63.7087 61.763C56.1501 57.6309 53.1892 57.3416 49.1226 60.3384C48.736 60.6233 48.9645 61.2535 49.4072 61.1235C53.4755 59.9291 55.7346 59.9489 57.1599 61.1918C57.9723 61.9003 57.9667 61.9073 55.7359 62.8552C53.4973 63.8065 52.748 63.885 51.3456 63.3153C49.9644 62.7541 49.3576 62.6304 49.032 62.8437C48.8203 62.9824 48.8452 63.0154 49.1649 63.0174C49.3819 63.0187 50.0029 63.2704 50.5448 63.5761C51.6509 64.2002 51.6923 64.1511 49.685 64.5951C48.3338 64.894 48.425 65.041 50.0332 65.1558C52.156 65.3073 52.1688 65.3373 50.6345 66.5407C49.8967 67.1193 49.1757 67.7075 49.032 67.8481C48.5778 68.2926 50.8119 67.0858 51.9826 66.2544C53.361 65.2753 53.4454 65.2717 53.2978 66.1973C53.1798 66.9372 53.1796 66.9373 53.7158 66.1072C54.2519 65.2771 54.2519 65.2772 54.9068 65.5577C57.8487 66.8183 60.4066 67.1294 63.3059 66.5795C65.2622 66.2085 65.4005 66.3423 63.7279 66.9872C61.2289 67.9507 60.1519 68.0037 57.564 67.2918C56.2033 66.9175 55.1546 67.0185 54.3593 67.5999C54.0887 67.7977 54.2507 67.8286 55.4993 67.8189C56.7187 67.8095 59.2485 68.1347 61.0466 68.5323C61.6526 68.6662 61.1873 68.8374 58.7309 69.3837C56.2341 69.939 55.8997 70.1451 57.477 70.1559C58.1474 70.1605 59.401 70.2818 60.263 70.4255C62.1668 70.7431 62.7679 70.6591 64.8108 69.7897C67.209 68.7691 67.4894 68.7423 67.4894 69.5326C67.4894 70.4016 67.1269 71.1984 66.332 72.078C65.6634 72.818 65.6636 72.8182 66.5823 72.3528C68.1357 71.5658 68.7825 71.6346 68.8529 72.5952C68.9621 74.0854 68.01 75.0657 67.0588 74.4426C65.9477 73.7147 65.114 74.2469 63.9014 76.4585C63.2813 77.5895 63.1391 77.7285 61.9223 78.3912C60.337 79.2547 58.9506 80.6169 57.8333 82.4089C56.864 83.9637 56.9021 83.9516 55.9707 82.9972C54.5965 81.589 54.1283 79.8747 54.6334 78.0995C54.7949 77.5318 55.2656 76.9667 56.8988 75.3807C59.0987 73.2444 59.2801 73.0003 58.3911 73.3715C56.4489 74.1825 53.3727 74.3624 51.1319 73.7959C49.0625 73.2726 48.9641 73.6631 50.1967 77.4966C51.0487 80.1468 51.0157 84.0383 50.1487 83.1713C50.0153 83.038 49.741 81.2474 49.5551 79.2977C49.2795 76.4078 49.0744 75.625 48.0982 73.732C46.8942 71.3972 46.8408 69.42 47.8781 65.5651C48.5057 63.2326 48.5193 63.1251 48.2578 62.4716C47.7279 61.1477 47.8394 60.8431 49.4599 59.1873C51.3788 57.227 51.5197 56.874 50.6951 56.0962C49.6769 55.1358 49.9746 53.4351 51.2951 52.6678C51.7928 52.3786 53.007 52.2464 54.7248 52.2598ZM121.439 55.3839C121.49 55.3981 121.563 55.6308 121.693 56.0445C122.371 58.2056 121.579 60.6046 119.775 61.8545C119.087 62.3309 117.773 62.5125 117.556 62.1612C117.501 62.0718 117.887 61.7123 118.414 61.3625C120.188 60.1851 121.112 58.6163 121.284 56.4917C121.347 55.7083 121.374 55.3655 121.439 55.3839ZM25.958 55.4529C26.0287 55.4128 26.0307 55.646 26.0352 56.2676C26.0484 58.1965 27.2372 60.1968 29.1621 61.5305C29.5498 61.7991 29.8246 62.0875 29.7726 62.1714C29.6051 62.4423 28.4079 62.332 27.8703 61.9963C25.8522 60.7361 24.7647 57.5693 25.7406 55.7953C25.8484 55.5995 25.9156 55.477 25.958 55.4529ZM73.7204 64.4126C76.7201 64.4126 76.8673 64.7392 76.3745 70.3035C76.2587 71.6117 76.1108 74.4977 76.047 76.7169C75.9176 81.1894 75.899 81.2602 74.6261 82.1263C72.3098 83.7025 71.0979 81.8951 70.9289 76.6122C70.8597 74.4507 70.7519 71.6255 70.6894 70.3341C70.4349 65.0816 70.7771 64.4126 73.7204 64.4126ZM65.8511 75.8885C66.2385 75.8794 66.6721 76.0381 67.101 76.3652C67.5866 76.7355 67.7635 76.7879 67.988 76.6284C68.9418 75.9509 69.2359 75.8688 69.6749 76.1564C70.4134 76.6402 70.2061 79.0867 69.346 80.037C68.8629 80.5708 68.2794 80.5085 67.1445 79.8017C66.1028 79.153 65.5668 79.0774 64.8094 79.4723C64.1098 79.8371 64.0325 79.8089 63.9072 79.1411C63.7885 78.5083 64.1887 77.3856 64.8784 76.4172C65.1226 76.0743 65.4638 75.8975 65.8511 75.8885ZM77.8561 75.9344C78.1415 75.9384 78.4839 76.1473 78.8485 76.5804C79.257 77.0657 79.2571 77.0658 79.9301 76.4842C81.4778 75.1466 83.6995 76.92 83.229 79.1173C83.0601 79.906 82.9983 79.9441 82.5117 79.5614C81.8306 79.0258 80.9548 79.1084 79.7736 79.8195C77.8702 80.9654 77.0623 80.2867 77.0623 77.541C77.0623 76.4923 77.3803 75.9281 77.8561 75.9344ZM84.6849 80.1296C85.6572 80.081 86.816 80.9796 88.2021 82.8433C89.1025 84.0538 89.1026 84.0536 91.2232 84.8746C94.6982 86.2198 102.138 90.2544 102.138 90.7937C102.138 90.9174 102.124 90.9113 100.941 90.253C97.9845 88.6078 91.5582 86.2354 86.5531 84.9412C85.0207 84.545 83.5319 84.0932 83.2446 83.9375C81.5829 83.0366 85.9652 83.9854 90.8776 85.59C92.2026 86.0227 93.323 86.3403 93.3678 86.2955C93.4125 86.2508 93.2296 86.1371 92.9614 86.0429C92.6931 85.9487 90.7077 85.1218 88.5493 84.2054C86.3909 83.289 84.1784 82.3976 83.6325 82.2241C82.4349 81.8436 82.4442 81.9271 83.471 80.781C83.8398 80.3693 84.2429 80.1516 84.6849 80.1296ZM62.4223 80.1758C62.8552 80.1388 63.2321 80.2856 63.5311 80.627C64.604 81.8526 64.6229 81.9383 63.8715 82.1734C62.76 82.5213 54.0667 86.2575 54.2372 86.3142C54.3256 86.3437 55.0585 86.1347 55.8659 85.8498C58.8893 84.7828 64.8059 83.2494 64.5973 83.5869C64.3981 83.9091 63.4251 84.2739 60.931 84.9609C57.3996 85.9337 53.429 87.2483 50.9682 88.2594C49.8409 88.7227 48.0418 89.5294 46.9704 90.052C45.8989 90.5747 45.0223 90.9841 45.0223 90.9616C45.0223 90.8706 47.4801 89.2949 49.0929 88.3519C50.9867 87.2445 54.608 85.4918 56.7811 84.6307C58.0777 84.1169 58.2374 83.9959 58.9843 82.9662C60.2456 81.2275 61.4693 80.2572 62.4217 80.1756L62.4223 80.1758ZM128.972 86.7311C128.15 86.7383 127.441 87.3603 126.931 88.589C126.508 89.6078 125.401 91.3965 125.192 91.3965C125.15 91.3965 125.235 91.1652 125.382 90.8827C125.953 89.7771 125.593 89.9303 124.023 91.4604C123.01 92.4464 122.492 92.8127 121.783 93.0446C121.276 93.2105 120.333 93.7005 119.688 94.1334C118.863 94.6862 118.276 94.9471 117.713 95.0106C117.185 95.0701 116.991 95.1509 117.144 95.2479C117.514 95.4826 118.921 95.4237 119.727 95.1395C120.718 94.7897 121.174 94.8098 122.02 95.2415C123.038 95.7606 123.731 95.5865 124.722 94.5631C125.513 93.7465 125.513 93.7464 125.142 94.4842C124.877 95.0124 124.515 95.3687 123.868 95.7382C123.303 96.0607 123.059 96.2851 123.217 96.336C123.356 96.3808 123.588 96.4567 123.732 96.5046C125.545 97.1092 129.383 96.5092 130.556 95.4376C131.279 94.7768 131.36 94.7488 132.787 94.6593C134.104 94.5767 134.457 94.4736 136.003 93.7226C137.703 92.8963 137.777 92.8777 139.638 92.814C141.539 92.749 141.539 92.7489 140.515 92.2009C139.952 91.8996 139.297 91.5169 139.06 91.3506C138.359 90.8578 137.604 91.0849 135.886 92.305C135.633 92.4851 135.417 92.3477 134.38 91.3465C132.881 89.9005 132.753 89.904 131.105 91.4424C130.567 91.9441 130.551 91.9479 130.365 91.6005C130.065 91.0416 130.12 90.9118 131.045 89.9871C132.075 88.9571 132.072 88.9753 131.351 88.1541C130.511 87.197 129.698 86.7247 128.972 86.7311ZM85.6892 88.9593C85.6543 88.9593 86.9713 90.2824 88.6154 91.8998C93.0496 96.2619 94.2697 97.2234 99.876 100.771C101.552 101.832 102.962 102.7 103.01 102.7C103.179 102.698 101.669 101.446 98.1346 98.6568C96.1714 97.1071 93.468 94.8947 92.1272 93.7404C88.7247 90.8114 86.2303 88.9593 85.6892 88.9593ZM61.3193 89.1334C60.9176 89.1334 57.545 91.6182 55.0479 93.7539C53.5215 95.0595 51.2099 96.9606 49.911 97.979C47.9367 99.5269 44.6981 102.167 44.0756 102.735C43.1976 103.537 49.7907 99.3594 52.1141 97.6414C54.8085 95.6491 61.8583 89.1334 61.3193 89.1334ZM117.595 90.4492C117.463 90.4545 117.36 90.5509 117.154 90.7441C116.743 91.1303 116.743 91.1301 117.582 91.3296C118.732 91.6032 119.543 91.5988 120.161 91.3156C120.684 91.0765 120.684 91.0765 119.769 91.0623C119.213 91.0537 118.601 90.9126 118.21 90.7029C117.888 90.5303 117.726 90.4441 117.595 90.4492ZM95.3222 91.9505C95.2268 91.9524 95.5629 92.2296 96.3642 92.7815C105.213 98.8764 111.394 106.222 112.483 111.939C112.547 112.274 112.218 111.636 111.753 110.521C109.274 104.583 103.52 98.8021 94.738 93.4251C90.0819 90.5741 91.7098 92.4327 100.713 100.246C109.638 107.993 111.577 110.665 112.413 116.378C112.525 117.144 112.647 117.869 112.683 117.988C112.76 118.24 112.928 118.26 113.251 118.055C113.491 117.903 113.32 116.001 112.904 114.202C112.804 113.771 112.696 112.87 112.662 112.2C112.34 105.722 106.44 98.4645 96.8679 92.771C95.944 92.2215 95.4172 91.948 95.3218 91.9498L95.3222 91.9505ZM54.663 92.3187C54.3587 92.324 53.3662 92.8755 51.6609 94.0045C39.6941 101.928 34.9385 108.139 33.9638 117.119C33.8191 118.45 34.4574 118.846 34.6658 117.554C35.8574 110.166 37.0617 108.434 46.9399 99.8957C52.6712 94.9418 55.333 92.3079 54.6637 92.3191L54.663 92.3187ZM144.833 92.6217C144.371 92.623 143.916 92.8026 143.406 93.1477C142.976 93.4398 142.172 93.9105 141.622 94.1939C140.518 94.762 140.494 94.7978 140.909 95.2562C141.352 95.746 142.529 95.6668 143.929 95.0525C145.271 94.4634 145.758 94.4167 146.655 94.7913C148.182 95.4294 148.448 95.0691 147.265 93.9631C146.289 93.0507 145.554 92.6195 144.833 92.6217ZM71.998 92.7427C74.9051 92.6794 78.4016 92.9559 79.4949 93.503C83.1464 95.3302 82.8332 96.9067 79.0126 95.9314C76.9759 95.4115 70.1996 95.4071 68.0423 95.9242C66.4315 96.3103 64.8753 96.384 64.8753 96.0742C64.8753 95.3154 66.3684 93.9814 68.0487 93.2388C68.722 92.9412 70.2538 92.7807 71.998 92.7427ZM26.137 94.0297C25.8736 94.0317 25.5409 94.0562 25.078 94.0909C23.1084 94.2385 23.0832 94.4477 25.0148 94.6186C26.2238 94.7256 26.5067 94.8148 26.9962 95.2446C27.3103 95.5203 27.9101 95.9014 28.3294 96.0916C29.3716 96.5644 31.9647 96.5777 31.9647 96.1103C31.9647 95.7163 30.5248 95.2003 29.7303 95.3095C28.9631 95.415 28.8258 95.371 27.8138 94.6954C27.0304 94.1724 26.8102 94.0252 26.137 94.0297ZM23.3829 95.772C23.3005 95.7789 23.2581 95.9207 23.2581 96.1973C23.2581 96.4632 23.4699 96.8576 23.7777 97.1654C24.1994 97.5869 24.4188 97.6748 24.9399 97.6309C25.8619 97.553 25.8457 97.2205 24.9083 96.9845C24.3155 96.8352 24.0299 96.6481 23.8128 96.2667C23.6207 95.9291 23.4762 95.7641 23.3829 95.772ZM135.89 96.8346C135.307 96.828 134.768 97.0756 134.358 97.5697C134.151 97.819 134.222 97.8367 135.067 97.7454C135.875 97.6583 136.104 97.7054 136.703 98.0834C137.5 98.5862 138.535 98.6665 139.271 98.2827C139.537 98.1435 139.999 98.0704 140.315 98.1171C141.595 98.3059 143.05 97.9271 142.31 97.5979C141.093 97.0565 140.681 97.0523 139.927 97.5748C139.09 98.1549 138.434 98.0903 137.289 97.3147C136.823 96.9987 136.343 96.8397 135.89 96.8346ZM77.1494 98.0121C77.2699 98.0121 77.4153 98.2464 77.4725 98.533C78.1528 101.934 82.4961 110.213 86.1039 114.987C89.0416 118.874 89.9373 121.862 89.1573 125.171C88.944 126.076 89.4177 125.045 89.9634 123.416C91.2161 119.678 90.7316 115.464 88.5339 110.982C87.6021 109.082 88.0205 109.314 89.1647 111.332C91.8299 116.032 91.8646 122.115 89.2528 126.8C87.5598 129.837 87.2658 131.09 87.6976 133.426C87.9072 134.559 87.834 134.794 87.4579 134.196C86.5558 132.761 86.507 130.597 87.3309 128.566C88.6758 125.251 88.7696 124.93 88.859 123.343C89.0057 120.738 88.3318 118.893 85.92 115.299C84.5187 113.211 84.3191 113.051 85.1506 114.682C86.7464 117.814 86.4866 120.312 84.0253 125.506C83.2396 127.164 82.2983 129.392 81.9333 130.458C81.2567 132.434 81.0986 132.491 81.4262 130.643C81.7258 128.953 82.0717 128.017 83.5151 124.997C86.3996 118.961 86.2611 116.814 82.6128 111.017C81.1261 108.655 79.0211 104.414 78.2745 102.278C77.2901 99.4614 76.9081 98.0131 77.1495 98.0131L77.1494 98.0121ZM76.3325 98.1733C76.3391 98.1726 76.3431 98.1765 76.349 98.1862C76.5951 98.5902 77.0298 101.818 77.2397 104.802C77.3441 106.286 77.5459 108.401 77.6882 109.502C77.9314 111.384 78.1344 112.382 79.2816 117.336C80.392 122.132 79.9904 125.142 77.5066 130.64C75.1567 135.842 75.2096 137.757 77.7873 140.853C78.8708 142.155 78.7681 142.159 77.4532 140.864C74.7616 138.215 74.6251 135.771 76.8843 130.666C79.7544 124.18 79.897 122.421 78.1215 115.392C77.1744 111.642 76.8075 109.491 76.553 106.187C76.3003 102.913 76.1749 98.1929 76.3327 98.1725L76.3325 98.1733ZM70.0389 98.1862C70.9916 98.1862 67.5371 106.597 64.7835 110.982C61.0061 116.997 60.8992 119.055 64.0145 125.802C65.9143 129.915 66.1192 131.171 65.1998 133.063C64.7236 134.043 64.2257 134.22 64.6236 133.268C65.5038 131.162 65.2984 129.914 63.4095 125.898C60.9498 120.669 60.6327 118.358 61.9402 115.187C62.6691 113.419 62.649 113.427 61.3148 115.421C58.0226 120.343 57.6799 122.911 59.681 127.659C60.734 130.157 60.9437 131.646 60.4513 133.128C60.2933 133.603 59.9212 134.221 59.6249 134.5C59.086 135.007 59.086 135.006 59.4001 134.397C59.8677 133.49 59.9533 131.047 59.5596 129.847C59.1918 128.725 57.7495 125.794 57.6261 125.918C57.5781 125.966 57.8084 126.542 58.1377 127.198C58.7677 128.454 59.3166 130.502 59.2824 131.472C59.2712 131.788 59.2311 131.89 59.1936 131.699C59.1561 131.507 59.038 130.92 58.9317 130.393C58.8254 129.866 58.2866 128.3 57.7343 126.911C55.1744 120.475 55.5584 114.739 58.8586 110.114C59.8612 108.71 60.0005 108.66 59.2082 109.989C56.9323 113.809 56.024 118.95 57.0085 122.44C57.3577 123.677 58.4195 126.017 58.1683 124.996C57.4323 122.002 58.3567 118.843 61.0213 115.246C65.2117 109.59 68.0053 104.319 69.4861 99.2732C69.6726 98.6378 69.9027 98.1852 70.0391 98.1852L70.0389 98.1862ZM71.0814 98.1994C71.2468 98.0483 71.0016 106.735 70.7869 108.632C70.5439 110.778 69.9145 113.833 69.0652 116.988C67.7658 121.816 67.6706 123.447 68.4297 127.893C69.2712 132.821 68.8247 134.95 66.6605 136.322C65.6512 136.962 65.397 136.967 65.397 136.349C65.397 136.161 65.4549 136.144 65.6239 136.284C65.9475 136.553 66.8241 135.981 67.4832 135.071C68.6228 133.498 68.7782 131.765 68.0909 128.305C67.1332 123.483 67.172 121.82 68.3545 117.017C69.6428 111.784 69.9556 109.738 70.3536 103.932C70.599 100.351 70.8447 98.4157 71.0814 98.1994ZM18.2047 98.5677C17.712 98.5676 17.2109 98.7811 16.5038 99.2083C15.8493 99.6036 15.2473 99.927 15.1656 99.927C14.8461 99.927 13.3091 101.038 12.9703 101.513C12.5202 102.145 12.5851 102.142 13.6568 101.475C14.9615 100.665 20.2862 100.222 21.9559 100.786C23.0094 101.141 26.4574 101.325 25.6088 100.98C24.4337 100.503 21.8041 99.753 21.3049 99.753C20.9425 99.753 20.3826 99.5426 19.8558 99.2086C19.1819 98.7813 18.6974 98.5677 18.2047 98.5677ZM73.0413 100.999C73.0578 101.004 73.0755 101.051 73.0952 101.146C73.1631 101.482 73.2749 102.304 73.3431 102.974C73.4815 104.332 73.4532 104.398 73.904 101.669C74.0341 100.879 74.0658 101.206 74.0829 103.531C74.1165 108.111 74.6548 111.205 76.0116 114.619C76.6584 116.247 76.6706 116.389 76.0905 115.535C75.6846 114.938 75.0329 113.601 74.6022 112.482C74.097 111.168 74.3167 112.372 75.8232 119.165C77.0816 124.839 76.6851 129.834 74.4573 136.37C74.0712 137.503 73.7554 138.58 73.7554 138.764C73.7554 138.948 73.6895 139.098 73.6088 139.098C72.6906 139.098 72.4063 145.082 73.216 147.368C73.5213 148.229 73.816 149.111 73.8706 149.326C74.1829 150.556 72.8767 149.027 72.3249 147.517C71.4358 145.083 71.7685 142.375 73.6687 136.574C75.7853 130.112 76.1826 127.253 75.5722 122.878C75.3282 121.128 74.0941 115.876 73.8758 115.659C73.6278 115.411 73.5623 119.34 73.7605 122.569C74.2297 130.215 73.4652 133.613 70.6241 136.509C69.3654 137.793 69.3651 137.793 70.3363 136.586C73.0141 133.258 73.8455 129.085 73.1476 122.473C72.6994 118.226 72.6226 113.997 72.9487 111.523C73.1701 109.842 73.1881 109.02 73.0446 107.17C72.868 104.896 72.8829 100.957 73.0446 100.999L73.0413 100.999ZM21.1781 102.041C20.7775 102.047 20.3549 102.129 19.7313 102.274C18.8847 102.47 18.3761 102.49 17.5874 102.361C15.4107 102.005 14.4536 102.217 12.8968 103.4C12.1188 103.991 11.8546 104.037 10.1106 103.884C8.89172 103.777 8.89169 103.777 9.93647 104.006C11.5291 104.355 11.9947 104.328 12.6532 103.849C14.6973 102.362 14.4764 102.446 16.1946 102.511C18.7114 102.606 19.2661 102.6 20.5584 102.464C21.6372 102.35 21.9689 102.395 23.4428 102.855C24.3587 103.141 25.5733 103.421 26.1418 103.476C27.1755 103.576 27.1753 103.576 26.0435 103.33C25.421 103.194 24.2114 102.844 23.3554 102.55C22.3024 102.189 21.7636 102.033 21.1781 102.041ZM138.621 103.082C138.418 103.083 138.231 103.125 137.975 103.199C135.439 103.927 135.07 103.983 134.137 103.786C133.633 103.68 133.025 103.553 132.785 103.503C132.546 103.454 132.779 103.565 133.308 103.749C134.604 104.202 135.419 104.185 137.152 103.666C138.713 103.198 139.105 103.211 140.34 103.772C141.094 104.114 142.546 104.194 143.146 103.925C143.373 103.824 143.166 103.807 142.551 103.876C141.78 103.964 141.346 103.893 140.166 103.484C139.342 103.198 138.96 103.082 138.621 103.082ZM16.2487 103.206C15.0566 103.22 14.2266 103.644 12.8671 104.628C12.0251 105.237 12.0252 105.237 10.2341 105.193C8.73306 105.156 8.33285 105.205 7.76429 105.495C6.84028 105.966 6.67047 106.27 7.42317 106.105C8.36213 105.898 9.35462 105.989 10.2838 106.366C11.6121 106.905 12.6701 106.771 14.1504 105.877C16.0308 104.741 17.8202 104.57 21.4582 105.178C22.5258 105.357 23.0109 105.341 24.7973 105.067C26.8813 104.747 27.5094 104.77 29.6991 105.243C29.9385 105.295 29.759 105.177 29.2999 104.982C28.4185 104.607 24.665 104.097 22.0657 103.998C21.2672 103.968 19.8777 103.784 18.9779 103.589C17.8095 103.336 16.964 103.197 16.2487 103.206ZM124.675 103.256C124.309 103.265 123.971 103.367 123.589 103.559C123.234 103.737 122.512 104.024 121.985 104.197C121.189 104.457 118.313 106.062 117.728 106.572C117.465 106.801 117.625 106.782 123.934 105.845C125.774 105.572 130.758 105.633 132.084 105.946C134.015 106.401 135.201 106.436 136.713 106.083C137.739 105.844 138.705 105.767 140.486 105.783C141.803 105.795 142.88 105.736 142.88 105.652C142.88 105.567 142.665 105.497 142.402 105.496C142.138 105.495 141.257 105.183 140.443 104.802C138.696 103.984 138.595 103.977 136.836 104.538C135.063 105.104 134.466 105.087 133.023 104.428C131.731 103.839 131.216 103.788 128.863 104.014C127.585 104.137 127.381 104.11 126.387 103.691C125.666 103.387 125.147 103.244 124.675 103.256ZM25.7521 105.867C25.712 105.866 25.6735 105.867 25.6364 105.867C24.5595 105.888 24.5593 105.888 25.5171 106.04C26.0438 106.123 27.0233 106.344 27.6937 106.531C28.9272 106.874 30.2224 106.948 31.1763 106.73C31.5945 106.635 31.4384 106.584 30.3928 106.476C29.6745 106.402 28.5529 106.23 27.9001 106.094C27.2883 105.966 26.3545 105.869 25.7521 105.867ZM123.682 106.373C122.37 106.372 121.184 106.463 120.498 106.648C119.927 106.802 118.833 107.029 118.067 107.153C116.674 107.378 116.674 107.378 117.735 107.396C118.318 107.405 119.572 107.248 120.521 107.047C122.235 106.684 124.748 106.66 128.863 106.969C129.633 107.027 129.427 106.96 128.08 106.717C126.816 106.489 125.168 106.373 123.682 106.373ZM102.483 107.829C102.483 107.699 104.753 109.477 105.654 110.311C106.976 111.537 108.19 112.96 108.757 113.952C109.548 115.334 109.327 115.259 108.415 113.837C107.554 112.496 105.446 110.29 103.658 108.86C103.012 108.343 102.483 107.879 102.483 107.829ZM20.3811 108.458C20.3384 108.458 19.8914 108.62 19.3878 108.818C15.8013 110.232 11.3579 110.617 4.7055 110.091C2.41758 109.91 3.27751 110.135 6.70801 110.615C8.91774 110.924 10.8674 111.08 12.9158 111.111C16.8888 111.171 16.5927 112.096 12.5907 112.127C10.8002 112.141 10.8001 112.141 11.8449 112.369C12.4195 112.495 13.2815 112.723 13.7603 112.875C15.9757 113.58 17.487 112.82 19.3732 110.051C19.9704 109.175 20.4239 108.458 20.3811 108.458ZM43.9342 108.528C43.9684 108.548 43.5228 108.957 42.6374 109.696C41.9036 110.307 40.8262 111.366 40.2432 112.048C39.6601 112.729 38.8892 113.785 38.53 114.394C37.7277 115.753 37.6716 115.594 38.443 114.147C39.0747 112.962 41.4249 110.397 42.9646 109.212C43.5906 108.731 43.9076 108.512 43.9342 108.528ZM97.1505 110.154C97.2874 110.181 97.8032 110.629 98.4647 111.371C100.864 114.062 102.562 120.291 101.974 124.245C101.867 124.966 101.623 125.881 101.431 126.278C101.23 126.694 101.124 126.814 101.179 126.563C101.232 126.323 101.396 125.579 101.545 124.909C102.082 122.496 101.367 117.934 100.019 115.171C99.6734 114.464 99.6735 114.464 100.041 114.899C100.352 115.267 100.336 115.186 99.9402 114.377C99.36 113.19 98.6539 112.133 97.6279 110.914C97.1667 110.366 97.0441 110.132 97.1505 110.154ZM50.0594 110.186C50.0996 110.188 49.8574 110.509 49.3047 111.243C48.1653 112.757 47.167 114.579 47.0203 115.411C46.9644 115.73 46.8462 116.126 46.7584 116.29C45.7922 118.094 45.1962 123.483 45.7286 125.596C46.0253 126.774 45.7839 126.775 45.4415 125.597C44.2079 121.355 46.2545 113.793 49.468 110.72C49.8265 110.378 50.0282 110.185 50.0594 110.186ZM23.0893 110.777C23.0801 110.777 23.0755 110.779 23.0755 110.784C23.0755 110.996 24.1964 111.538 25.3392 111.879C26.0575 112.093 26.7627 112.27 26.9063 112.271C27.2911 112.275 26.2533 111.856 25.2722 111.612C24.8044 111.496 24.1188 111.246 23.7486 111.057C23.4246 110.892 23.1524 110.777 23.0893 110.777ZM67.1392 112.246C67.2024 112.279 66.9357 113.661 66.3137 116.379C65.985 117.815 65.5981 119.538 65.4536 120.209C65.3092 120.879 65.1242 122.328 65.0428 123.429C64.8947 125.431 64.8948 125.431 64.9435 122.733C64.9909 120.084 65.0102 119.965 65.9872 116.206C66.6834 113.528 67.0761 112.212 67.1392 112.246ZM80.3985 112.767C80.4498 112.714 80.8241 113.993 81.5004 116.627C81.9759 118.478 82.3438 120.377 82.4445 121.501C82.5356 122.521 82.546 123.809 82.4675 124.387C82.3274 125.417 82.3253 125.409 82.3016 123.778C82.272 121.77 82.1108 120.727 81.2357 116.901C80.6192 114.205 80.3472 112.82 80.3985 112.767ZM0.034409 112.871C-0.101297 112.878 0.154539 113.042 0.810233 113.324C1.62769 113.676 1.89056 113.701 3.6452 113.602C5.11796 113.519 5.76591 113.554 6.36263 113.749C6.79364 113.89 7.4596 114 7.8427 113.993C8.26699 113.986 8.36904 113.953 8.10388 113.909C7.86445 113.87 7.10108 113.635 6.40754 113.388C5.4058 113.031 4.97608 112.963 4.31795 113.056C2.16054 113.364 1.67291 113.369 0.860123 113.092C0.403447 112.936 0.127337 112.867 0.034409 112.871ZM96.2068 113.265C96.264 113.239 96.7915 113.811 97.6621 114.899C98.8426 116.374 99.5962 117.835 99.8792 119.197C100.137 120.44 100.017 120.93 99.7438 119.748C99.4269 118.377 98.3044 116.221 96.9873 114.453C96.4025 113.668 96.1624 113.285 96.2068 113.265ZM50.9019 113.524C50.9473 113.498 50.8085 113.681 50.5178 114.053C49.4101 115.47 48.1916 117.662 47.7426 119.043C47.5031 119.78 47.2719 120.539 47.2291 120.731C47.154 121.065 47.1506 121.065 47.1309 120.715C47.0409 119.094 48.5116 115.976 50.1826 114.245C50.6276 113.784 50.8567 113.55 50.9019 113.524ZM121.881 116.145C121.505 116.157 117.174 118.059 116.242 118.63C115.066 119.35 114.167 119.601 112.6 119.649C111.214 119.691 111.202 119.709 112.347 120.021C114.604 120.637 116.85 120.333 120.422 118.93C124.428 117.357 126.33 117.182 129.269 118.116C131.327 118.771 131.607 118.576 129.824 117.732C126.12 115.977 123.456 116.126 118.588 118.358C116.798 119.179 114.947 119.789 114.334 119.761C114.187 119.754 114.551 119.61 115.144 119.44C115.737 119.27 116.913 118.74 117.756 118.261C118.6 117.783 119.892 117.126 120.629 116.802C121.365 116.478 121.94 116.185 121.905 116.15C121.899 116.146 121.893 116.145 121.881 116.145ZM22.2995 116.543C21.8862 116.547 21.4606 116.591 20.9439 116.656C19.4489 116.844 18.4149 117.165 16.725 117.967C15.2819 118.651 15.9755 118.73 17.8902 118.099C20.6783 117.18 22.3665 117.364 27.0605 119.1C28.3393 119.573 29.6715 120.028 30.0208 120.11C30.984 120.338 33.1413 120.302 34.3125 120.038C35.4881 119.773 35.4064 119.757 32.5711 119.685C31.5998 119.661 31.0339 119.522 29.785 118.999C25.0888 117.034 23.7752 116.528 22.2995 116.543ZM26.1906 116.792C26.0638 116.795 26.4309 116.984 27.3469 117.34C27.9216 117.563 28.8204 117.987 29.3443 118.281C29.8681 118.575 30.691 118.989 31.1727 119.2C31.6544 119.412 32.2052 119.583 32.3967 119.58C32.6036 119.577 32.4768 119.476 32.0844 119.332C31.7212 119.199 31.2119 118.941 30.9526 118.759C30.1938 118.225 29.4255 117.872 27.6431 117.235C26.7991 116.933 26.3025 116.79 26.1906 116.792ZM129.899 120.238C129.119 120.238 128.383 120.437 127.602 120.84C126.527 121.393 125.027 122.843 125.903 122.481C127.684 121.746 130.283 121.472 131.563 121.884C131.898 121.992 133.347 122.09 134.784 122.102C137.235 122.122 137.455 122.152 138.353 122.588C139.495 123.141 139.446 123.125 139.309 122.904C139.087 122.544 137.526 121.889 136.432 121.696C135.813 121.587 134.853 121.418 134.299 121.322C133.746 121.225 132.766 120.947 132.123 120.702C131.307 120.393 130.586 120.238 129.899 120.238ZM17.2861 120.243C16.5476 120.254 15.7715 120.41 14.984 120.714C14.3137 120.974 12.9815 121.303 12.0238 121.446C9.45645 121.829 8.67971 122.09 7.60353 122.931C7.02642 123.381 7.19039 123.34 8.56542 122.689C9.74518 122.131 9.7944 122.123 12.4592 122.103C13.9436 122.092 15.432 121.994 15.7666 121.886C16.6176 121.61 18.6494 121.64 19.7797 121.945C21.7924 122.489 21.6767 122.511 20.9232 121.723C19.9691 120.724 18.696 120.221 17.2861 120.243ZM22.623 120.708C22.6144 120.708 22.6078 120.711 22.6038 120.714C22.5703 120.748 22.886 120.993 23.3054 121.258C24.1723 121.806 24.3489 122.665 23.6935 123.144C23.3861 123.369 23.4409 123.407 24.3809 123.617C25.1746 123.795 25.6148 124.031 26.3544 124.678C26.9718 125.219 27.5276 125.547 27.9362 125.614C28.2827 125.67 29.0277 125.946 29.5918 126.227C30.3993 126.628 30.8511 126.737 31.7147 126.737C33.1364 126.737 33.3029 126.464 31.9558 126.342C30.6741 126.226 29.8731 125.776 28.7882 124.564C28.2925 124.01 27.6697 123.527 27.2209 123.35C26.8114 123.187 26.2414 122.836 25.9542 122.569C25.463 122.112 22.8948 120.685 22.623 120.708ZM124.705 120.718C124.669 120.72 124.566 120.753 124.391 120.814C123.445 121.14 122.13 121.89 121.487 122.471C121.123 122.799 120.48 123.22 120.056 123.405C119.633 123.59 118.816 124.223 118.242 124.81C117.127 125.95 116.171 126.389 114.804 126.389C114.399 126.389 114.172 126.458 114.237 126.563C114.483 126.961 116.592 126.757 117.617 126.236C118.159 125.961 118.924 125.681 119.317 125.615C119.801 125.533 120.327 125.242 120.942 124.718C121.571 124.181 122.173 123.852 122.896 123.651C123.924 123.366 123.935 123.356 123.573 123.062C122.852 122.478 123.169 121.751 124.53 120.865C124.689 120.762 124.752 120.715 124.705 120.718ZM82.2442 125.793C82.2587 125.787 82.2672 125.812 82.2692 125.873C82.2771 126.115 81.9601 127.486 81.5649 128.919C81.1696 130.352 80.7386 131.914 80.6071 132.389C80.031 134.474 80.794 136.233 82.679 137.166C83.5811 137.612 83.1655 137.647 82.195 137.206C81.3507 136.822 80.3909 135.773 80.2527 135.082C80.0979 134.308 79.9188 134.605 79.6728 136.043C79.2691 138.403 79.7592 140.171 81.2716 141.811C82.0749 142.679 82.0759 142.759 81.2782 142.171C78.6754 140.251 78.6321 135.854 81.1518 129.331C81.4844 128.47 81.8691 127.241 82.007 126.599C82.1105 126.117 82.2035 125.813 82.2468 125.793L82.2442 125.793ZM20.0299 127.098C19.6337 127.113 22.2922 128.075 23.3408 128.296C24.2701 128.492 24.9114 128.365 25.9343 127.783C27.0285 127.161 26.5637 126.923 25.0902 127.351C24.1986 127.61 23.9635 127.611 22.247 127.359C21.2177 127.209 20.22 127.091 20.0299 127.098ZM126.838 127.112C126.525 127.114 125.831 127.203 124.741 127.376C122.971 127.657 122.834 127.655 121.847 127.357C121.063 127.119 120.731 127.089 120.484 127.233C120.284 127.349 120.248 127.424 120.391 127.428C120.52 127.43 120.856 127.598 121.139 127.798C121.421 127.999 121.864 128.228 122.123 128.307C122.812 128.518 123.938 128.327 125.813 127.682C126.936 127.295 127.294 127.11 126.838 127.112ZM56.4705 127.652C56.4797 127.673 56.4619 127.999 56.4251 128.652C56.3849 129.37 56.2374 130.271 56.0972 130.654C55.7936 131.484 55.7422 131.282 56.0108 130.315C56.1158 129.936 56.2686 129.114 56.35 128.487C56.424 127.916 56.4611 127.631 56.4705 127.652ZM90.8828 127.676C90.9019 127.716 90.9347 128.086 90.9993 128.826C91.0706 129.64 91.2557 130.651 91.4109 131.073C91.5662 131.495 91.6581 131.875 91.6159 131.917C91.4023 132.13 90.8209 129.558 90.844 128.503C90.8571 127.925 90.863 127.635 90.8828 127.676ZM107.715 128.714C107.406 128.714 107.124 128.76 106.856 128.849C106.141 129.087 106.141 129.087 107.578 129.087C108.846 129.087 109.189 129.162 110.495 129.723C112.468 130.571 112.694 130.538 110.855 129.669C109.477 129.018 108.506 128.715 107.715 128.714ZM39.5724 128.744C38.7612 128.738 37.604 129.097 36.2258 129.789C34.411 130.699 34.5607 130.693 36.6611 129.771C37.7392 129.298 38.4723 129.097 39.3602 129.032C40.3541 128.959 40.4863 128.918 40.0771 128.806C39.9282 128.766 39.7596 128.745 39.5724 128.744ZM39.757 130.059C38.979 130.071 38.1274 130.302 36.7744 130.758C35.6106 131.15 34.21 131.514 33.6618 131.565C33.1136 131.617 32.7065 131.727 32.7578 131.809C32.9211 132.073 34.4234 131.972 36.9751 131.524C39.7401 131.04 41.4365 130.984 43.0672 131.326C44.4689 131.62 44.278 131.457 42.2989 130.674C41.2397 130.254 40.5351 130.047 39.757 130.059ZM107.321 130.063C106.552 130.062 105.873 130.293 104.835 130.756C103.973 131.14 103.503 131.413 103.79 131.362C105.628 131.034 107.684 131.079 110.059 131.499C112.618 131.95 114.082 132.053 114.469 131.808C114.615 131.716 114.291 131.627 113.599 131.569C112.993 131.518 111.529 131.154 110.345 130.761C108.948 130.296 108.089 130.063 107.321 130.063ZM54.0878 130.268C54.2252 130.25 54.2429 130.426 54.2297 130.784C54.179 132.178 54.0765 132.296 53.2287 131.933C52.468 131.608 52.468 131.608 53.2287 130.921C53.6935 130.5 53.9504 130.287 54.0878 130.268ZM93.1958 130.387C93.3397 130.359 93.6014 130.534 94.01 130.888C94.8512 131.617 94.851 131.617 94.2331 131.876C93.37 132.236 93.2859 132.21 93.1615 131.547C93.02 130.793 93.0108 130.423 93.1958 130.387ZM46.4449 130.743C45.5373 130.745 44.6916 130.802 44.7611 130.915C44.8204 131.011 45.0796 131.097 45.3373 131.106C45.8054 131.124 45.8053 131.124 45.3702 131.256C45.1317 131.328 45.7585 131.349 46.7636 131.302C48.7042 131.211 48.9066 131.165 48.4998 130.908C48.3221 130.796 47.3526 130.741 46.4449 130.743ZM100.233 130.765C98.5517 130.776 98.1416 131.082 99.7996 131.277C100.271 131.333 100.774 131.358 100.918 131.333C101.061 131.309 101.512 131.237 101.918 131.174C103.234 130.969 102.843 130.829 100.795 130.772C100.595 130.766 100.407 130.764 100.233 130.765ZM41.8677 131.994C41.763 132.004 42.1511 132.2 43.02 132.583C44.2942 133.145 46.1985 133.745 47.2862 133.928C48.1896 134.08 48.6228 134.04 48.9505 133.776C49.2648 133.523 49.2251 133.511 48.3837 133.607C47.4556 133.712 45.758 133.406 46.0125 133.178C46.2128 132.999 47.6953 132.656 48.2687 132.656C48.6213 132.656 48.6974 132.604 48.555 132.462C48.3077 132.215 47.2644 132.348 46.2053 132.762C45.3857 133.083 45.3858 133.083 43.6716 132.521C42.5697 132.16 41.9723 131.984 41.8677 131.994ZM105.324 132.044C105.232 132.038 104.749 132.181 103.871 132.487C102.124 133.095 101.729 133.116 100.657 132.656C99.8047 132.291 98.5528 132.177 98.7412 132.482C98.8004 132.578 99.0596 132.662 99.3173 132.669C99.575 132.677 100.173 132.819 100.647 132.986C101.689 133.352 101.477 133.484 99.5863 133.643C98.8821 133.703 98.3059 133.818 98.3059 133.9C98.3059 134.396 101.362 133.772 103.753 132.787C104.915 132.309 105.442 132.052 105.324 132.044ZM85.478 133.634C85.526 133.614 85.4483 133.734 85.2786 133.982C85.0739 134.281 84.8177 134.751 84.7093 135.027C84.6009 135.303 84.4519 135.92 84.3784 136.399C84.2789 137.046 84.2394 137.127 84.2229 136.716C84.1966 136.049 83.7102 135.461 83.4822 135.82C83.3695 135.998 83.3333 135.984 83.3333 135.76C83.3333 135.601 83.2779 135.332 83.2131 135.164C83.0933 134.852 83.0941 134.852 83.9835 135.216C84.1032 135.265 84.2011 135.195 84.2011 135.06C84.2011 134.926 84.5273 134.506 84.9259 134.128C85.2569 133.813 85.43 133.653 85.478 133.634ZM62.4402 133.882C62.5119 133.901 62.8226 134.129 63.3485 134.552C64.8421 135.754 64.9691 135.923 65.1211 136.925C65.2126 137.527 65.1996 137.566 65.0229 137.226C64.7585 136.717 64.2827 136.727 63.8838 137.251C63.7093 137.48 63.4657 137.813 63.3424 137.991C63.2188 138.169 63.1754 138.199 63.2451 138.059C63.8174 136.909 63.5088 135.077 62.5748 134.08C62.4403 133.936 62.3971 133.872 62.4402 133.882Z" fill="#2F325C"/>
<path d="M9.74028 97.2036C9.37712 97.0571 9.49589 96.4969 9.96185 96.1583C10.4011 95.8391 10.4012 95.8391 9.27215 95.8972C8.32418 95.946 8.00935 95.8836 7.30917 95.5085C5.59435 94.5899 2.62924 93.7044 3.47158 94.3625C4.53236 95.1913 2.00985 96.4812 0.210987 96.0298C-0.994179 95.7274 -1.85804 94.3981 -0.782794 94.5006C0.398678 94.6133 1.28559 94.2457 2.31432 93.2172C3.42734 92.1044 3.67586 92.0684 4.64693 92.8796C5.62056 93.6928 5.83129 93.661 7.49997 92.4489C8.28742 91.8769 9.5936 91.0997 10.4025 90.7217C11.2115 90.3437 12.2541 89.7149 12.7195 89.3244C13.7202 88.4846 13.8355 88.4633 13.9762 89.0931C14.4999 91.4365 14.7431 91.9379 15.1803 91.5751C15.3804 91.4091 15.5374 91.5961 16.0455 92.6047C16.7529 94.0092 16.8566 94.0682 17.1572 93.237C17.4859 92.3283 17.9586 92.2797 18.7694 93.0712C19.1423 93.4352 19.9764 94.011 20.623 94.3509C21.848 94.9946 22.5823 95.9577 22.5823 96.9206C22.5823 97.7499 19.2412 97.3785 17.7817 96.387C17.4087 96.1335 16.9013 95.9262 16.6543 95.9262C15.9074 95.9262 13.6447 95.2704 12.4629 94.7115C11.2815 94.1527 10.5087 93.996 11.2722 94.47C12.0839 94.974 12.8713 96.2894 12.5644 96.6286C12.1027 97.1386 10.4257 97.4801 9.74028 97.2036Z" fill="#2F325C"/>
</g>
<defs>
<clipPath id="clip0_228_247">
<rect width="148" height="150" fill="white"/>
</clipPath>
</defs>
</svg>
