<svg width="104" height="15" viewBox="0 0 104 15" fill="none" xmlns="http://www.w3.org/2000/svg">
<path d="M1.098 13.594C0.882 13.474 0.762 13.342 0.738 13.198C0.726 13.054 0.81 12.802 0.99 12.442C1.17 12.082 1.452 11.524 1.836 10.768C2.124 10.228 2.316 9.808 2.412 9.508C2.52 9.196 2.58 8.974 2.592 8.842C2.604 8.71 2.61 8.626 2.61 8.59C2.586 8.482 2.598 8.398 2.646 8.338C2.694 8.266 2.772 8.206 2.88 8.158C2.94 8.098 3.078 7.99 3.294 7.834C3.51 7.678 3.678 7.492 3.798 7.276C3.906 7.024 4.026 6.766 4.158 6.502C4.302 6.238 4.488 5.908 4.716 5.512C4.944 5.104 5.25 4.576 5.634 3.928C5.874 3.508 6.156 3.034 6.48 2.506C6.816 1.978 7.146 1.498 7.47 1.066C7.602 0.897999 7.74 0.765999 7.884 0.669999C8.028 0.573999 8.154 0.526 8.262 0.526C8.526 0.526 8.79 0.597999 9.054 0.741999C9.318 0.873999 9.552 1.042 9.756 1.246C9.96 1.45 10.098 1.642 10.17 1.822C10.23 1.918 10.254 2.122 10.242 2.434C10.23 2.746 10.206 3.124 10.17 3.568C10.134 4.012 10.092 4.486 10.044 4.99C10.008 5.482 9.954 6.064 9.882 6.736C9.81 7.408 9.738 8.11 9.666 8.842C9.606 9.574 9.558 10.282 9.522 10.966C9.486 11.638 9.486 12.226 9.522 12.73C9.534 12.838 9.534 12.94 9.522 13.036C9.51 13.132 9.504 13.21 9.504 13.27C9.432 13.342 9.276 13.372 9.036 13.36C8.796 13.36 8.562 13.324 8.334 13.252C8.106 13.18 7.98 13.09 7.956 12.982C7.92 12.946 7.896 12.916 7.884 12.892C7.872 12.868 7.872 12.754 7.884 12.55C7.896 12.334 7.914 11.944 7.938 11.38L8.028 8.626L7.794 8.644C7.686 8.644 7.488 8.656 7.2 8.68C6.924 8.704 6.618 8.74 6.282 8.788C5.958 8.824 5.658 8.866 5.382 8.914C5.106 8.95 4.914 8.986 4.806 9.022C4.698 9.022 4.566 9.094 4.41 9.238C4.266 9.382 4.128 9.568 3.996 9.796C3.948 9.964 3.858 10.144 3.726 10.336C3.606 10.516 3.546 10.636 3.546 10.696C3.462 10.756 3.39 10.828 3.33 10.912C3.282 10.996 3.258 11.038 3.258 11.038C3.258 11.11 3.204 11.29 3.096 11.578C2.988 11.854 2.856 12.166 2.7 12.514C2.544 12.85 2.382 13.144 2.214 13.396L1.728 14.08L1.098 13.594ZM5.4 7.402C5.4 7.402 5.466 7.39 5.598 7.366C5.73 7.342 5.886 7.318 6.066 7.294C6.258 7.258 6.426 7.24 6.57 7.24C6.846 7.168 7.074 7.114 7.254 7.078C7.446 7.042 7.602 7.024 7.722 7.024C7.842 7.012 7.938 7.024 8.01 7.06C8.058 7.12 8.1 7.156 8.136 7.168C8.184 7.18 8.208 7.186 8.208 7.186C8.22 7.162 8.244 7.036 8.28 6.808C8.316 6.58 8.358 6.298 8.406 5.962C8.454 5.626 8.502 5.278 8.55 4.918C8.598 4.546 8.64 4.204 8.676 3.892C8.712 3.568 8.736 3.316 8.748 3.136C8.76 2.908 8.754 2.704 8.73 2.524C8.706 2.332 8.694 2.236 8.694 2.236C8.622 2.236 8.484 2.368 8.28 2.632C8.088 2.884 7.86 3.226 7.596 3.658C7.344 4.078 7.092 4.534 6.84 5.026C6.72 5.254 6.606 5.434 6.498 5.566C6.402 5.698 6.324 5.764 6.264 5.764C6.24 5.788 6.174 5.884 6.066 6.052C5.97 6.208 5.862 6.388 5.742 6.592C5.634 6.784 5.538 6.964 5.454 7.132C5.382 7.288 5.364 7.378 5.4 7.402ZM10.7996 12.514C10.6916 12.43 10.5716 12.322 10.4396 12.19C10.3196 12.058 10.2776 11.872 10.3136 11.632C10.3496 11.296 10.3976 11.002 10.4576 10.75C10.5176 10.486 10.5896 10.186 10.6736 9.85C10.6976 9.706 10.7576 9.46 10.8536 9.112C10.9616 8.764 11.0876 8.386 11.2316 7.978C11.3756 7.57 11.5256 7.186 11.6816 6.826C11.8376 6.454 11.9756 6.178 12.0956 5.998C12.2276 5.878 12.4196 5.818 12.6716 5.818C12.9356 5.818 13.1156 5.866 13.2116 5.962C13.3436 6.07 13.3856 6.262 13.3376 6.538C13.2896 6.802 13.1216 7.216 12.8336 7.78C12.7736 7.924 12.6956 8.08 12.5996 8.248C12.5156 8.404 12.4556 8.536 12.4196 8.644C12.3836 8.74 12.3956 8.782 12.4556 8.77C12.5276 8.638 12.6596 8.488 12.8516 8.32C13.0436 8.14 13.2476 7.966 13.4636 7.798C13.6796 7.63 13.8836 7.48 14.0756 7.348C14.2676 7.216 14.3996 7.132 14.4716 7.096C14.5676 7.036 14.6756 6.988 14.7956 6.952C14.9276 6.904 15.0176 6.868 15.0656 6.844C15.3416 6.712 15.6416 6.664 15.9656 6.7C16.3016 6.724 16.5056 6.826 16.5776 7.006C16.5896 7.102 16.6256 7.174 16.6856 7.222C16.7576 7.27 16.7936 7.294 16.7936 7.294C16.8416 7.294 16.8656 7.312 16.8656 7.348C16.8776 7.384 16.8836 7.402 16.8836 7.402C16.8836 7.486 16.7996 7.606 16.6316 7.762C16.4756 7.918 16.3016 8.002 16.1096 8.014C15.9536 8.026 15.8156 8.056 15.6956 8.104C15.5756 8.152 15.4316 8.212 15.2636 8.284C14.8076 8.548 14.3936 8.782 14.0216 8.986C13.6616 9.19 13.2896 9.502 12.9056 9.922C12.8216 10.018 12.7316 10.108 12.6356 10.192C12.5396 10.276 12.4436 10.396 12.3476 10.552C12.2876 10.612 12.2276 10.744 12.1676 10.948C12.1076 11.152 12.0536 11.35 12.0056 11.542C11.9696 11.722 11.9516 11.83 11.9516 11.866C11.9516 11.866 11.9336 11.926 11.8976 12.046C11.8616 12.154 11.8016 12.262 11.7176 12.37C11.5736 12.562 11.4296 12.682 11.2856 12.73C11.1536 12.778 10.9916 12.706 10.7996 12.514ZM18.9239 13.108C18.7559 13.06 18.5879 12.976 18.4199 12.856C18.2519 12.736 18.0779 12.598 17.8979 12.442C17.7539 12.25 17.6519 12.076 17.5919 11.92C17.5319 11.752 17.4959 11.56 17.4839 11.344C17.4839 11.116 17.4839 10.828 17.4839 10.48C17.4839 10.336 17.5079 10.132 17.5559 9.868C17.6159 9.604 17.6759 9.328 17.7359 9.04C17.8079 8.752 17.8739 8.5 17.9339 8.284C17.9939 8.056 18.0299 7.906 18.0419 7.834C18.0779 7.678 18.0179 7.588 17.8619 7.564C17.7059 7.54 17.5319 7.534 17.3399 7.546C17.1599 7.546 17.0399 7.528 16.9799 7.492C16.9319 7.48 16.9079 7.42 16.9079 7.312C16.9079 7.192 16.9079 7.132 16.9079 7.132C16.9079 7.084 16.8839 7.054 16.8359 7.042C16.7879 7.018 16.7459 6.976 16.7099 6.916C16.6859 6.868 16.7159 6.778 16.7999 6.646C16.8839 6.514 16.9919 6.436 17.1239 6.412C17.2319 6.388 17.3939 6.37 17.6099 6.358C17.8259 6.334 18.0419 6.292 18.2579 6.232C18.4859 6.16 18.6599 6.052 18.7799 5.908C18.8879 5.644 19.0079 5.362 19.1399 5.062C19.2719 4.75 19.3979 4.48 19.5179 4.252C19.6379 4.012 19.7219 3.862 19.7699 3.802C19.9739 3.694 20.1839 3.652 20.3999 3.676C20.6159 3.688 20.7839 3.79 20.9039 3.982C20.9639 4.066 21.0119 4.126 21.0479 4.162C21.0959 4.198 21.1139 4.252 21.1019 4.324C21.1019 4.396 21.0539 4.528 20.9579 4.72C20.8739 4.9 20.7299 5.182 20.5259 5.566C20.4659 5.686 20.4119 5.794 20.3639 5.89C20.3159 5.974 20.2919 6.016 20.2919 6.016C20.3399 6.028 20.4119 6.034 20.5079 6.034C20.6039 6.034 20.7239 6.028 20.8679 6.016C20.9999 5.992 21.1439 5.974 21.2999 5.962C21.4559 5.938 21.5939 5.938 21.7139 5.962C21.9899 5.962 22.1939 6.04 22.3259 6.196C22.4579 6.352 22.5299 6.55 22.5419 6.79C22.5659 6.922 22.5179 7.036 22.3979 7.132C22.2779 7.228 22.0559 7.276 21.7319 7.276C21.6239 7.276 21.4679 7.282 21.2639 7.294C21.0599 7.306 20.8499 7.318 20.6339 7.33C20.4179 7.342 20.2319 7.36 20.0759 7.384C19.9319 7.396 19.8599 7.414 19.8599 7.438C19.8239 7.462 19.7639 7.558 19.6799 7.726C19.6079 7.882 19.5299 8.074 19.4459 8.302C19.3739 8.53 19.3079 8.746 19.2479 8.95C19.1639 9.358 19.1039 9.754 19.0679 10.138C19.0319 10.522 19.0259 10.858 19.0499 11.146C19.0859 11.422 19.1579 11.62 19.2659 11.74C19.3739 11.848 19.5359 11.848 19.7519 11.74C19.9799 11.62 20.1899 11.482 20.3819 11.326C20.5979 11.146 20.7839 11.092 20.9399 11.164C21.0959 11.224 21.1919 11.356 21.2279 11.56C21.2759 11.752 21.2219 11.962 21.0659 12.19C20.9219 12.418 20.7179 12.61 20.4539 12.766C20.1899 12.922 19.9199 13.03 19.6439 13.09C19.3679 13.162 19.1279 13.168 18.9239 13.108ZM27.5109 12.748C27.4149 12.76 27.2409 12.706 26.9889 12.586C26.7489 12.466 26.5569 12.328 26.4129 12.172C26.3049 12.004 26.2149 11.8 26.1429 11.56C26.0829 11.32 26.0409 10.996 26.0169 10.588C25.6689 11.116 25.3689 11.512 25.1169 11.776C24.8649 12.04 24.6369 12.232 24.4329 12.352C24.2409 12.46 24.0489 12.544 23.8569 12.604C23.7489 12.64 23.6049 12.592 23.4249 12.46C23.2449 12.328 23.1309 12.22 23.0829 12.136C23.0349 12.052 22.9809 11.92 22.9209 11.74C22.8729 11.548 22.8549 11.35 22.8669 11.146C22.8429 10.894 22.8189 10.606 22.7949 10.282C22.7829 9.958 22.7709 9.64 22.7589 9.328C22.7589 9.004 22.7649 8.716 22.7769 8.464C22.7889 8.212 22.8129 8.044 22.8489 7.96C22.8369 7.912 22.8309 7.864 22.8309 7.816C22.8309 7.768 22.8309 7.744 22.8309 7.744C22.7949 7.684 22.7769 7.552 22.7769 7.348C22.7769 7.132 22.7889 6.922 22.8129 6.718C22.8489 6.514 22.8729 6.388 22.8849 6.34C22.9089 6.292 23.0049 6.232 23.1729 6.16C23.3529 6.076 23.4729 6.028 23.5329 6.016C23.7129 6.052 23.8089 6.124 23.8209 6.232C23.8569 6.256 23.8929 6.292 23.9289 6.34C23.9649 6.376 24.0069 6.388 24.0549 6.376C24.0909 6.4 24.1389 6.538 24.1989 6.79C24.2709 7.03 24.3069 7.276 24.3069 7.528C24.2949 7.648 24.2949 7.762 24.3069 7.87C24.3189 7.978 24.3129 8.074 24.2889 8.158C24.2889 8.218 24.2949 8.35 24.3069 8.554C24.3189 8.746 24.3309 8.944 24.3429 9.148C24.3429 9.304 24.3369 9.466 24.3249 9.634C24.3129 9.802 24.3069 9.97 24.3069 10.138C24.3429 10.378 24.3489 10.534 24.3249 10.606C24.3009 10.666 24.3249 10.672 24.3969 10.624C24.4689 10.6 24.5709 10.492 24.7029 10.3C24.8349 10.096 25.0269 9.778 25.2789 9.346C25.4709 9.058 25.6149 8.812 25.7109 8.608C25.8189 8.392 25.9209 8.224 26.0169 8.104C26.0529 7.816 26.0889 7.558 26.1249 7.33C26.1729 7.102 26.2029 6.94 26.2149 6.844C26.3829 6.676 26.5749 6.556 26.7909 6.484C27.0189 6.412 27.1749 6.46 27.2589 6.628C27.3789 6.676 27.4989 6.772 27.6189 6.916C27.7389 7.06 27.7869 7.198 27.7629 7.33C27.7149 7.498 27.6669 7.66 27.6189 7.816C27.5829 7.972 27.5409 8.134 27.4929 8.302C27.4449 8.47 27.4029 8.704 27.3669 9.004C27.3309 9.304 27.3069 9.604 27.2949 9.904C27.2949 10.192 27.3189 10.426 27.3669 10.606C27.3789 10.714 27.4149 10.786 27.4749 10.822C27.5349 10.846 27.6549 10.78 27.8349 10.624C28.0149 10.432 28.1889 10.216 28.3569 9.976C28.5249 9.736 28.6629 9.52 28.7709 9.328C28.8909 9.124 28.9509 8.992 28.9509 8.932C28.9509 8.836 28.9749 8.734 29.0229 8.626C29.0709 8.506 29.1309 8.416 29.2029 8.356C29.2629 8.284 29.2989 8.212 29.3109 8.14C29.3229 8.056 29.3469 7.972 29.3829 7.888C29.3949 7.864 29.4129 7.828 29.4369 7.78C29.4609 7.732 29.4789 7.684 29.4909 7.636C29.4549 7.552 29.4789 7.48 29.5629 7.42C29.6589 7.348 29.7189 7.276 29.7429 7.204C29.7669 7.048 29.8689 6.928 30.0489 6.844C30.2409 6.76 30.4269 6.748 30.6069 6.808C30.7989 6.868 30.9009 7.048 30.9129 7.348C30.9129 7.492 30.8889 7.702 30.8409 7.978C30.7929 8.254 30.7149 8.548 30.6069 8.86C30.4989 9.172 30.3549 9.454 30.1749 9.706C30.1269 9.802 30.0789 9.898 30.0309 9.994C29.9949 10.09 29.9289 10.216 29.8329 10.372C29.7369 10.528 29.5689 10.756 29.3289 11.056C29.2569 11.152 29.1729 11.254 29.0769 11.362C28.9929 11.458 28.9029 11.548 28.8069 11.632C28.6029 11.896 28.3749 12.148 28.1229 12.388C27.8829 12.616 27.6789 12.736 27.5109 12.748ZM32.3457 12.874C32.1897 12.874 32.0637 12.844 31.9677 12.784C31.8837 12.724 31.7757 12.64 31.6437 12.532C31.4157 12.292 31.2297 12.034 31.0857 11.758C30.9537 11.482 30.9057 11.242 30.9417 11.038C30.9777 10.942 30.9897 10.852 30.9777 10.768C30.9777 10.672 30.9777 10.624 30.9777 10.624C30.9177 10.564 30.8997 10.528 30.9237 10.516C30.9477 10.492 30.9717 10.456 30.9957 10.408C31.0677 10.408 31.0917 10.342 31.0677 10.21C31.0437 10.114 31.0797 9.91 31.1757 9.598C31.2837 9.274 31.4277 8.968 31.6077 8.68C31.6797 8.56 31.7877 8.404 31.9317 8.212C32.0757 8.008 32.2317 7.81 32.3997 7.618C32.5797 7.414 32.7417 7.252 32.8857 7.132C33.1857 6.88 33.4617 6.676 33.7137 6.52C33.9777 6.364 34.2417 6.256 34.5057 6.196C34.7697 6.136 35.0397 6.106 35.3157 6.106C35.6037 6.106 35.8377 6.202 36.0177 6.394C36.2937 6.514 36.4857 6.676 36.5937 6.88C36.7137 7.084 36.7917 7.348 36.8277 7.672C36.8637 8.032 36.8277 8.476 36.7197 9.004C36.6117 9.52 36.3177 10.12 35.8377 10.804C35.5377 11.236 35.2437 11.572 34.9557 11.812C34.6677 12.052 34.3497 12.274 34.0017 12.478C33.7497 12.646 33.4797 12.748 33.1917 12.784C32.9037 12.82 32.6217 12.85 32.3457 12.874ZM34.1817 10.678C34.4457 10.45 34.6317 10.198 34.7397 9.922C34.8597 9.646 34.9857 9.322 35.1177 8.95C35.1657 8.878 35.1957 8.758 35.2077 8.59C35.2317 8.422 35.2377 8.26 35.2257 8.104C35.2137 7.936 35.1717 7.84 35.0997 7.816C34.9917 7.732 34.8837 7.714 34.7757 7.762C34.6677 7.798 34.5297 7.876 34.3617 7.996C34.0017 8.296 33.6657 8.644 33.3537 9.04C33.0537 9.424 32.8437 9.898 32.7237 10.462C32.6877 10.762 32.7177 10.99 32.8137 11.146C32.9217 11.29 33.0897 11.332 33.3177 11.272C33.5577 11.2 33.8457 11.002 34.1817 10.678ZM37.6252 12.514C37.5172 12.43 37.3972 12.322 37.2652 12.19C37.1452 12.058 37.1032 11.872 37.1392 11.632C37.1752 11.296 37.2232 11.002 37.2832 10.75C37.3432 10.486 37.4152 10.186 37.4992 9.85C37.5232 9.706 37.5832 9.46 37.6792 9.112C37.7872 8.764 37.9132 8.386 38.0572 7.978C38.2012 7.57 38.3512 7.186 38.5072 6.826C38.6632 6.454 38.8012 6.178 38.9212 5.998C39.0532 5.878 39.2452 5.818 39.4972 5.818C39.7612 5.818 39.9412 5.866 40.0372 5.962C40.1692 6.07 40.2112 6.262 40.1632 6.538C40.1152 6.802 39.9472 7.216 39.6592 7.78C39.5992 7.924 39.5212 8.08 39.4252 8.248C39.3412 8.404 39.2812 8.536 39.2452 8.644C39.2092 8.74 39.2212 8.782 39.2812 8.77C39.3532 8.638 39.4852 8.488 39.6772 8.32C39.8692 8.14 40.0732 7.966 40.2892 7.798C40.5052 7.63 40.7092 7.48 40.9012 7.348C41.0932 7.216 41.2252 7.132 41.2972 7.096C41.3932 7.036 41.5012 6.988 41.6212 6.952C41.7532 6.904 41.8432 6.868 41.8912 6.844C42.1672 6.712 42.4672 6.664 42.7912 6.7C43.1272 6.724 43.3312 6.826 43.4032 7.006C43.4152 7.102 43.4512 7.174 43.5112 7.222C43.5832 7.27 43.6192 7.294 43.6192 7.294C43.6672 7.294 43.6912 7.312 43.6912 7.348C43.7032 7.384 43.7092 7.402 43.7092 7.402C43.7092 7.486 43.6252 7.606 43.4572 7.762C43.3012 7.918 43.1272 8.002 42.9352 8.014C42.7792 8.026 42.6412 8.056 42.5212 8.104C42.4012 8.152 42.2572 8.212 42.0892 8.284C41.6332 8.548 41.2192 8.782 40.8472 8.986C40.4872 9.19 40.1152 9.502 39.7312 9.922C39.6472 10.018 39.5572 10.108 39.4612 10.192C39.3652 10.276 39.2692 10.396 39.1732 10.552C39.1132 10.612 39.0532 10.744 38.9932 10.948C38.9332 11.152 38.8792 11.35 38.8312 11.542C38.7952 11.722 38.7772 11.83 38.7772 11.866C38.7772 11.866 38.7592 11.926 38.7232 12.046C38.6872 12.154 38.6272 12.262 38.5432 12.37C38.3992 12.562 38.2552 12.682 38.1112 12.73C37.9792 12.778 37.8172 12.706 37.6252 12.514ZM43.8775 12.874C43.6975 12.814 43.5355 12.718 43.3915 12.586C43.2595 12.454 43.2055 12.238 43.2295 11.938C43.2535 11.758 43.2895 11.572 43.3375 11.38C43.3855 11.176 43.4455 10.978 43.5175 10.786C43.5535 10.57 43.5955 10.354 43.6435 10.138C43.7035 9.922 43.7995 9.718 43.9315 9.526C44.0875 9.082 44.2495 8.644 44.4175 8.212C44.5855 7.768 44.7295 7.306 44.8495 6.826C45.0295 6.394 45.1915 6.01 45.3355 5.674C45.4915 5.338 45.6775 4.906 45.8935 4.378C46.0135 4.102 46.1155 3.796 46.1995 3.46C46.2955 3.112 46.4395 2.806 46.6315 2.542C46.7155 2.434 46.7755 2.344 46.8115 2.272C46.8595 2.188 46.9075 2.11 46.9555 2.038C47.0395 1.87 47.1655 1.792 47.3335 1.804C47.5135 1.816 47.6335 1.864 47.6935 1.948C47.8975 2.032 48.0415 2.188 48.1255 2.416C48.2095 2.632 48.2395 2.788 48.2155 2.884C48.2155 3.016 48.1675 3.16 48.0715 3.316C48.0235 3.364 47.9755 3.436 47.9275 3.532C47.8795 3.616 47.8075 3.73 47.7115 3.874C47.6635 4.03 47.6155 4.186 47.5675 4.342C47.5195 4.498 47.4655 4.642 47.4055 4.774C47.3455 4.906 47.2795 5.038 47.2075 5.17C47.1355 5.302 47.0875 5.41 47.0635 5.494C46.9555 5.77 46.8355 6.04 46.7035 6.304C46.5835 6.556 46.4755 6.826 46.3795 7.114C46.2835 7.39 46.1815 7.684 46.0735 7.996C45.9655 8.296 45.8275 8.584 45.6595 8.86C45.5755 8.98 45.5275 9.142 45.5155 9.346C45.5155 9.55 45.4915 9.748 45.4435 9.94C45.3595 10.156 45.2815 10.354 45.2095 10.534C45.1495 10.714 45.1195 10.828 45.1195 10.876C45.0355 11.14 44.9695 11.404 44.9215 11.668C44.8735 11.92 44.7955 12.142 44.6875 12.334C44.6875 12.622 44.6095 12.802 44.4535 12.874C44.2975 12.946 44.1055 12.946 43.8775 12.874ZM47.9995 13.036C47.8075 13.012 47.6635 12.976 47.5675 12.928C47.4715 12.868 47.2915 12.742 47.0275 12.55C46.8835 12.406 46.7035 12.184 46.4875 11.884C46.2715 11.584 46.0555 11.266 45.8395 10.93C45.6235 10.582 45.4315 10.288 45.2635 10.048L46.2535 8.788C46.4095 8.98 46.5355 9.16 46.6315 9.328C46.7275 9.496 46.8055 9.61 46.8655 9.67C47.1415 10.078 47.3575 10.408 47.5135 10.66C47.6695 10.912 47.8015 11.116 47.9095 11.272C48.0295 11.428 48.1615 11.566 48.3055 11.686C48.4495 11.806 48.6355 11.932 48.8635 12.064C48.8995 12.088 48.9355 12.148 48.9715 12.244C49.0075 12.328 49.0195 12.418 49.0075 12.514C48.9835 12.658 48.8935 12.778 48.7375 12.874C48.5935 12.958 48.3475 13.012 47.9995 13.036ZM45.3895 9.706C45.3175 9.502 45.2995 9.274 45.3355 9.022C45.3835 8.758 45.4855 8.584 45.6415 8.5C45.6895 8.416 45.7375 8.362 45.7855 8.338C45.8455 8.302 45.8815 8.26 45.8935 8.212C45.9175 8.164 45.9775 8.098 46.0735 8.014C46.1815 7.93 46.2775 7.852 46.3615 7.78C46.5535 7.66 46.7635 7.516 46.9915 7.348C47.2315 7.168 47.4595 6.988 47.6755 6.808C47.9035 6.628 48.0895 6.472 48.2335 6.34C48.3895 6.208 48.4855 6.124 48.5215 6.088C48.5575 6.04 48.6295 6.01 48.7375 5.998C48.8575 5.986 48.9715 6.004 49.0795 6.052C49.2235 6.088 49.3375 6.166 49.4215 6.286C49.5175 6.406 49.5655 6.574 49.5655 6.79C49.6015 6.922 49.5235 7.084 49.3315 7.276C49.1515 7.456 48.9235 7.636 48.6475 7.816C48.5515 7.876 48.4195 7.966 48.2515 8.086C48.0955 8.206 47.9575 8.32 47.8375 8.428C47.7535 8.476 47.6275 8.56 47.4595 8.68C47.3035 8.788 47.1655 8.896 47.0455 9.004C46.9495 9.064 46.8355 9.172 46.7035 9.328C46.5835 9.472 46.4455 9.58 46.2895 9.652C45.9055 10.012 45.6715 10.186 45.5875 10.174C45.5155 10.162 45.4495 10.006 45.3895 9.706Z" fill="#EF4344"/>
<path d="M64.1313 13.864C64.0833 13.912 63.9693 13.924 63.7893 13.9C63.6093 13.888 63.4653 13.804 63.3573 13.648C63.2733 13.48 63.2253 13.288 63.2133 13.072C63.2013 12.856 63.2013 12.556 63.2133 12.172C63.2853 11.752 63.4053 11.2 63.5733 10.516C63.7413 9.832 63.9273 9.07 64.1313 8.23C64.3473 7.378 64.5633 6.508 64.7793 5.62C64.8873 5.2 64.9713 4.846 65.0313 4.558C65.1033 4.27 65.1513 4.054 65.1753 3.91C65.2113 3.754 65.2293 3.676 65.2293 3.676C65.2173 3.7 65.1993 3.724 65.1753 3.748C65.1633 3.772 65.1513 3.796 65.1393 3.82C65.1273 3.844 65.1153 3.868 65.1033 3.892C65.1033 3.892 65.0793 3.934 65.0313 4.018C64.9953 4.102 64.9113 4.246 64.7793 4.45C64.6833 4.594 64.5933 4.762 64.5093 4.954C64.4253 5.146 64.2813 5.398 64.0773 5.71C63.8853 6.07 63.6693 6.484 63.4293 6.952C63.1893 7.42 62.9853 7.792 62.8173 8.068C62.7333 8.2 62.6553 8.314 62.5833 8.41C62.5233 8.506 62.4813 8.584 62.4573 8.644C62.4093 8.776 62.3313 8.938 62.2233 9.13C62.1153 9.322 61.9893 9.508 61.8453 9.688C61.7733 9.796 61.6773 9.922 61.5573 10.066C61.4493 10.21 61.3533 10.342 61.2693 10.462C61.1853 10.57 61.1433 10.624 61.1433 10.624C61.1193 10.696 61.0413 10.81 60.9093 10.966C60.7773 11.122 60.6153 11.296 60.4233 11.488C60.2433 11.668 60.0573 11.836 59.8653 11.992C59.4453 12.328 59.0973 12.538 58.8213 12.622C58.5573 12.706 58.2513 12.604 57.9033 12.316C57.7473 12.124 57.6213 11.932 57.5253 11.74C57.4293 11.536 57.3813 11.26 57.3813 10.912C57.3813 10.564 57.4413 10.078 57.5613 9.454C57.6453 9.058 57.7353 8.638 57.8313 8.194C57.9393 7.75 58.0473 7.324 58.1553 6.916C58.2633 6.496 58.3593 6.136 58.4433 5.836C58.5393 5.524 58.6053 5.308 58.6413 5.188C58.6773 4.888 58.6833 4.732 58.6593 4.72C58.6353 4.696 58.5753 4.762 58.4793 4.918C58.3953 5.05 58.2393 5.326 58.0113 5.746C57.7833 6.166 57.5253 6.658 57.2373 7.222C56.9613 7.786 56.6913 8.35 56.4273 8.914C55.9353 9.826 55.5213 10.588 55.1853 11.2C54.8493 11.812 54.5733 12.304 54.3573 12.676C54.1413 13.036 53.9733 13.306 53.8533 13.486C53.7453 13.678 53.6613 13.81 53.6013 13.882C53.5533 13.966 53.5173 14.02 53.4933 14.044C53.3133 14.032 53.1573 13.948 53.0253 13.792C52.8933 13.636 52.7853 13.45 52.7013 13.234C52.6773 13.114 52.6593 12.988 52.6473 12.856C52.6353 12.724 52.6473 12.58 52.6833 12.424C52.7313 12.256 52.8033 12.076 52.8993 11.884C53.0553 11.572 53.2053 11.308 53.3493 11.092C53.4933 10.876 53.5833 10.744 53.6193 10.696C53.6793 10.612 53.7273 10.522 53.7633 10.426C53.7993 10.33 53.8233 10.24 53.8353 10.156C53.8953 10.084 53.9853 9.934 54.1053 9.706C54.2373 9.478 54.3693 9.232 54.5013 8.968C54.5973 8.812 54.7293 8.596 54.8973 8.32C55.0653 8.032 55.2453 7.726 55.4373 7.402C55.6293 7.066 55.7973 6.76 55.9413 6.484C56.4693 5.536 56.8893 4.78 57.2013 4.216C57.5133 3.64 57.7353 3.274 57.8673 3.118C57.9513 3.058 58.0233 2.944 58.0833 2.776C58.1553 2.596 58.2153 2.464 58.2633 2.38C58.4313 2.044 58.5993 1.768 58.7673 1.552C58.9473 1.324 59.1033 1.21 59.2353 1.21C59.3313 1.21 59.4513 1.246 59.5953 1.318C59.7513 1.39 59.9013 1.492 60.0453 1.624C60.1773 1.78 60.2973 1.99 60.4053 2.254C60.5253 2.506 60.5493 2.842 60.4773 3.262C60.4653 3.454 60.4353 3.688 60.3873 3.964C60.3393 4.228 60.2913 4.492 60.2433 4.756C60.1953 5.02 60.1473 5.242 60.0993 5.422C60.0033 5.962 59.8953 6.478 59.7753 6.97C59.6673 7.45 59.5653 7.894 59.4693 8.302C59.3733 8.71 59.2953 9.07 59.2353 9.382C59.1753 9.682 59.1333 9.928 59.1093 10.12C59.0973 10.312 59.1213 10.438 59.1813 10.498C59.2173 10.51 59.2653 10.498 59.3253 10.462C59.3973 10.414 59.4513 10.366 59.4873 10.318C59.5593 10.222 59.6253 10.126 59.6853 10.03C59.7453 9.934 59.8233 9.814 59.9193 9.67C60.1113 9.406 60.3093 9.118 60.5133 8.806C60.7293 8.482 60.9813 8.086 61.2693 7.618C61.5693 7.138 61.9233 6.55 62.3313 5.854C62.7393 5.146 63.2373 4.27 63.8253 3.226C64.1013 2.806 64.3653 2.386 64.6173 1.966C64.8693 1.546 65.0973 1.222 65.3013 0.993999C65.4813 0.801999 65.7033 0.735999 65.9673 0.795999C66.2433 0.855999 66.4953 1.006 66.7233 1.246C66.9513 1.486 67.0773 1.78 67.1013 2.128C67.1133 2.296 67.0773 2.596 66.9933 3.028C66.9213 3.448 66.8193 3.922 66.6873 4.45C66.5553 4.978 66.4053 5.494 66.2373 5.998C66.2013 6.202 66.1413 6.472 66.0573 6.808C65.9733 7.144 65.8833 7.486 65.7873 7.834C65.6913 8.182 65.6013 8.494 65.5173 8.77C65.4333 9.178 65.3613 9.502 65.3013 9.742C65.2533 9.982 65.2293 10.258 65.2293 10.57C65.1213 10.762 65.0493 11.038 65.0133 11.398C64.9773 11.758 64.9593 12.13 64.9593 12.514C64.9113 12.982 64.8093 13.312 64.6533 13.504C64.5093 13.696 64.4133 13.786 64.3653 13.774C64.2693 13.738 64.1913 13.768 64.1313 13.864ZM66.9666 12.622C66.9186 12.526 66.8106 12.43 66.6426 12.334C66.4866 12.238 66.4086 12.166 66.4086 12.118C66.4086 12.07 66.3786 11.998 66.3186 11.902C66.2706 11.794 66.2226 11.716 66.1746 11.668C66.1146 11.596 66.1326 11.422 66.2286 11.146C66.3246 10.858 66.4686 10.51 66.6606 10.102C66.8526 9.694 67.0626 9.28 67.2906 8.86C67.3866 8.764 67.4826 8.638 67.5786 8.482C67.6746 8.326 67.7466 8.224 67.7946 8.176C67.7946 8.128 67.8126 8.086 67.8486 8.05C67.8846 8.002 67.9266 7.978 67.9746 7.978L68.1186 7.69C68.1426 7.642 68.2146 7.546 68.3346 7.402C68.4666 7.258 68.6226 7.102 68.8026 6.934C68.9826 6.754 69.1626 6.586 69.3426 6.43C69.5346 6.274 69.6906 6.16 69.8106 6.088C70.0626 5.92 70.3206 5.842 70.5846 5.854C70.8606 5.866 71.0946 5.95 71.2866 6.106C71.3226 6.142 71.4006 6.214 71.5206 6.322C71.6526 6.43 71.7966 6.55 71.9526 6.682C72.1206 6.814 72.2646 6.934 72.3846 7.042L73.0506 7.636L72.7446 8.536C72.5886 9.016 72.5466 9.436 72.6186 9.796C72.6906 10.156 72.8046 10.468 72.9606 10.732C73.0206 10.864 73.0986 10.966 73.1946 11.038C73.3026 11.11 73.4406 11.158 73.6086 11.182C73.7046 11.194 73.7946 11.23 73.8786 11.29C73.9626 11.35 74.0046 11.446 74.0046 11.578C74.0046 11.866 73.9506 12.076 73.8426 12.208C73.7466 12.328 73.6386 12.4 73.5186 12.424C73.1226 12.472 72.7446 12.43 72.3846 12.298C72.0246 12.166 71.7006 11.824 71.4126 11.272C71.3646 11.2 71.2986 11.068 71.2146 10.876C71.1426 10.672 71.1006 10.54 71.0886 10.48C71.0406 10.54 70.9746 10.618 70.8906 10.714C70.8186 10.798 70.7466 10.876 70.6746 10.948C69.8226 11.812 69.0906 12.376 68.4786 12.64C67.8786 12.892 67.3746 12.886 66.9666 12.622ZM67.9566 11.128C68.0406 11.14 68.1726 11.098 68.3526 11.002C68.5326 10.894 68.7726 10.72 69.0726 10.48C69.4806 10.132 69.8166 9.844 70.0806 9.616C70.3446 9.388 70.6026 9.094 70.8546 8.734L71.2506 8.086C71.1306 7.81 71.0226 7.63 70.9266 7.546C70.8306 7.462 70.7346 7.42 70.6386 7.42C70.4826 7.42 70.2966 7.522 70.0806 7.726C69.8646 7.918 69.6186 8.206 69.3426 8.59C69.0786 8.962 68.7786 9.43 68.4426 9.994C68.2866 10.258 68.1666 10.516 68.0826 10.768C67.9986 11.008 67.9566 11.128 67.9566 11.128ZM76.0258 13.324C75.3658 13.324 74.8558 13.132 74.4958 12.748C74.1478 12.364 73.9738 11.776 73.9738 10.984C73.9738 10.552 74.0518 10.078 74.2078 9.562C74.3758 9.046 74.5918 8.542 74.8558 8.05C75.1318 7.558 75.4318 7.132 75.7558 6.772C76.0798 6.4 76.4038 6.142 76.7278 5.998C76.8478 5.938 76.9738 5.896 77.1058 5.872C77.2498 5.836 77.3878 5.818 77.5198 5.818C77.6638 5.818 77.8198 5.83 77.9878 5.854C78.1678 5.866 78.3358 5.902 78.4918 5.962C78.7678 6.046 79.0078 6.208 79.2118 6.448C79.4278 6.688 79.5358 7.036 79.5358 7.492C79.5358 7.612 79.5238 7.744 79.4998 7.888C79.4758 8.02 79.4338 8.152 79.3738 8.284C79.2178 8.68 78.9778 9.058 78.6538 9.418C78.3418 9.778 78.0118 10.03 77.6638 10.174C77.5678 10.222 77.4718 10.258 77.3758 10.282C77.2918 10.294 77.2018 10.3 77.1058 10.3C76.8538 10.3 76.6258 10.264 76.4218 10.192C76.2298 10.12 76.0498 10.024 75.8818 9.904L75.7378 9.778L75.6478 9.958C75.5638 10.186 75.5038 10.378 75.4678 10.534C75.4438 10.69 75.4318 10.804 75.4318 10.876C75.4318 11.02 75.4378 11.17 75.4498 11.326C75.4618 11.47 75.4978 11.59 75.5578 11.686C75.6058 11.746 75.6658 11.794 75.7378 11.83C75.8218 11.866 75.9238 11.884 76.0438 11.884C76.1158 11.884 76.1818 11.884 76.2418 11.884C76.3138 11.872 76.3738 11.86 76.4218 11.848C76.6378 11.8 76.8118 11.722 76.9438 11.614C77.0878 11.494 77.2378 11.392 77.3938 11.308L77.4658 11.272L77.4478 11.218C77.6518 11.11 77.7898 11.044 77.8618 11.02C77.9338 10.984 77.9878 10.954 78.0238 10.93C78.0718 10.882 78.1258 10.858 78.1858 10.858C78.3538 10.834 78.5158 10.882 78.6718 11.002C78.8398 11.11 78.9238 11.248 78.9238 11.416C78.9238 11.488 78.8698 11.602 78.7618 11.758C78.6658 11.914 78.5398 12.07 78.3838 12.226C78.2398 12.37 78.0898 12.484 77.9338 12.568C77.8978 12.58 77.8618 12.598 77.8258 12.622C77.7898 12.634 77.7538 12.652 77.7178 12.676H77.7358C77.6278 12.82 77.5198 12.892 77.4118 12.892H77.2678C77.2198 12.976 77.0638 13.066 76.7998 13.162C76.5358 13.27 76.2778 13.324 76.0258 13.324ZM76.9618 8.986C77.0698 8.986 77.1658 8.968 77.2498 8.932C77.3458 8.896 77.4358 8.854 77.5198 8.806C77.8078 8.602 77.9938 8.338 78.0778 8.014C78.1618 7.69 78.1318 7.444 77.9878 7.276C77.9638 7.24 77.9338 7.216 77.8978 7.204C77.8618 7.18 77.8198 7.168 77.7718 7.168C77.6398 7.168 77.4898 7.21 77.3218 7.294C77.1658 7.378 77.0098 7.498 76.8538 7.654C76.6978 7.81 76.5538 7.996 76.4218 8.212L76.1878 8.59C76.2118 8.578 76.2298 8.572 76.2418 8.572C76.2658 8.56 76.2838 8.554 76.2958 8.554C76.4038 8.554 76.4758 8.59 76.5118 8.662C76.5478 8.734 76.5898 8.806 76.6378 8.878C76.6978 8.95 76.8058 8.986 76.9618 8.986ZM80.8135 13.108C80.4055 12.94 80.1055 12.766 79.9135 12.586C79.7335 12.394 79.6615 12.226 79.6975 12.082C79.7215 12.01 79.7635 11.944 79.8235 11.884C79.8835 11.824 80.0155 11.8 80.2195 11.812C80.4355 11.812 80.7655 11.866 81.2095 11.974C81.3415 11.974 81.4735 11.968 81.6055 11.956C81.7375 11.944 81.8575 11.926 81.9655 11.902C82.0855 11.878 82.1815 11.848 82.2535 11.812C82.3135 11.788 82.3315 11.758 82.3075 11.722C82.2835 11.674 82.2415 11.626 82.1815 11.578C82.1335 11.518 82.0795 11.482 82.0195 11.47C81.9595 11.446 81.9055 11.434 81.8575 11.434C81.8335 11.374 81.7795 11.314 81.6955 11.254C81.6235 11.194 81.5335 11.128 81.4255 11.056C81.1615 10.84 80.9215 10.648 80.7055 10.48C80.4895 10.312 80.4055 10.186 80.4535 10.102C80.4535 10.054 80.4535 10.03 80.4535 10.03C80.4535 10.018 80.4535 10.012 80.4535 10.012C80.3695 10.012 80.2915 9.898 80.2195 9.67C80.1475 9.43 80.1115 9.214 80.1115 9.022C80.1115 8.782 80.1595 8.542 80.2555 8.302C80.3635 8.062 80.4955 7.834 80.6515 7.618C80.8195 7.402 80.9875 7.21 81.1555 7.042C81.3835 6.826 81.6235 6.616 81.8755 6.412C82.1395 6.196 82.4215 6.004 82.7215 5.836C83.0335 5.668 83.3755 5.536 83.7475 5.44C83.9155 5.404 84.1075 5.386 84.3235 5.386C84.5395 5.386 84.6955 5.416 84.7915 5.476C84.8875 5.416 85.0075 5.434 85.1515 5.53C85.2955 5.614 85.4395 5.734 85.5835 5.89C85.7275 6.046 85.8355 6.202 85.9075 6.358C85.9075 6.502 85.9015 6.682 85.8895 6.898C85.8895 7.102 85.8775 7.282 85.8535 7.438C85.8295 7.594 85.7755 7.672 85.6915 7.672C85.6915 7.672 85.6735 7.678 85.6375 7.69C85.6135 7.69 85.6015 7.72 85.6015 7.78C85.6015 7.9 85.5115 8.038 85.3315 8.194C85.1035 8.35 84.8875 8.476 84.6835 8.572C84.4795 8.668 84.3235 8.674 84.2155 8.59C84.1435 8.542 84.0775 8.494 84.0175 8.446C83.9575 8.398 83.9035 8.338 83.8555 8.266C83.8555 8.266 83.8375 8.242 83.8015 8.194C83.7775 8.134 83.7655 8.08 83.7655 8.032C83.7655 7.984 83.7835 7.942 83.8195 7.906C83.8555 7.858 83.8735 7.834 83.8735 7.834C84.0415 7.678 84.1675 7.534 84.2515 7.402C84.3475 7.27 84.4135 7.156 84.4495 7.06C84.4855 6.952 84.5035 6.868 84.5035 6.808C84.5035 6.736 84.4855 6.694 84.4495 6.682C84.4255 6.658 84.3655 6.646 84.2695 6.646C84.2095 6.646 84.0775 6.694 83.8735 6.79C83.6815 6.886 83.4775 7.006 83.2615 7.15C83.0455 7.282 82.8775 7.402 82.7575 7.51C82.7095 7.594 82.6735 7.648 82.6495 7.672C82.6375 7.696 82.6075 7.708 82.5595 7.708C82.5595 7.66 82.5295 7.666 82.4695 7.726C82.4095 7.786 82.3375 7.87 82.2535 7.978C82.1695 8.086 82.0855 8.2 82.0015 8.32C81.9175 8.44 81.8515 8.536 81.8035 8.608C81.7915 8.716 81.7615 8.818 81.7135 8.914C81.6775 8.998 81.6655 9.088 81.6775 9.184C81.6895 9.304 81.7495 9.418 81.8575 9.526C81.9655 9.634 82.1215 9.772 82.3255 9.94C82.7455 10.252 83.0575 10.498 83.2615 10.678C83.4775 10.858 83.6275 11.002 83.7115 11.11C83.7955 11.218 83.8495 11.326 83.8735 11.434C84.0775 11.806 84.1015 12.13 83.9455 12.406C83.7895 12.67 83.5495 12.874 83.2255 13.018C83.1055 13.078 82.8955 13.132 82.5955 13.18C82.2955 13.24 81.9775 13.264 81.6415 13.252C81.3175 13.252 81.0415 13.204 80.8135 13.108ZM88.1325 13.108C87.9645 13.06 87.7965 12.976 87.6285 12.856C87.4605 12.736 87.2865 12.598 87.1065 12.442C86.9625 12.25 86.8605 12.076 86.8005 11.92C86.7405 11.752 86.7045 11.56 86.6925 11.344C86.6925 11.116 86.6925 10.828 86.6925 10.48C86.6925 10.336 86.7165 10.132 86.7645 9.868C86.8245 9.604 86.8845 9.328 86.9445 9.04C87.0165 8.752 87.0825 8.5 87.1425 8.284C87.2025 8.056 87.2385 7.906 87.2505 7.834C87.2865 7.678 87.2265 7.588 87.0705 7.564C86.9145 7.54 86.7405 7.534 86.5485 7.546C86.3685 7.546 86.2485 7.528 86.1885 7.492C86.1405 7.48 86.1165 7.42 86.1165 7.312C86.1165 7.192 86.1165 7.132 86.1165 7.132C86.1165 7.084 86.0925 7.054 86.0445 7.042C85.9965 7.018 85.9545 6.976 85.9185 6.916C85.8945 6.868 85.9245 6.778 86.0085 6.646C86.0925 6.514 86.2005 6.436 86.3325 6.412C86.4405 6.388 86.6025 6.37 86.8185 6.358C87.0345 6.334 87.2505 6.292 87.4665 6.232C87.6945 6.16 87.8685 6.052 87.9885 5.908C88.0965 5.644 88.2165 5.362 88.3485 5.062C88.4805 4.75 88.6065 4.48 88.7265 4.252C88.8465 4.012 88.9305 3.862 88.9785 3.802C89.1825 3.694 89.3925 3.652 89.6085 3.676C89.8245 3.688 89.9925 3.79 90.1125 3.982C90.1725 4.066 90.2205 4.126 90.2565 4.162C90.3045 4.198 90.3225 4.252 90.3105 4.324C90.3105 4.396 90.2625 4.528 90.1665 4.72C90.0825 4.9 89.9385 5.182 89.7345 5.566C89.6745 5.686 89.6205 5.794 89.5725 5.89C89.5245 5.974 89.5005 6.016 89.5005 6.016C89.5485 6.028 89.6205 6.034 89.7165 6.034C89.8125 6.034 89.9325 6.028 90.0765 6.016C90.2085 5.992 90.3525 5.974 90.5085 5.962C90.6645 5.938 90.8025 5.938 90.9225 5.962C91.1985 5.962 91.4025 6.04 91.5345 6.196C91.6665 6.352 91.7385 6.55 91.7505 6.79C91.7745 6.922 91.7265 7.036 91.6065 7.132C91.4865 7.228 91.2645 7.276 90.9405 7.276C90.8325 7.276 90.6765 7.282 90.4725 7.294C90.2685 7.306 90.0585 7.318 89.8425 7.33C89.6265 7.342 89.4405 7.36 89.2845 7.384C89.1405 7.396 89.0685 7.414 89.0685 7.438C89.0325 7.462 88.9725 7.558 88.8885 7.726C88.8165 7.882 88.7385 8.074 88.6545 8.302C88.5825 8.53 88.5165 8.746 88.4565 8.95C88.3725 9.358 88.3125 9.754 88.2765 10.138C88.2405 10.522 88.2345 10.858 88.2585 11.146C88.2945 11.422 88.3665 11.62 88.4745 11.74C88.5825 11.848 88.7445 11.848 88.9605 11.74C89.1885 11.62 89.3985 11.482 89.5905 11.326C89.8065 11.146 89.9925 11.092 90.1485 11.164C90.3045 11.224 90.4005 11.356 90.4365 11.56C90.4845 11.752 90.4305 11.962 90.2745 12.19C90.1305 12.418 89.9265 12.61 89.6625 12.766C89.3985 12.922 89.1285 13.03 88.8525 13.09C88.5765 13.162 88.3365 13.168 88.1325 13.108ZM91.9315 12.73C91.8475 12.73 91.7335 12.67 91.5895 12.55C91.4575 12.43 91.3795 12.322 91.3555 12.226C91.3195 12.13 91.3195 11.992 91.3555 11.812C91.4035 11.62 91.4695 11.398 91.5535 11.146C91.6495 10.75 91.7155 10.462 91.7515 10.282C91.7875 10.102 91.8235 9.946 91.8595 9.814C91.8955 9.682 91.9435 9.49 92.0035 9.238C92.0755 9.082 92.1295 8.932 92.1655 8.788C92.2135 8.632 92.2615 8.476 92.3095 8.32C92.3695 8.164 92.4355 8.008 92.5075 7.852C92.5915 7.54 92.6935 7.246 92.8135 6.97C92.9455 6.682 93.0715 6.442 93.1915 6.25C93.2155 6.214 93.2695 6.148 93.3535 6.052C93.4375 5.956 93.5035 5.908 93.5515 5.908C93.6475 5.812 93.7795 5.782 93.9475 5.818C94.1155 5.842 94.2595 5.902 94.3795 5.998C94.5235 6.154 94.6015 6.34 94.6135 6.556C94.6375 6.76 94.5535 7.048 94.3615 7.42C94.2175 7.792 94.0795 8.086 93.9475 8.302C93.8275 8.506 93.7075 8.746 93.5875 9.022C93.7195 8.83 93.8815 8.632 94.0735 8.428C94.2655 8.224 94.4155 8.062 94.5235 7.942C94.6795 7.774 94.8235 7.642 94.9555 7.546C95.0995 7.438 95.2915 7.306 95.5315 7.15C95.7355 7.006 95.9395 6.874 96.1435 6.754C96.3595 6.634 96.6175 6.598 96.9175 6.646C97.0375 6.634 97.1635 6.694 97.2955 6.826C97.4395 6.958 97.5475 7.132 97.6195 7.348C97.7035 7.552 97.7035 7.774 97.6195 8.014C97.3435 7.954 97.0975 7.966 96.8815 8.05C96.6655 8.122 96.4795 8.212 96.3235 8.32C96.1795 8.428 96.0655 8.512 95.9815 8.572C95.8615 8.644 95.7235 8.74 95.5675 8.86C95.4115 8.968 95.2435 9.094 95.0635 9.238C94.8835 9.37 94.6915 9.52 94.4875 9.688C94.1995 9.928 93.9835 10.138 93.8395 10.318C93.6955 10.498 93.5815 10.69 93.4975 10.894C93.4255 11.074 93.3355 11.29 93.2275 11.542C93.1195 11.794 93.0175 12.022 92.9215 12.226C92.8255 12.418 92.7475 12.538 92.6875 12.586C92.6275 12.706 92.5015 12.772 92.3095 12.784C92.1295 12.796 92.0035 12.778 91.9315 12.73ZM99.2818 13.162C99.1258 13.174 98.9998 13.156 98.9038 13.108C98.8078 13.072 98.6878 13.012 98.5438 12.928C98.2798 12.724 98.0578 12.472 97.8778 12.172C97.7098 11.872 97.6318 11.62 97.6438 11.416C97.6678 11.308 97.6678 11.212 97.6438 11.128C97.6318 11.044 97.6258 11.002 97.6258 11.002C97.5538 10.942 97.5298 10.906 97.5538 10.894C97.5778 10.87 97.5958 10.834 97.6078 10.786C97.7038 10.762 97.7158 10.696 97.6438 10.588C97.6078 10.492 97.6258 10.276 97.6978 9.94C97.7818 9.592 97.8898 9.268 98.0218 8.968C98.0818 8.836 98.1658 8.662 98.2738 8.446C98.3938 8.23 98.5258 8.014 98.6698 7.798C98.8138 7.57 98.9458 7.39 99.0658 7.258C99.3298 6.958 99.5638 6.712 99.7678 6.52C99.9838 6.328 100.224 6.184 100.488 6.088C100.728 5.992 100.968 5.95 101.208 5.962C101.46 5.974 101.682 6.058 101.874 6.214C102.162 6.298 102.42 6.43 102.648 6.61C102.876 6.778 103.032 7.018 103.116 7.33C103.212 7.678 103.242 8.092 103.206 8.572C103.182 9.04 102.978 9.646 102.594 10.39C102.366 10.858 102.138 11.236 101.91 11.524C101.694 11.812 101.43 12.088 101.118 12.352C100.89 12.544 100.596 12.712 100.236 12.856C99.8758 13 99.5578 13.102 99.2818 13.162ZM100.848 10.444C101.004 10.228 101.124 10.018 101.208 9.814C101.304 9.61 101.394 9.328 101.478 8.968C101.514 8.836 101.532 8.674 101.532 8.482C101.544 8.29 101.538 8.116 101.514 7.96C101.502 7.792 101.46 7.702 101.388 7.69C101.232 7.63 101.07 7.63 100.902 7.69C100.746 7.738 100.56 7.882 100.344 8.122C100.152 8.338 99.9958 8.542 99.8758 8.734C99.7678 8.914 99.6658 9.136 99.5698 9.4C99.4858 9.652 99.3898 9.982 99.2818 10.39C99.1858 10.786 99.1798 11.104 99.2638 11.344C99.3598 11.584 99.5398 11.65 99.8038 11.542C100.068 11.434 100.416 11.068 100.848 10.444Z" fill="#272C6E"/>
</svg>
