<svg width="72" height="72" viewBox="0 0 72 72" fill="none" xmlns="http://www.w3.org/2000/svg">
<circle cx="36" cy="36" r="34.5" fill="white" stroke="#272C6E" stroke-width="3"/>
<path d="M24.6322 60.3739C24.6322 60.3739 29.2244 63.216 31.461 59.2113C31.461 59.2113 26.9877 57.6869 24.6322 60.3739Z" fill="#272C6E"/>
<path d="M37.744 59.1566C37.744 60.2015 36.964 61.0485 36.0017 61.0485C35.0394 61.0485 34.2594 60.2015 34.2594 59.1566C34.2594 58.1118 35.0394 57.2648 36.0017 57.2648C36.964 57.2648 37.744 58.1118 37.744 59.1566Z" fill="#272C6E"/>
<path d="M47.3713 60.3739C47.3713 60.3739 42.7791 63.216 40.5425 59.2113C40.5425 59.2113 45.0158 57.6869 47.3713 60.3739Z" fill="#272C6E"/>
<path d="M34.2594 59.1566C34.2594 60.2015 35.0394 61.0485 36.0018 61.0485C36.964 61.0485 37.744 60.2015 37.744 59.1566C37.744 58.1118 36.964 57.2648 36.0018 57.2648C35.0394 57.2648 34.2594 58.1118 34.2594 59.1566Z" fill="#272C6E"/>
<path d="M51.8183 30.6892C51.8183 30.6892 51.8555 44.0178 36.0539 51.3853C36.0539 51.3853 22.2629 47.2327 20.1852 31.6604V11.9355H51.8183V30.6892ZM19.1556 10.6515V31.6604C21.3684 48.2464 36.0573 52.6694 36.0573 52.6694C52.8876 44.8222 52.8479 30.626 52.8479 30.626V10.6515H19.1556Z" fill="#EF4344"/>
<path d="M49.6969 30.4866C49.6969 30.4866 49.7291 42.0274 36.0469 48.4068C36.0469 48.4068 24.1056 44.8111 22.3067 31.3275V14.2482H49.6969V30.4866ZM21.4151 13.1363V31.3275C23.3312 45.6889 36.0499 49.5186 36.0499 49.5186C50.6228 42.7239 50.5884 30.4318 50.5884 30.4318V13.1363H21.4151Z" fill="#272C6E"/>
<path d="M41.4573 21.733L41.479 21.9092L41.2149 21.965L41.1792 22.3415H41.4977L41.9202 22.3012L42.1377 22.0412L41.9062 21.9514L41.7788 21.8052L41.5877 21.4958L41.4977 21.0596L41.1373 21.1318L41.0379 21.2862V21.4593L41.2103 21.5777L41.4573 21.733Z" fill="#EF4344"/>
<path d="M41.1513 21.8773L41.1699 21.6414L40.9602 21.5509L40.6658 21.6193L40.446 21.9689V22.1964H40.7016L41.1513 21.8773Z" fill="#EF4344"/>
<path d="M35.0919 22.8814L35.0267 23.0483H34.7125V23.2105H34.7875C34.7875 23.2105 34.7921 23.2447 34.7987 23.2901L34.991 23.2742L35.1101 23.1993L35.1412 23.0491L35.2973 23.0354L35.3583 22.9093L35.2153 22.8798L35.0919 22.8814Z" fill="#EF4344"/>
<path d="M34.2822 23.1755L34.2705 23.3336L34.4986 23.3145L34.5218 23.1557L34.3851 23.0483L34.2822 23.1755Z" fill="#EF4344"/>
<path d="M46.6192 25.8763L46.6534 25.8356C46.6689 25.8977 46.6828 25.9598 46.6976 26.0219L46.6192 25.8763ZM32.6116 23.0483L32.7102 22.9442L32.8772 23.0483L32.7435 23.1589L32.6116 23.0483ZM32.9312 23.3401V23.5516H32.5828L32.4881 23.4138V23.2167H32.5153L32.9312 23.3401ZM31.4512 22.9784H31.8128L31.3483 23.6261L31.1576 23.5237L31.1988 23.2508L31.4512 22.9784ZM32.3179 23.4138V23.6261L32.161 23.783H31.8127L31.867 23.5442L32.0317 23.5299L32.0651 23.448L32.3179 23.4138ZM32.2155 22.8896V22.6295L32.4402 22.8344L32.2155 22.8896ZM32.3999 22.9784V23.1961L32.2353 23.3017L32.0318 23.3401V22.9783H32.3999V22.9784ZM32.0985 22.6644V22.8896H31.4445L31.1979 22.8209L31.2593 22.6645L31.5735 22.5349H32.0038V22.6645H32.0985V22.6644ZM30.5778 21.8455L30.8632 21.7089L31.1227 21.771L31.0342 22.1191L30.7545 22.2072L30.5778 21.8455ZM46.4421 25.3237H45.5691L45.0362 24.9282L44.477 24.9822V25.3237H44.3001L44.1097 25.1879L43.1395 24.9426V24.3147L41.9109 24.4097L41.5295 24.6143H41.0425L40.8025 24.5903L40.2106 24.9194V25.5376L39.0009 26.4104L39.1012 26.7834H39.3469L39.2826 27.1385L39.1101 27.2021L39.1012 28.1297L40.1462 29.3204H40.602L40.6293 29.2481H41.4479L41.684 29.03H42.1484L42.4032 29.2847L43.0936 29.356L43.0028 30.2751L43.7718 31.6299L43.3663 32.403L43.3935 32.7663L43.7127 33.0838V33.9586L44.1306 34.5206V35.2486H44.4909C42.4825 37.7147 39.4223 39.2927 35.9994 39.2927C29.9623 39.2927 25.0508 34.3855 25.0508 28.3513C25.0508 26.8326 25.3627 25.385 25.925 24.0697V23.7286L26.3164 23.2536C26.4523 22.9966 26.5979 22.7471 26.7537 22.503L26.7704 22.7017L26.3164 23.2536C26.1755 23.5198 26.0435 23.7915 25.9251 24.0698V24.6919L26.379 24.9107V25.7762L26.8159 26.5201L27.1713 26.5742L27.2167 26.3191L26.7992 25.6737L26.7166 25.0466H26.9624L27.0665 25.6928L27.6715 26.5742L27.5157 26.8594L27.899 27.447L28.8544 27.6829V27.5289L29.2362 27.5828L29.2004 27.8553L29.5002 27.9104L29.9646 28.0365L30.6198 28.7828L31.4559 28.8457L31.5386 29.5276L30.965 29.9274L30.9389 30.5363L30.8562 30.9096L31.6842 31.9452L31.7475 32.3006C31.7475 32.3006 32.0477 32.3813 32.085 32.3813C32.1207 32.3813 32.7576 32.8642 32.7576 32.8642V34.7363L32.9844 34.8008L32.8311 35.6639L33.2128 36.1739L33.1413 37.0308L33.647 37.9173L34.2951 38.4832L34.9456 38.4963L35.0092 38.286L34.5304 37.8832L34.5583 37.6837L34.6434 37.4376L34.6616 37.1877L34.3382 37.1783L34.175 36.9735L34.4438 36.7143L34.4804 36.5195L34.1798 36.4333L34.1972 36.2516L34.6252 36.1864L35.2756 35.8743L35.4939 35.473L36.1755 34.6005L36.021 33.9183L36.2302 33.5549L36.8585 33.5735L37.2815 33.2382L37.4186 31.9225L37.8892 31.3295L37.9719 30.9484L37.5447 30.8118L37.2624 30.348L36.2985 30.3383L35.5335 30.0476L35.4978 29.5024L35.243 29.0564L34.5521 29.0467L34.1514 28.4199L33.7972 28.2472L33.779 28.4382L33.1324 28.4762L32.8963 28.1471L32.2226 28.0105L31.6676 28.6521L30.7942 28.5031L30.7305 27.5192L30.0936 27.4102L30.348 26.9277L30.275 26.6507L29.4373 27.2099L28.9107 27.1455L28.7224 26.7341L28.8385 26.3095L29.1286 25.7747L29.7969 25.4359H31.0886L31.0843 25.8294L31.5487 26.0456L31.5115 25.3733L31.8462 25.0368L32.5215 24.5932L32.5685 24.282L33.2415 23.5815L33.9573 23.1848L33.8944 23.1332L34.3795 22.6771L34.5569 22.7241L34.6381 22.8258L34.8226 22.6212L34.868 22.6015L34.6661 22.5727L34.4599 22.5068V22.3089L34.569 22.22H34.8083L34.9189 22.2685L35.0137 22.4594L35.1299 22.4416V22.4253L35.1632 22.4362L35.4988 22.3846L35.5466 22.22L35.7372 22.2685V22.4468L35.559 22.5682H35.5602L35.5854 22.7638L36.1947 22.9505C36.1947 22.9505 36.1947 22.9528 36.1962 22.9578L36.3352 22.9458L36.345 22.6826L35.8631 22.4634L35.8367 22.3368L36.2358 22.201L36.2541 21.8188L35.8367 21.5645L35.8091 20.9187L35.2355 21.2005H35.0254L35.0813 20.7092L34.3 20.5256L33.978 20.7697V21.5125L33.3983 21.6965L33.1652 22.1804L32.914 22.2208V21.601L32.3684 21.5253L32.0946 21.3472L31.985 20.9458L32.9617 20.3753L33.439 20.2297L33.4872 20.5507L33.754 20.5363L33.7746 20.3753L34.0531 20.3352L34.0577 20.279L33.9384 20.2297L33.9113 20.0597L34.2534 20.031L34.46 19.8164L34.472 19.8004L34.4744 19.8012L34.5373 19.736L35.2561 19.6456L35.5734 19.915L34.74 20.3586L35.8009 20.6088L35.9376 20.2541H36.4021L36.5652 19.9451L36.2375 19.8632V19.472L35.2107 19.0175L34.5008 19.0994L34.0997 19.3082L34.1268 19.8178L33.7085 19.7541L33.6441 19.4727L34.0457 19.1087L33.3171 19.073L33.1083 19.1367L33.0175 19.3823L33.2904 19.4281L33.2361 19.701L32.7724 19.7281L32.6994 19.9101L32.0259 19.9286C32.0259 19.9286 32.0077 19.5471 31.9789 19.5471C31.9529 19.5471 32.5071 19.5374 32.5071 19.5374L32.9079 19.1466L32.6892 19.0376L32.3991 19.3197L31.9164 19.2926L31.622 18.8905H31.0034L30.3576 19.3722H30.9491L31.0023 19.5457L30.8481 19.6907L31.5037 19.7094L31.6031 19.9454L30.8656 19.9182L30.8291 19.7361L30.3662 19.6359L30.1196 19.5001L29.5677 19.5048C31.3755 18.1887 33.5976 17.4098 36.0003 17.4098C38.768 17.4098 41.2989 18.4437 43.2282 20.1432L43.0992 20.3753L42.5936 20.5732L42.3801 20.8045L42.4298 21.073L42.69 21.1095L42.8476 21.5015L43.2958 21.3202L43.3711 21.8453H43.2344L42.8655 21.7906L42.457 21.8589L42.0608 22.4185L41.4954 22.5067L41.4138 22.991L41.653 23.0472L41.5831 23.3589L41.0208 23.246L40.5059 23.3589L40.3963 23.6457L40.4849 24.2477L40.7877 24.389L41.2965 24.3859L41.6389 24.3548L41.7446 24.0824L42.2805 23.3861L42.6325 23.4583L42.9796 23.1443L43.0448 23.3901L43.8991 23.966L43.7951 24.1068L43.4098 24.0863L43.5589 24.2958L43.7966 24.3486L44.0746 24.2326L44.0684 23.8984L44.1927 23.8368L44.0933 23.7315L43.5232 23.4136L43.3725 22.9918H43.8471L43.997 23.142L44.4071 23.4932L44.4234 23.9185L44.8466 24.3684L45.0036 23.7517L45.2972 23.5918L45.3509 24.0963L45.6374 24.4103L46.2083 24.401C46.3194 24.6847 46.4188 24.973 46.5043 25.268L46.4421 25.3237ZM29.9495 20.5916C29.9495 20.5916 30.1887 20.5508 30.2097 20.5508C30.2294 20.5508 30.2097 20.7895 30.2097 20.7895L29.6694 20.8236L29.5669 20.7003L29.9495 20.5916ZM29.5677 20.0598V20.0397H29.8062L29.8279 19.9578H30.2181V20.1281L30.1051 20.2775H29.5668V20.0598L29.5677 20.0598ZM43.9582 21.3821L43.9597 20.8496C44.1477 21.0483 44.3279 21.2528 44.5003 21.4651L44.2859 21.7846L43.5341 21.7771L43.4875 21.6207L43.9582 21.3821ZM45.6825 23.4631L45.7508 23.3855C45.8417 23.5617 45.9279 23.7399 46.0079 23.9218L45.8937 23.9171L45.6817 23.9463V23.4631L45.6825 23.4631ZM47.9279 28.2283C47.9248 27.8794 47.907 27.5336 47.8743 27.1924C47.7632 26.056 47.4921 24.967 47.0836 23.9463C47.0541 23.8711 47.0262 23.7938 46.9943 23.7186C46.4514 22.437 45.6887 21.2703 44.7566 20.2632C44.6961 20.1973 44.634 20.1328 44.5718 20.0684C44.3947 19.8856 44.2153 19.7067 44.0266 19.5359C41.9062 17.6059 39.0888 16.428 36.0018 16.428C32.8889 16.428 30.0512 17.6276 27.9246 19.586C27.4291 20.0424 26.974 20.5415 26.5604 21.0748C25.0023 23.0898 24.0719 25.6132 24.0719 28.3505C24.0719 34.9242 29.4237 40.2731 36.0018 40.2731C40.6294 40.2731 44.6464 37.6247 46.6238 33.7662C47.0463 32.9426 47.3757 32.0632 47.5977 31.1411C47.6537 30.9082 47.7033 30.6722 47.7453 30.4339C47.8657 29.7567 47.9317 29.0604 47.9317 28.3498C47.9302 28.3102 47.9279 28.2694 47.9279 28.2283Z" fill="#EF4344"/>
<path d="M25.9258 23.7278V24.069C26.0441 23.7899 26.1763 23.5191 26.3172 23.2524L25.9258 23.7278Z" fill="#EF4344"/>
<path d="M13.9977 28.9151C13.9977 28.9151 12.2022 33.1217 14.6327 36.4408C14.5994 36.4938 16.2434 34.0573 13.9977 28.9151Z" fill="#272C6E"/>
<path d="M10.0688 36.1512C10.0688 36.1512 10.9289 40.9233 15.0326 41.4482C15.0326 41.4482 14.9692 38.2009 10.0688 36.1512Z" fill="#272C6E"/>
<path d="M18.9454 35.1317C18.9454 35.1317 15.757 35.8551 16.4708 40.7123C16.4708 40.7123 19.0406 39.4463 18.9454 35.1317Z" fill="#272C6E"/>
<path d="M11.95 43.6577C11.95 43.6577 14.5609 42.5984 17.6573 47.0681C17.6573 47.0681 15.3525 49.3934 11.95 43.6577Z" fill="#272C6E"/>
<path d="M20.2606 40.2731C20.2606 40.2731 17.0232 41.7975 18.948 46.2931C18.948 46.2931 21.0999 44.6912 20.2606 40.2731Z" fill="#272C6E"/>
<path d="M14.9956 50.1685C14.9956 50.1685 17.827 48.7217 21.2772 52.2096C21.2772 52.2096 18.7312 54.8708 14.9956 50.1685Z" fill="#272C6E"/>
<path d="M22.382 44.8462C22.382 44.8462 19.8939 47.3782 22.382 50.8919C22.382 50.8919 24.4299 48.9906 22.382 44.8462Z" fill="#272C6E"/>
<path d="M19.231 55.8267C19.231 55.8267 23.2997 59.4955 25.9885 56.2659C25.9885 56.2659 21.7294 53.889 19.231 55.8267Z" fill="#272C6E"/>
<path d="M25.6316 48.6958C25.6316 48.6958 23.3474 51.9254 26.7023 54.8707C26.7023 54.8707 28.1537 52.3388 25.6316 48.6958Z" fill="#272C6E"/>
<path d="M29.4624 51.8221C29.4624 51.8221 27.8206 55.3858 31.8656 57.5956C31.8656 57.5956 32.7698 54.7674 29.4624 51.8221Z" fill="#272C6E"/>
<path d="M14.4427 36.82C14.6086 37.4827 14.9839 39.4666 15.6619 41.4482C15.8405 41.9702 16.0785 42.492 16.2573 42.9894C16.7518 44.3658 17.3842 45.5559 17.6574 46.0476C17.6574 46.0476 22.3836 56.0117 31.9785 58.7806L34.3251 59.6706V58.7806C34.3251 58.7806 27.5718 57.6401 21.7737 50.8921C20.0525 48.8889 18.3563 46.3915 16.9485 43.2831C16.1809 41.5881 15.7122 39.7925 15.2549 37.634C15.1724 37.244 14.9035 36.7303 14.5912 36.7243C14.4757 36.7221 14.4124 36.699 14.4427 36.82Z" fill="#272C6E"/>
<path d="M58.0059 28.9151C58.0059 28.9151 59.8014 33.1217 57.3709 36.4408C57.4041 36.4938 55.7601 34.0573 58.0059 28.9151Z" fill="#272C6E"/>
<path d="M61.9347 36.1512C61.9347 36.1512 61.0746 40.9233 56.9709 41.4482C56.9709 41.4482 57.0343 38.2009 61.9347 36.1512Z" fill="#272C6E"/>
<path d="M53.0581 35.1317C53.0581 35.1317 56.2465 35.8551 55.5327 40.7123C55.5327 40.7123 52.9629 39.4463 53.0581 35.1317Z" fill="#272C6E"/>
<path d="M60.0535 43.6577C60.0535 43.6577 57.4426 42.5984 54.3461 47.0681C54.3461 47.0681 56.651 49.3934 60.0535 43.6577Z" fill="#272C6E"/>
<path d="M51.7429 40.2731C51.7429 40.2731 54.9803 41.7975 53.0555 46.2931C53.0555 46.2931 50.9036 44.6912 51.7429 40.2731Z" fill="#272C6E"/>
<path d="M57.0079 50.1685C57.0079 50.1685 54.1765 48.7217 50.7263 52.2096C50.7263 52.2096 53.2723 54.8708 57.0079 50.1685Z" fill="#272C6E"/>
<path d="M49.6215 44.8462C49.6215 44.8462 52.1097 47.3782 49.6215 50.8919C49.6215 50.8919 47.5736 48.9906 49.6215 44.8462Z" fill="#272C6E"/>
<path d="M52.7725 55.8267C52.7725 55.8267 48.7038 59.4955 46.0151 56.2659C46.0151 56.2659 50.2741 53.889 52.7725 55.8267Z" fill="#272C6E"/>
<path d="M46.372 48.6958C46.372 48.6958 48.6562 51.9254 45.3013 54.8707C45.3013 54.8707 43.8498 52.3388 46.372 48.6958Z" fill="#272C6E"/>
<path d="M42.5411 51.8221C42.5411 51.8221 44.1829 55.3858 40.1379 57.5956C40.1379 57.5956 39.2338 54.7674 42.5411 51.8221Z" fill="#272C6E"/>
<path d="M57.5608 36.82C57.3949 37.4827 57.0195 39.4666 56.3416 41.4482C56.163 41.9702 55.925 42.492 55.7462 42.9894C55.2516 44.3658 54.6193 45.5559 54.3461 46.0476C54.3461 46.0476 49.6199 56.0117 40.025 58.7806L37.6784 59.6706V58.7806C37.6784 58.7806 44.4317 57.6401 50.2298 50.8921C51.951 48.8889 53.6472 46.3915 55.055 43.2831C55.8226 41.5881 56.2913 39.7925 56.7486 37.634C56.8311 37.244 57.1 36.7303 57.4123 36.7243C57.5278 36.7221 57.5911 36.699 57.5608 36.82Z" fill="#272C6E"/>
</svg>
