<svg width="103" height="123" viewBox="0 0 103 123" fill="none" xmlns="http://www.w3.org/2000/svg">
<path d="M8.43085 27.5293C8.43085 27.5293 7.66427 8.05963 26.059 9.40127V11.1906C26.059 11.1906 10.4749 9.87367 10.7301 27.5293H8.43085Z" fill="#B38B3D"/>
<path d="M39.2741 4.23946C39.2741 4.23946 49.7136 1.69781 55.1231 9.89829L53.9146 10.7433C53.9146 10.7433 48.4334 4.72516 39.5868 5.42949L39.2741 4.23946Z" fill="#B38B3D"/>
<path d="M59.8551 9.33515C59.8551 9.33515 67.9341 7.86662 67.5899 18.8511C67.5899 18.8511 76.1847 19.9794 70.856 28.6313L69.9108 26.9765C69.9108 26.9765 73.3485 21.7098 65.7853 20.0549C65.7853 20.0549 67.1605 10.9116 59.8551 10.7433V9.33515Z" fill="#B38B3D"/>
<path d="M54.0109 48.5687C54.0109 48.5687 62.9493 54.4371 70.4262 49.246L69.6526 47.5907C69.6526 47.5907 63.2827 52.4054 55.1233 47.0641L54.0109 48.5687Z" fill="#B38B3D"/>
<path d="M34.1378 57.9969C32.9461 57.9969 31.9803 58.8423 31.9803 59.8855C31.9803 60.9282 32.9461 61.7737 34.1378 61.7737C35.3295 61.7737 36.2953 60.9282 36.2953 59.8855C36.2953 58.8423 35.3295 57.9969 34.1378 57.9969Z" fill="#B38B3D"/>
<path d="M29.9819 66.4459C28.8287 66.4459 27.8944 67.2643 27.8944 68.2733C27.8944 69.2827 28.8287 70.1011 29.9819 70.1011C31.135 70.1011 32.0693 69.2827 32.0693 68.2733C32.0693 67.2643 31.135 66.4459 29.9819 66.4459Z" fill="#B38B3D"/>
<path d="M99.6457 67.8656C96.1662 87.4812 79.3252 92.1106 79.3252 92.1106L79.3274 90.6425C89.6366 86.6053 92.8919 79.7179 92.8919 79.7179C86.6523 87.08 78.7845 88.2677 78.7845 88.2677L77.6552 78.7089C77.6552 78.7089 82.1092 77.7342 86.0062 74.3228C89.9032 70.9115 92.2692 62.0176 90.0422 54.3418C87.8152 46.666 76.1242 48.4938 76.1242 48.4938C77.2377 47.1536 77.4283 42.402 77.4283 42.402C77.4283 42.402 76.9592 41.549 84.8927 42.2799C92.8257 43.0113 94.4962 51.3895 94.4962 51.3895C93.9392 37.9594 77.4283 40.6964 77.4283 40.6964V37.8044C77.4283 37.8044 87.9547 37.0412 92.4082 39.5995C96.8622 42.1582 103.125 48.25 99.6457 67.8656ZM75.0395 50.5526H79.455C83.871 50.5526 90.4412 51.447 88.3972 63.412C86.3532 75.377 77.1558 76.2719 77.1558 76.2719L75.0395 50.5526ZM61.5716 53.0125C45.7312 53.0125 48.797 32.4369 48.797 32.4369C48.797 32.4369 46.4978 40.4882 25.5481 40.4882C4.59842 40.4882 6.64247 26.175 6.64247 26.175C6.64247 5.15222 29.8376 7.56413 29.8376 7.56413C43.5802 -5.0082 56.9727 7.83598 56.9727 7.83598C71.535 5.59944 69.2358 17.8999 69.2358 17.8999C79.455 20.8075 73.0682 29.977 73.0682 29.977C76.134 42.5014 77.4115 53.0125 61.5716 53.0125ZM72.5981 97.2281C72.2273 97.5936 67.1272 57.7337 65.6858 55.3165C65.6858 55.3165 67.5116 55.3165 70.4264 53.7325C70.4264 53.7325 72.9689 96.8626 72.5981 97.2281ZM59.8549 55.3165C59.8549 55.3165 60.9538 55.8037 63.0413 55.3165L64.5723 81.0239L59.8549 55.3165ZM19.9274 50.776C21.8042 60.6318 12.9147 101.397 11.4456 108.011C14.7877 92.2907 14.0515 51.447 14.0515 51.447H8.43081V37.8044C21.2049 49.4343 46.4978 38.9227 46.4978 38.9227C45.7312 47.4212 51.245 50.776 51.245 50.776H19.9274ZM34.138 63.412C31.93 63.412 30.14 61.8451 30.14 59.9127C30.14 57.9799 31.93 56.413 34.138 56.413C36.3454 56.413 38.1354 57.9799 38.1354 59.9127C38.1354 61.8451 36.3454 63.412 34.138 63.412ZM35.4144 82.242C34.1461 82.242 33.1179 81.3423 33.1179 80.2317C33.1179 79.1215 34.1461 78.2213 35.4144 78.2213C36.6826 78.2213 37.7109 79.1215 37.7109 80.2317C37.7109 81.3423 36.6826 82.242 35.4144 82.242ZM29.982 71.6424C27.8566 71.6424 26.1334 70.134 26.1334 68.2734C26.1334 66.4127 27.8566 64.9043 29.982 64.9043C32.1075 64.9043 33.8307 66.4127 33.8307 68.2734C33.8307 70.134 32.1075 71.6424 29.982 71.6424ZM87.8863 36.4628L76.9006 36.239C76.9006 36.239 76.134 30.8715 75.3674 29.306C75.3674 29.306 82.5208 21.0314 71.2799 16.5583C71.2799 16.5583 74.8566 4.92886 57.2284 5.59944C57.2284 5.59944 45.7312 -6.98049 27.8473 5.5714C27.8473 5.5714 -2.81063 4.92886 5.62071 33.5552C5.62071 33.5552 7.66422 46.974 4.59842 68.6678C1.53263 90.3617 0 104.228 0 109.818C0 115.41 1.78834 117.87 14.8181 120.553C27.8473 123.237 49.5636 123.908 73.8348 119.212C73.8348 119.212 82.0099 117.646 80.9881 108.7C79.9664 99.7546 78.6889 94.1637 78.6889 94.1637C78.6889 94.1637 93.7622 91.0322 100.405 74.0353C100.405 74.0353 102.193 65.9841 102.449 58.1562C102.704 50.3288 102.193 38.0283 87.8863 36.4628Z" fill="#B38B3D"/>
</svg>
