<svg width="23" height="16" viewBox="0 0 23 16" fill="none" xmlns="http://www.w3.org/2000/svg">
<path d="M17.5 14.5C18.33 14.5 19 13.83 19 13C19 12.17 18.33 11.5 17.5 11.5C16.67 11.5 16 12.17 16 13C16 13.83 16.67 14.5 17.5 14.5ZM19 5.5H16.5V8H20.96L19 5.5ZM5.5 14.5C6.33 14.5 7 13.83 7 13C7 12.17 6.33 11.5 5.5 11.5C4.67 11.5 4 12.17 4 13C4 13.83 4.67 14.5 5.5 14.5ZM19.5 4L22.5 8V13H20.5C20.5 14.66 19.16 16 17.5 16C15.84 16 14.5 14.66 14.5 13H8.5C8.5 14.66 7.16 16 5.5 16C3.84 16 2.5 14.66 2.5 13H0.5V2C0.5 0.89 1.39 0 2.5 0H16.5V4H19.5ZM2.5 2V11H3.26C3.81 10.39 4.61 10 5.5 10C6.39 10 7.19 10.39 7.74 11H14.5V2H2.5ZM9.5 3L13 6.5L9.5 10V7.5H4.5V5.5H9.5V3Z" fill="#272C6E"/>
</svg>
